<svg width="254" height="267" viewBox="0 0 254 267" fill="none" xmlns="http://www.w3.org/2000/svg">
<path d="M130.5 208.5C130.5 209.296 130.816 210.059 131.379 210.621C131.941 211.184 132.704 211.5 133.5 211.5H138M130.5 205.5V225C130.5 225.796 130.816 226.559 131.379 227.121C131.941 227.684 132.704 228 133.5 228H138M156 216C156.398 216 156.779 215.842 157.061 215.561C157.342 215.279 157.5 214.898 157.5 214.5V210C157.5 209.602 157.342 209.221 157.061 208.939C156.779 208.658 156.398 208.5 156 208.5H152.25C152.017 208.5 151.787 208.446 151.579 208.342C151.371 208.237 151.19 208.086 151.05 207.9L149.7 206.1C149.56 205.914 149.379 205.763 149.171 205.658C148.963 205.554 148.733 205.5 148.5 205.5H145.5C145.102 205.5 144.721 205.658 144.439 205.939C144.158 206.221 144 206.602 144 207V214.5C144 214.898 144.158 215.279 144.439 215.561C144.721 215.842 145.102 216 145.5 216H156ZM156 232.5C156.398 232.5 156.779 232.342 157.061 232.061C157.342 231.779 157.5 231.398 157.5 231V226.5C157.5 226.102 157.342 225.721 157.061 225.439C156.779 225.158 156.398 225 156 225H151.65C151.376 224.996 151.107 224.918 150.875 224.772C150.642 224.627 150.453 224.42 150.33 224.175L149.7 222.9C149.583 222.632 149.39 222.403 149.145 222.244C148.899 222.084 148.613 221.999 148.32 222H145.5C145.102 222 144.721 222.158 144.439 222.439C144.158 222.721 144 223.102 144 223.5V231C144 231.398 144.158 231.779 144.439 232.061C144.721 232.342 145.102 232.5 145.5 232.5H156Z" stroke="#A4D0F9" stroke-width="2" stroke-linecap="round" stroke-linejoin="round"/>
<path d="M192.31 83.5H185.5C184.704 83.5 183.941 83.8161 183.379 84.3787C182.816 84.9413 182.5 85.7044 182.5 86.5V93.31M170.5 66.01V68.5C170.5 69.6935 170.974 70.8381 171.818 71.682C172.662 72.5259 173.807 73 175 73C175.796 73 176.559 73.3161 177.121 73.8787C177.684 74.4413 178 75.2044 178 76C178 77.65 179.35 79 181 79C181.796 79 182.559 78.6839 183.121 78.1213C183.684 77.5587 184 76.7956 184 76C184 74.35 185.35 73 187 73H191.755M176.5 93.925V88C176.5 87.2044 176.184 86.4413 175.621 85.8787C175.059 85.3161 174.296 85 173.5 85C172.704 85 171.941 84.6839 171.379 84.1213C170.816 83.5587 170.5 82.7956 170.5 82V80.5C170.5 79.7044 170.184 78.9413 169.621 78.3787C169.059 77.8161 168.296 77.5 167.5 77.5H163.075M193 79C193 87.2843 186.284 94 178 94C169.716 94 163 87.2843 163 79C163 70.7157 169.716 64 178 64C186.284 64 193 70.7157 193 79Z" stroke="#A4D0F9" stroke-width="2" stroke-linecap="round" stroke-linejoin="round"/>
<path d="M237.665 46.496L240.335 50.504M239.243 54.182L234.257 56.318M248 41L238.91 43.2725M222.5 39.5V63.5C222.5 64.2956 222.816 65.0587 223.379 65.6213C223.941 66.1839 224.704 66.5 225.5 66.5H249.5M239 44C239 45.6569 237.657 47 236 47C234.343 47 233 45.6569 233 44C233 42.3431 234.343 41 236 41C237.657 41 239 42.3431 239 44ZM245 53C245 54.6569 243.657 56 242 56C240.343 56 239 54.6569 239 53C239 51.3431 240.343 50 242 50C243.657 50 245 51.3431 245 53ZM234.5 57.5C234.5 59.1569 233.157 60.5 231.5 60.5C229.843 60.5 228.5 59.1569 228.5 57.5C228.5 55.8431 229.843 54.5 231.5 54.5C233.157 54.5 234.5 55.8431 234.5 57.5Z" stroke="#D4E9FC" stroke-width="2" stroke-linecap="round" stroke-linejoin="round"/>
<path d="M82 108C82 115.49 73.6915 123.289 70.9015 125.698C70.6416 125.894 70.3252 126 70 126C69.6748 126 69.3584 125.894 69.0985 125.698C66.3085 123.289 58 115.49 58 108C58 104.817 59.2643 101.765 61.5147 99.5147C63.7652 97.2643 66.8174 96 70 96C73.1826 96 76.2348 97.2643 78.4853 99.5147C80.7357 101.765 82 104.817 82 108Z" stroke="#D4E9FC" stroke-width="2" stroke-linecap="round" stroke-linejoin="round"/>
<path d="M70 112.5C72.4853 112.5 74.5 110.485 74.5 108C74.5 105.515 72.4853 103.5 70 103.5C67.5147 103.5 65.5 105.515 65.5 108C65.5 110.485 67.5147 112.5 70 112.5Z" stroke="#D4E9FC" stroke-width="2" stroke-linecap="round" stroke-linejoin="round"/>
<path d="M123 103H129M126 121L130.5 116.5M138 121C138 127.627 132.627 133 126 133C119.373 133 114 127.627 114 121C114 114.373 119.373 109 126 109C132.627 109 138 114.373 138 121Z" stroke="#A4D0F9" stroke-width="2" stroke-linecap="round" stroke-linejoin="round"/>
<path d="M106.5 56L109.5 59L115.5 53M126 56C126 64.2843 119.284 71 111 71C102.716 71 96 64.2843 96 56C96 47.7157 102.716 41 111 41C119.284 41 126 47.7157 126 56Z" stroke="#D4E9FC" stroke-width="2" stroke-linecap="round" stroke-linejoin="round"/>
<path d="M94 250.5L101.834 255.723C101.947 255.798 102.079 255.841 102.214 255.848C102.35 255.854 102.484 255.824 102.604 255.76C102.724 255.696 102.824 255.601 102.893 255.484C102.963 255.368 103 255.235 103 255.099V242.805C103 242.673 102.965 242.543 102.899 242.429C102.833 242.315 102.738 242.22 102.624 242.154C102.509 242.089 102.379 242.054 102.247 242.055C102.115 242.055 101.986 242.09 101.872 242.157L94 246.75M76 240H91C92.6569 240 94 241.343 94 243V255C94 256.657 92.6569 258 91 258H76C74.3431 258 73 256.657 73 255V243C73 241.343 74.3431 240 76 240Z" stroke="#D4E9FC" stroke-width="2" stroke-linecap="round" stroke-linejoin="round"/>
<path d="M31.815 182.835C30.8607 185.092 29.3682 187.08 27.4678 188.627C25.5675 190.174 23.3172 191.231 20.9137 191.707C18.5102 192.183 16.0266 192.063 13.6802 191.358C11.3338 190.652 9.19593 189.383 7.45352 187.66C5.71111 185.937 4.41722 183.814 3.68495 181.476C2.95268 179.138 2.80434 176.656 3.25289 174.247C3.70145 171.838 4.73324 169.576 6.25806 167.658C7.78289 165.74 9.75432 164.225 12 163.245M31.5 177C32.328 177 33.0075 176.327 32.925 175.503C32.5792 172.059 31.0531 168.841 28.6055 166.394C26.1579 163.947 22.9393 162.422 19.4955 162.077C18.6705 161.994 17.9985 162.674 17.9985 163.502V175.502C17.9985 175.899 18.1565 176.281 18.4378 176.562C18.7191 176.843 19.1007 177.002 19.4985 177.002L31.5 177Z" stroke="#D4E9FC" stroke-width="2" stroke-linecap="round" stroke-linejoin="round"/>
<path d="M47 54.8785V36.8785C47 36.0829 46.6839 35.3198 46.1213 34.7572C45.5587 34.1946 44.7956 33.8785 44 33.8785H32C31.2044 33.8785 30.4413 34.1946 29.8787 34.7572C29.3161 35.3198 29 36.0829 29 36.8785V53.3785C29 53.7764 29.158 54.1579 29.4393 54.4392C29.7206 54.7205 30.1022 54.8785 30.5 54.8785H33.5M33.5 54.8785C33.5 56.5354 34.8431 57.8785 36.5 57.8785C38.1569 57.8785 39.5 56.5354 39.5 54.8785M33.5 54.8785C33.5 53.2217 34.8431 51.8785 36.5 51.8785C38.1569 51.8785 39.5 53.2217 39.5 54.8785M48.5 54.8785H39.5M48.5 54.8785C48.5 56.5354 49.8431 57.8785 51.5 57.8785C53.1569 57.8785 54.5 56.5354 54.5 54.8785M48.5 54.8785C48.5 53.2217 49.8431 51.8785 51.5 51.8785C53.1569 51.8785 54.5 53.2217 54.5 54.8785M54.5 54.8785H57.5C57.8978 54.8785 58.2794 54.7205 58.5607 54.4392C58.842 54.1579 59 53.7764 59 53.3785V47.9035C58.9994 47.5631 58.883 47.2331 58.67 46.9675L53.45 40.4425C53.3097 40.2669 53.1317 40.125 52.9292 40.0273C52.7267 39.9297 52.5048 39.8789 52.28 39.8785H47" stroke="#A4D0F9" stroke-width="2" stroke-linecap="round" stroke-linejoin="round"/>
<path d="M178.33 3H177.67C176.874 3 176.111 3.31607 175.549 3.87868C174.986 4.44129 174.67 5.20435 174.67 6V6.27C174.669 6.79609 174.531 7.31278 174.267 7.76826C174.004 8.22373 173.626 8.60196 173.17 8.865L172.525 9.24C172.069 9.5033 171.552 9.64192 171.025 9.64192C170.498 9.64192 169.981 9.5033 169.525 9.24L169.3 9.12C168.612 8.72289 167.794 8.61517 167.026 8.82046C166.258 9.02576 165.603 9.5273 165.205 10.215L164.875 10.785C164.478 11.4734 164.37 12.2912 164.575 13.059C164.781 13.8268 165.282 14.4817 165.97 14.88L166.195 15.03C166.648 15.2918 167.025 15.6676 167.289 16.1202C167.552 16.5729 167.692 17.0865 167.695 17.61V18.375C167.697 18.9036 167.559 19.4234 167.296 19.8818C167.033 20.3401 166.653 20.7207 166.195 20.985L165.97 21.12C165.282 21.5183 164.781 22.1732 164.575 22.941C164.37 23.7088 164.478 24.5266 164.875 25.215L165.205 25.785C165.603 26.4727 166.258 26.9742 167.026 27.1795C167.794 27.3848 168.612 27.2771 169.3 26.88L169.525 26.76C169.981 26.4967 170.498 26.3581 171.025 26.3581C171.552 26.3581 172.069 26.4967 172.525 26.76L173.17 27.135C173.626 27.398 174.004 27.7763 174.267 28.2317C174.531 28.6872 174.669 29.2039 174.67 29.73V30C174.67 30.7956 174.986 31.5587 175.549 32.1213C176.111 32.6839 176.874 33 177.67 33H178.33C179.126 33 179.889 32.6839 180.451 32.1213C181.014 31.5587 181.33 30.7956 181.33 30V29.73C181.331 29.2039 181.469 28.6872 181.733 28.2317C181.996 27.7763 182.374 27.398 182.83 27.135L183.475 26.76C183.931 26.4967 184.448 26.3581 184.975 26.3581C185.502 26.3581 186.019 26.4967 186.475 26.76L186.7 26.88C187.388 27.2771 188.206 27.3848 188.974 27.1795C189.742 26.9742 190.397 26.4727 190.795 25.785L191.125 25.2C191.522 24.5116 191.63 23.6938 191.425 22.926C191.219 22.1582 190.718 21.5033 190.03 21.105L189.805 20.985C189.347 20.7207 188.967 20.3401 188.704 19.8818C188.441 19.4234 188.303 18.9036 188.305 18.375V17.625C188.303 17.0964 188.441 16.5766 188.704 16.1182C188.967 15.6599 189.347 15.2793 189.805 15.015L190.03 14.88C190.718 14.4817 191.219 13.8268 191.425 13.059C191.63 12.2912 191.522 11.4734 191.125 10.785L190.795 10.215C190.397 9.5273 189.742 9.02576 188.974 8.82046C188.206 8.61517 187.388 8.72289 186.7 9.12L186.475 9.24C186.019 9.5033 185.502 9.64192 184.975 9.64192C184.448 9.64192 183.931 9.5033 183.475 9.24L182.83 8.865C182.374 8.60196 181.996 8.22373 181.733 7.76826C181.469 7.31278 181.331 6.79609 181.33 6.27V6C181.33 5.20435 181.014 4.44129 180.451 3.87868C179.889 3.31607 179.126 3 178.33 3Z" stroke="#A4D0F9" stroke-width="2" stroke-linecap="round" stroke-linejoin="round"/>
<path d="M178 22.5C180.485 22.5 182.5 20.4853 182.5 18C182.5 15.5147 180.485 13.5 178 13.5C175.515 13.5 173.5 15.5147 173.5 18C173.5 20.4853 175.515 22.5 178 22.5Z" stroke="#A4D0F9" stroke-width="2" stroke-linecap="round" stroke-linejoin="round"/>
<path d="M74 171H86M86 183V189M86 177H86.015M80 177H80.015M74 177H74.015M80 183H80.015M74 183H74.015M80 189H80.015M74 189H74.015M71 165H89C90.6569 165 92 166.343 92 168V192C92 193.657 90.6569 195 89 195H71C69.3431 195 68 193.657 68 192V168C68 166.343 69.3431 165 71 165Z" stroke="#A4D0F9" stroke-width="2" stroke-linecap="round" stroke-linejoin="round"/>
<path d="M159 164H159.015M165 164H165.015M171 164H171.015M158.85 176C161.713 177.469 165.006 177.866 168.136 177.122C171.267 176.377 174.028 174.539 175.923 171.938C177.817 169.338 178.721 166.146 178.471 162.938C178.221 159.73 176.833 156.717 174.558 154.442C172.283 152.167 169.27 150.779 166.062 150.529C162.854 150.279 159.662 151.183 157.062 153.077C154.461 154.972 152.623 157.733 151.878 160.864C151.134 163.994 151.531 167.287 153 170.15L150 179L158.85 176Z" stroke="#D4E9FC" stroke-width="2" stroke-linecap="round" stroke-linejoin="round"/>
</svg>
