<svg width="271" height="297" viewBox="0 0 271 297" fill="none" xmlns="http://www.w3.org/2000/svg">
<path d="M220 131V113C220 112.204 219.684 111.441 219.121 110.879C218.559 110.316 217.796 110 217 110H205C204.204 110 203.441 110.316 202.879 110.879C202.316 111.441 202 112.204 202 113V129.5C202 129.898 202.158 130.279 202.439 130.561C202.721 130.842 203.102 131 203.5 131H206.5M206.5 131C206.5 132.657 207.843 134 209.5 134C211.157 134 212.5 132.657 212.5 131M206.5 131C206.5 129.343 207.843 128 209.5 128C211.157 128 212.5 129.343 212.5 131M221.5 131H212.5M221.5 131C221.5 132.657 222.843 134 224.5 134C226.157 134 227.5 132.657 227.5 131M221.5 131C221.5 129.343 222.843 128 224.5 128C226.157 128 227.5 129.343 227.5 131M227.5 131H230.5C230.898 131 231.279 130.842 231.561 130.561C231.842 130.279 232 129.898 232 129.5V124.025C231.999 123.685 231.883 123.355 231.67 123.089L226.45 116.564C226.31 116.388 226.132 116.246 225.929 116.149C225.727 116.051 225.505 116 225.28 116H220" stroke="#D4E9FC" stroke-width="2" stroke-linecap="round" stroke-linejoin="round"/>
<path d="M194.5 228.5C194.5 229.296 194.816 230.059 195.379 230.621C195.941 231.184 196.704 231.5 197.5 231.5H202M194.5 225.5V245C194.5 245.796 194.816 246.559 195.379 247.121C195.941 247.684 196.704 248 197.5 248H202M220 236C220.398 236 220.779 235.842 221.061 235.561C221.342 235.279 221.5 234.898 221.5 234.5V230C221.5 229.602 221.342 229.221 221.061 228.939C220.779 228.658 220.398 228.5 220 228.5H216.25C216.017 228.5 215.787 228.446 215.579 228.342C215.371 228.237 215.19 228.086 215.05 227.9L213.7 226.1C213.56 225.914 213.379 225.763 213.171 225.658C212.963 225.554 212.733 225.5 212.5 225.5H209.5C209.102 225.5 208.721 225.658 208.439 225.939C208.158 226.221 208 226.602 208 227V234.5C208 234.898 208.158 235.279 208.439 235.561C208.721 235.842 209.102 236 209.5 236H220ZM220 252.5C220.398 252.5 220.779 252.342 221.061 252.061C221.342 251.779 221.5 251.398 221.5 251V246.5C221.5 246.102 221.342 245.721 221.061 245.439C220.779 245.158 220.398 245 220 245H215.65C215.376 244.996 215.107 244.918 214.875 244.772C214.642 244.627 214.453 244.42 214.33 244.175L213.7 242.9C213.583 242.632 213.39 242.403 213.145 242.244C212.899 242.084 212.613 241.999 212.32 242H209.5C209.102 242 208.721 242.158 208.439 242.439C208.158 242.721 208 243.102 208 243.5V251C208 251.398 208.158 251.779 208.439 252.061C208.721 252.342 209.102 252.5 209.5 252.5H220Z" stroke="#D4E9FC" stroke-width="2" stroke-linecap="round" stroke-linejoin="round"/>
<path d="M136.31 224.5H129.5C128.704 224.5 127.941 224.816 127.379 225.379C126.816 225.941 126.5 226.704 126.5 227.5V234.31M114.5 207.01V209.5C114.5 210.693 114.974 211.838 115.818 212.682C116.662 213.526 117.807 214 119 214C119.796 214 120.559 214.316 121.121 214.879C121.684 215.441 122 216.204 122 217C122 218.65 123.35 220 125 220C125.796 220 126.559 219.684 127.121 219.121C127.684 218.559 128 217.796 128 217C128 215.35 129.35 214 131 214H135.755M120.5 234.925V229C120.5 228.204 120.184 227.441 119.621 226.879C119.059 226.316 118.296 226 117.5 226C116.704 226 115.941 225.684 115.379 225.121C114.816 224.559 114.5 223.796 114.5 223V221.5C114.5 220.704 114.184 219.941 113.621 219.379C113.059 218.816 112.296 218.5 111.5 218.5H107.075M137 220C137 228.284 130.284 235 122 235C113.716 235 107 228.284 107 220C107 211.716 113.716 205 122 205C130.284 205 137 211.716 137 220Z" stroke="#D4E9FC" stroke-width="2" stroke-linecap="round" stroke-linejoin="round"/>
<path d="M254.665 166.496L257.335 170.504M256.243 174.182L251.257 176.318M265 161L255.91 163.272M239.5 159.5V183.5C239.5 184.296 239.816 185.059 240.379 185.621C240.941 186.184 241.704 186.5 242.5 186.5H266.5M256 164C256 165.657 254.657 167 253 167C251.343 167 250 165.657 250 164C250 162.343 251.343 161 253 161C254.657 161 256 162.343 256 164ZM262 173C262 174.657 260.657 176 259 176C257.343 176 256 174.657 256 173C256 171.343 257.343 170 259 170C260.657 170 262 171.343 262 173ZM251.5 177.5C251.5 179.157 250.157 180.5 248.5 180.5C246.843 180.5 245.5 179.157 245.5 177.5C245.5 175.843 246.843 174.5 248.5 174.5C250.157 174.5 251.5 175.843 251.5 177.5Z" stroke="#A4D0F9" stroke-width="2" stroke-linecap="round" stroke-linejoin="round"/>
<path d="M142 49C142 56.4895 133.691 64.2895 130.901 66.6985C130.642 66.8939 130.325 66.9996 130 66.9996C129.675 66.9996 129.358 66.8939 129.099 66.6985C126.309 64.2895 118 56.4895 118 49C118 45.8174 119.264 42.7652 121.515 40.5147C123.765 38.2643 126.817 37 130 37C133.183 37 136.235 38.2643 138.485 40.5147C140.736 42.7652 142 45.8174 142 49Z" stroke="#A4D0F9" stroke-width="2" stroke-linecap="round" stroke-linejoin="round"/>
<path d="M130 53.5C132.485 53.5 134.5 51.4853 134.5 49C134.5 46.5147 132.485 44.5 130 44.5C127.515 44.5 125.5 46.5147 125.5 49C125.5 51.4853 127.515 53.5 130 53.5Z" stroke="#A4D0F9" stroke-width="2" stroke-linecap="round" stroke-linejoin="round"/>
<path d="M146 95H152M149 113L153.5 108.5M161 113C161 119.627 155.627 125 149 125C142.373 125 137 119.627 137 113C137 106.373 142.373 101 149 101C155.627 101 161 106.373 161 113Z" stroke="#D4E9FC" stroke-width="2" stroke-linecap="round" stroke-linejoin="round"/>
<path d="M192.5 58L195.5 61L201.5 55M212 58C212 66.2843 205.284 73 197 73C188.716 73 182 66.2843 182 58C182 49.7157 188.716 43 197 43C205.284 43 212 49.7157 212 58Z" stroke="#A4D0F9" stroke-width="2" stroke-linecap="round" stroke-linejoin="round"/>
<path d="M154 280.5L161.834 285.723C161.947 285.798 162.079 285.841 162.214 285.848C162.35 285.854 162.484 285.824 162.604 285.76C162.724 285.696 162.824 285.601 162.893 285.484C162.963 285.368 163 285.235 163 285.099V272.805C163 272.673 162.965 272.543 162.899 272.429C162.833 272.315 162.738 272.22 162.624 272.154C162.509 272.089 162.379 272.054 162.247 272.055C162.115 272.055 161.986 272.09 161.872 272.157L154 276.75M136 270H151C152.657 270 154 271.343 154 273V285C154 286.657 152.657 288 151 288H136C134.343 288 133 286.657 133 285V273C133 271.343 134.343 270 136 270Z" stroke="#A4D0F9" stroke-width="2" stroke-linecap="round" stroke-linejoin="round"/>
<path d="M31.8151 46.835C30.8608 49.0917 29.3683 51.0803 27.4679 52.627C25.5676 54.1736 23.3173 55.2311 20.9138 55.7072C18.5103 56.1832 16.0268 56.0632 13.6803 55.3577C11.3339 54.6522 9.19605 53.3826 7.45365 51.66C5.71124 49.9374 4.41734 47.8141 3.68507 45.4759C2.9528 43.1377 2.80446 40.6557 3.25301 38.247C3.70157 35.8382 4.73336 33.5759 6.25819 31.658C7.78301 29.7401 9.75444 28.225 12.0001 27.245M31.5001 41C32.3281 41 33.0076 40.3265 32.9251 39.503C32.5793 36.0593 31.0532 32.8411 28.6056 30.394C26.158 27.9469 22.9394 26.4216 19.4956 26.0765C18.6706 25.994 17.9986 26.6735 17.9986 27.5015V39.5015C17.9986 39.8993 18.1567 40.2809 18.438 40.5622C18.7193 40.8435 19.1008 41.0015 19.4986 41.0015L31.5001 41Z" stroke="#A4D0F9" stroke-width="2" stroke-linecap="round" stroke-linejoin="round"/>
<path d="M66.33 60H65.67C64.8744 60 64.1113 60.3161 63.5487 60.8787C62.9861 61.4413 62.67 62.2044 62.67 63V63.27C62.6695 63.7961 62.5306 64.3128 62.2673 64.7683C62.004 65.2237 61.6256 65.602 61.17 65.865L60.525 66.24C60.0689 66.5033 59.5516 66.6419 59.025 66.6419C58.4984 66.6419 57.9811 66.5033 57.525 66.24L57.3 66.12C56.6116 65.7229 55.7938 65.6152 55.026 65.8205C54.2583 66.0258 53.6033 66.5273 53.205 67.215L52.875 67.785C52.4779 68.4734 52.3702 69.2912 52.5755 70.059C52.7808 70.8268 53.2823 71.4817 53.97 71.88L54.195 72.03C54.6484 72.2918 55.0254 72.6676 55.2886 73.1202C55.5517 73.5729 55.6918 74.0865 55.695 74.61V75.375C55.6971 75.9036 55.5595 76.4234 55.2961 76.8818C55.0327 77.3401 54.6528 77.7207 54.195 77.985L53.97 78.12C53.2823 78.5183 52.7808 79.1732 52.5755 79.941C52.3702 80.7088 52.4779 81.5266 52.875 82.215L53.205 82.785C53.6033 83.4727 54.2583 83.9742 55.026 84.1795C55.7938 84.3848 56.6116 84.2771 57.3 83.88L57.525 83.76C57.9811 83.4967 58.4984 83.3581 59.025 83.3581C59.5516 83.3581 60.0689 83.4967 60.525 83.76L61.17 84.135C61.6256 84.398 62.004 84.7763 62.2673 85.2317C62.5306 85.6872 62.6695 86.2039 62.67 86.73V87C62.67 87.7956 62.9861 88.5587 63.5487 89.1213C64.1113 89.6839 64.8744 90 65.67 90H66.33C67.1257 90 67.8887 89.6839 68.4513 89.1213C69.0139 88.5587 69.33 87.7956 69.33 87V86.73C69.3305 86.2039 69.4694 85.6872 69.7327 85.2317C69.996 84.7763 70.3744 84.398 70.83 84.135L71.475 83.76C71.9311 83.4967 72.4484 83.3581 72.975 83.3581C73.5016 83.3581 74.0189 83.4967 74.475 83.76L74.7 83.88C75.3884 84.2771 76.2062 84.3848 76.974 84.1795C77.7418 83.9742 78.3967 83.4727 78.795 82.785L79.125 82.2C79.5221 81.5116 79.6298 80.6938 79.4245 79.926C79.2192 79.1582 78.7177 78.5033 78.03 78.105L77.805 77.985C77.3472 77.7207 76.9673 77.3401 76.7039 76.8818C76.4405 76.4234 76.3029 75.9036 76.305 75.375V74.625C76.3029 74.0964 76.4405 73.5766 76.7039 73.1182C76.9673 72.6599 77.3472 72.2793 77.805 72.015L78.03 71.88C78.7177 71.4817 79.2192 70.8268 79.4245 70.059C79.6298 69.2912 79.5221 68.4734 79.125 67.785L78.795 67.215C78.3967 66.5273 77.7418 66.0258 76.974 65.8205C76.2062 65.6152 75.3884 65.7229 74.7 66.12L74.475 66.24C74.0189 66.5033 73.5016 66.6419 72.975 66.6419C72.4484 66.6419 71.9311 66.5033 71.475 66.24L70.83 65.865C70.3744 65.602 69.996 65.2237 69.7327 64.7683C69.4694 64.3128 69.3305 63.7961 69.33 63.27V63C69.33 62.2044 69.0139 61.4413 68.4513 60.8787C67.8887 60.3161 67.1257 60 66.33 60Z" stroke="#D4E9FC" stroke-width="2" stroke-linecap="round" stroke-linejoin="round"/>
<path d="M66 79.5C68.4853 79.5 70.5 77.4853 70.5 75C70.5 72.5147 68.4853 70.5 66 70.5C63.5147 70.5 61.5 72.5147 61.5 75C61.5 77.4853 63.5147 79.5 66 79.5Z" stroke="#D4E9FC" stroke-width="2" stroke-linecap="round" stroke-linejoin="round"/>
<path d="M79 9H91M91 21V27M91 15H91.015M85 15H85.015M79 15H79.015M85 21H85.015M79 21H79.015M85 27H85.015M79 27H79.015M76 3H94C95.6569 3 97 4.34315 97 6V30C97 31.6569 95.6569 33 94 33H76C74.3431 33 73 31.6569 73 30V6C73 4.34315 74.3431 3 76 3Z" stroke="#D4E9FC" stroke-width="2" stroke-linecap="round" stroke-linejoin="round"/>
<path d="M173 175H173.015M179 175H179.015M185 175H185.015M172.85 187C175.713 188.469 179.006 188.866 182.136 188.122C185.267 187.377 188.028 185.539 189.923 182.938C191.817 180.338 192.721 177.146 192.471 173.938C192.221 170.73 190.833 167.717 188.558 165.442C186.283 163.167 183.27 161.779 180.062 161.529C176.854 161.279 173.662 162.183 171.062 164.077C168.461 165.972 166.623 168.733 165.878 171.864C165.134 174.994 165.531 178.287 167 181.15L164 190L172.85 187Z" stroke="#A4D0F9" stroke-width="2" stroke-linecap="round" stroke-linejoin="round"/>
</svg>
