<svg width="20" height="20" viewBox="0 0 20 20" fill="none" xmlns="http://www.w3.org/2000/svg">
<g clip-path="url(#clip0_144_52)">
<path d="M7.20732 10.6974C7.07753 10.5139 6.96503 10.3173 6.8719 10.1094L4.68273 11.3991C4.27315 10.9769 3.62273 10.87 3.09482 11.181C2.46711 11.5507 2.2521 12.3698 2.6146 13.0103C2.9769 13.651 3.77961 13.8704 4.40732 13.5005C4.93523 13.1897 5.16982 12.5613 5.01607 11.9882L7.20732 10.6974Z" fill="#011527"/>
<path d="M9.64225 2.63351V5.22067C9.74808 5.21068 9.85496 5.20409 9.96329 5.20409C10.08 5.20409 10.1954 5.21025 10.3091 5.22216V2.63329C10.8723 2.48257 11.2881 1.96131 11.2881 1.33929C11.2881 0.599703 10.7006 0 9.97558 0C9.25079 0 8.66309 0.599703 8.66309 1.33929C8.66309 1.96131 9.07912 2.48278 9.64225 2.63351Z" fill="#011527"/>
<path d="M16.8564 11.1808C16.3286 10.8698 15.678 10.9767 15.2686 11.3989L13.0599 10.0977C12.9676 10.306 12.8557 10.5028 12.7266 10.6869L14.9353 11.988C14.7816 12.5611 15.0161 13.1895 15.5439 13.5003C16.1716 13.8702 16.9745 13.6508 17.3368 13.0101C17.6993 12.3696 17.4841 11.5505 16.8564 11.1808Z" fill="#011527"/>
<path d="M17.7626 6.14321C16.9347 6.6313 15.8726 6.3407 15.3947 5.4961C15.1632 5.08687 15.1018 4.61025 15.2215 4.15383C15.3413 3.69762 15.6282 3.31603 16.0293 3.07985C16.2961 2.92254 16.5926 2.84218 16.893 2.84218C17.0434 2.84218 17.1951 2.86238 17.3445 2.90319C17.7916 3.02543 18.1655 3.31816 18.3968 3.72739C18.8747 4.57178 18.5903 5.65575 17.7626 6.14321ZM9.96342 10.4423C9.00759 10.4423 8.23009 9.64895 8.23009 8.67361C8.23009 7.69827 9.00759 6.9049 9.96342 6.9049C10.919 6.9049 11.6966 7.69827 11.6966 8.67361C11.6966 9.64895 10.919 10.4423 9.96342 10.4423ZM11.6966 16.8201C11.6966 17.7952 10.919 18.5886 9.96342 18.5886C9.00759 18.5886 8.23009 17.7952 8.23009 16.8201C8.23009 15.8447 9.00759 15.0514 9.96342 15.0514C10.919 15.0514 11.6966 15.8447 11.6966 16.8201ZM4.56925 5.47377C4.09155 6.31838 3.02925 6.60919 2.20154 6.1211C1.37383 5.63364 1.08925 4.54967 1.56717 3.70528C1.79863 3.29605 2.17258 3.00332 2.61967 2.88109C3.06696 2.75906 3.53404 2.82156 3.93488 3.05774C4.33592 3.29393 4.6228 3.67552 4.74259 4.13172C4.86238 4.58814 4.80092 5.06476 4.56925 5.47377ZM19.5516 3.0469C19.1422 2.32305 18.4807 1.8054 17.6895 1.58899C16.898 1.37279 16.0718 1.48376 15.3626 1.90149C14.653 2.31965 14.1457 2.99418 13.9336 3.80179C13.7805 4.38513 13.7972 4.98653 13.9713 5.54882L12.2309 6.57433C11.6695 5.94338 10.8622 5.54435 9.96342 5.54435C9.07821 5.54435 8.28175 5.93126 7.72154 6.54542L5.99259 5.52692C6.16676 4.96463 6.18363 4.36302 6.03051 3.77968C5.81842 2.97207 5.31092 2.29754 4.60154 1.87938C3.89217 1.46165 3.06592 1.35068 2.27446 1.56688C1.48321 1.7833 0.821958 2.30094 0.412375 3.02479C0.00279105 3.74886 -0.105959 4.59218 0.106124 5.39937C0.318208 6.20677 0.8255 6.88151 1.53488 7.29946C2.01654 7.58326 2.54321 7.71804 3.063 7.71804C3.90967 7.71804 4.7378 7.35962 5.32634 6.70549L7.04426 7.71761C6.94905 8.01927 6.89654 8.34006 6.89654 8.67361C6.89654 10.1653 7.92551 11.4145 9.29655 11.7263V13.7674C7.92551 14.0792 6.89654 15.3284 6.89654 16.8201C6.89654 18.5454 8.27238 19.9493 9.96342 19.9493C11.6543 19.9493 13.0301 18.5454 13.0301 16.8201C13.0301 15.3284 12.0011 14.0792 10.6301 13.7674V11.7263C12.0011 11.4145 13.0301 10.1653 13.0301 8.67361C13.0301 8.35388 12.9824 8.04521 12.8945 7.75439L14.6376 6.7276C15.2261 7.38173 16.0543 7.74036 16.9009 7.74014C17.4207 7.74014 17.9476 7.60537 18.4293 7.32157C19.1386 6.90362 19.6459 6.22888 19.858 5.42148C20.0699 4.61429 19.9611 3.77097 19.5516 3.0469Z" fill="#011527"/>
</g>
<defs>
<clipPath id="clip0_144_52">
<rect width="20" height="20" fill="white"/>
</clipPath>
</defs>
</svg>
