<svg width="48" height="48" viewBox="0 0 48 48" fill="none" xmlns="http://www.w3.org/2000/svg">
<g clip-path="url(#clip0_39_4006)">
<path d="M31 41H3C2.46957 41 1.96086 40.7893 1.58579 40.4142C1.21071 40.0391 1 39.5304 1 39V3C1 2.46957 1.21071 1.96086 1.58579 1.58579C1.96086 1.21071 2.46957 1 3 1H31C31.5304 1 32.0391 1.21071 32.4142 1.58579C32.7893 1.96086 33 2.46957 33 3V39C33 39.5304 32.7893 40.0391 32.4142 40.4142C32.0391 40.7893 31.5304 41 31 41Z" fill="#8FFFD0"/>
<path d="M32.44 1.612C32.2534 1.41845 32.0297 1.26449 31.7823 1.15934C31.5349 1.05419 31.2688 0.999993 31 1H3C2.46957 1 1.96086 1.21071 1.58579 1.58579C1.21071 1.96086 1 2.46957 1 3V33.052L32.44 1.612Z" fill="white"/>
<path d="M27 41H3C2.46957 41 1.96086 40.7893 1.58579 40.4142C1.21071 40.0391 1 39.5304 1 39V3C1 2.46957 1.21071 1.96086 1.58579 1.58579C1.96086 1.21071 2.46957 1 3 1H31C31.5304 1 32.0391 1.21071 32.4142 1.58579C32.7893 1.96086 33 2.46957 33 3V30.836" stroke="#00140C" stroke-linecap="round" stroke-linejoin="round"/>
<path d="M47.0001 47L42.0381 40.132L42.0001 31C42.0841 27.444 36.8381 23.274 33.0001 20V30.836L31.6661 29.464C31.2649 29.0827 30.7306 28.8731 30.1772 28.8801C29.6237 28.8871 29.0949 29.1101 28.7036 29.5015C28.3122 29.8929 28.0892 30.4217 28.0822 30.9751C28.0752 31.5286 28.2847 32.0628 28.6661 32.464L34.0461 39V42C34.0461 43.922 37.1661 47 37.1661 47" fill="#8FFFD0"/>
<path d="M47.0001 47L42.0381 40.132L42.0001 31C42.0841 27.444 36.8381 23.274 33.0001 20V30.836L31.6661 29.464C31.2649 29.0827 30.7306 28.8731 30.1772 28.8801C29.6237 28.8871 29.0949 29.1101 28.7036 29.5015C28.3122 29.8929 28.0892 30.4217 28.0822 30.9751C28.0752 31.5286 28.2847 32.0628 28.6661 32.464L34.0461 39V42C34.0461 43.922 37.1661 47 37.1661 47" stroke="#00140C" stroke-linecap="round" stroke-linejoin="round"/>
<path d="M37.046 34.9999L33 30.8359" stroke="#00140C" stroke-linecap="round" stroke-linejoin="round"/>
<path d="M26 37H8C7.73478 37 7.48043 36.8946 7.29289 36.7071C7.10536 36.5196 7 36.2652 7 36V24C7 23.7348 7.10536 23.4804 7.29289 23.2929C7.48043 23.1054 7.73478 23 8 23H26C26.2652 23 26.5196 23.1054 26.7071 23.2929C26.8946 23.4804 27 23.7348 27 24V36C27 36.2652 26.8946 36.5196 26.7071 36.7071C26.5196 36.8946 26.2652 37 26 37Z" fill="#00EB89"/>
<path d="M27 37H8C7.73478 37 7.48043 36.8946 7.29289 36.7071C7.10536 36.5196 7 36.2652 7 36V24C7 23.7348 7.10536 23.4804 7.29289 23.2929C7.48043 23.1054 7.73478 23 8 23H26C26.2652 23 26.5196 23.1054 26.7071 23.2929C26.8946 23.4804 27 23.7348 27 24V27" stroke="#00140C" stroke-linecap="round" stroke-linejoin="round"/>
<path d="M7 27H27" stroke="#00140C" stroke-linecap="round" stroke-linejoin="round"/>
<path d="M13 23V37" stroke="#00140C" stroke-linecap="round" stroke-linejoin="round"/>
<path d="M19 23V37" stroke="#00140C" stroke-linecap="round" stroke-linejoin="round"/>
<path d="M19 9H27" stroke="#00140C" stroke-linecap="round" stroke-linejoin="round"/>
<path d="M19 13H24" stroke="#00140C" stroke-linecap="round" stroke-linejoin="round"/>
<path d="M11 17V19" stroke="#00140C" stroke-linecap="round" stroke-linejoin="round"/>
<path d="M11 7V9" stroke="#00140C" stroke-linecap="round" stroke-linejoin="round"/>
<path d="M7 17H13C13.5304 17 14.0391 16.7893 14.4142 16.4142C14.7893 16.0391 15 15.5304 15 15C15 14.4696 14.7893 13.9609 14.4142 13.5858C14.0391 13.2107 13.5304 13 13 13H9C8.46957 13 7.96086 12.7893 7.58579 12.4142C7.21071 12.0391 7 11.5304 7 11C7 10.4696 7.21071 9.96086 7.58579 9.58579C7.96086 9.21071 8.46957 9 9 9H15" stroke="#00140C" stroke-linecap="round" stroke-linejoin="round"/>
</g>
<defs>
<clipPath id="clip0_39_4006">
<rect width="48" height="48" fill="white"/>
</clipPath>
</defs>
</svg>
