<svg width="48" height="48" viewBox="0 0 48 48" fill="none" xmlns="http://www.w3.org/2000/svg">
<path d="M1 46.0801H47" stroke="#02101D" stroke-linecap="round" stroke-linejoin="round"/>
<path d="M9 37.4402C8.9974 37.3115 8.96947 37.1846 8.9178 37.0666C8.86614 36.9487 8.79175 36.8422 8.69888 36.753C8.60602 36.6639 8.4965 36.5939 8.37658 36.5471C8.25667 36.5003 8.1287 36.4775 8 36.4802H4C3.8713 36.4775 3.74333 36.5003 3.62342 36.5471C3.5035 36.5939 3.39398 36.6639 3.30112 36.753C3.20825 36.8422 3.13386 36.9487 3.0822 37.0666C3.03053 37.1846 3.0026 37.3115 3 37.4402V46.0802H9V37.4402Z" fill="#A4D0F9"/>
<path d="M21 27.8401C20.9974 27.7114 20.9695 27.5845 20.9178 27.4666C20.8661 27.3486 20.7917 27.2421 20.6989 27.1529C20.606 27.0638 20.4965 26.9938 20.3766 26.947C20.2567 26.9002 20.1287 26.8774 20 26.8801H16C15.8713 26.8774 15.7433 26.9002 15.6234 26.947C15.5035 26.9938 15.394 27.0638 15.3011 27.1529C15.2083 27.2421 15.1339 27.3486 15.0822 27.4666C15.0305 27.5845 15.0026 27.7114 15 27.8401V46.0801H21V27.8401Z" fill="#A4D0F9"/>
<path d="M33 31.6799C32.9974 31.5512 32.9695 31.4243 32.9178 31.3064C32.8661 31.1885 32.7917 31.0819 32.6989 30.9928C32.606 30.9036 32.4965 30.8336 32.3766 30.7868C32.2567 30.74 32.1287 30.7173 32 30.7199H28C27.8713 30.7173 27.7433 30.74 27.6234 30.7868C27.5035 30.8336 27.394 30.9036 27.3011 30.9928C27.2083 31.0819 27.1339 31.1885 27.0822 31.3064C27.0305 31.4243 27.0026 31.5512 27 31.6799V46.0799H33V31.6799Z" fill="#A4D0F9"/>
<path d="M45 18.24C44.9974 18.1113 44.9695 17.9844 44.9178 17.8665C44.8661 17.7485 44.7917 17.642 44.6989 17.5528C44.606 17.4637 44.4965 17.3937 44.3766 17.3469C44.2567 17.3001 44.1287 17.2773 44 17.28H40C39.8713 17.2773 39.7433 17.3001 39.6234 17.3469C39.5035 17.3937 39.394 17.4637 39.3011 17.5528C39.2083 17.642 39.1339 17.7485 39.0822 17.8665C39.0305 17.9844 39.0026 18.1113 39 18.24V46.08H45V18.24Z" fill="#A4D0F9"/>
<path d="M8 36.4802H4C3.8713 36.4775 3.74333 36.5003 3.62342 36.5471C3.5035 36.5939 3.39398 36.6639 3.30112 36.753C3.20825 36.8422 3.13386 36.9487 3.0822 37.0666C3.03053 37.1846 3.0026 37.3115 3 37.4402V42.1602C3.0026 42.0315 3.03053 41.9046 3.0822 41.7867C3.13386 41.6687 3.20825 41.5622 3.30112 41.473C3.39398 41.3839 3.5035 41.3139 3.62342 41.2671C3.74333 41.2203 3.8713 41.1975 4 41.2002H8C8.1287 41.1975 8.25667 41.2203 8.37658 41.2671C8.4965 41.3139 8.60602 41.3839 8.69888 41.473C8.79175 41.5622 8.86614 41.6687 8.9178 41.7867C8.96947 41.9046 8.9974 42.0315 9 42.1602V37.4402C8.9974 37.3115 8.96947 37.1846 8.9178 37.0666C8.86614 36.9487 8.79175 36.8422 8.69888 36.753C8.60602 36.6639 8.4965 36.5939 8.37658 36.5471C8.25667 36.5003 8.1287 36.4775 8 36.4802Z" fill="#D4E9FC"/>
<path d="M20 26.8781H16C15.7399 26.8733 15.4885 26.9719 15.301 27.1522C15.1135 27.3326 15.0053 27.58 15 27.8401V32.5601C15.0026 32.4314 15.0305 32.3045 15.0822 32.1866C15.1339 32.0687 15.2083 31.9621 15.3011 31.8729C15.394 31.7838 15.5035 31.7138 15.6234 31.667C15.7433 31.6202 15.8713 31.5974 16 31.6001H20C20.1287 31.5974 20.2567 31.6202 20.3766 31.667C20.4965 31.7138 20.606 31.7838 20.6989 31.8729C20.7917 31.9621 20.8661 32.0687 20.9178 32.1866C20.9695 32.3045 20.9974 32.4314 21 32.5601V27.8401C20.9947 27.58 20.8865 27.3326 20.699 27.1522C20.5115 26.9719 20.2601 26.8733 20 26.8781Z" fill="#D4E9FC"/>
<path d="M32 30.7199H28C27.8713 30.7173 27.7433 30.74 27.6234 30.7868C27.5035 30.8336 27.394 30.9036 27.3011 30.9928C27.2083 31.0819 27.1339 31.1885 27.0822 31.3064C27.0305 31.4243 27.0026 31.5512 27 31.6799V36.3999C27.0026 36.2712 27.0305 36.1443 27.0822 36.0264C27.1339 35.9085 27.2083 35.8019 27.3011 35.7128C27.394 35.6236 27.5035 35.5536 27.6234 35.5068C27.7433 35.46 27.8713 35.4373 28 35.4399H32C32.1287 35.4373 32.2567 35.46 32.3766 35.5068C32.4965 35.5536 32.606 35.6236 32.6989 35.7128C32.7917 35.8019 32.8661 35.9085 32.9178 36.0264C32.9695 36.1443 32.9974 36.2712 33 36.3999V31.6799C32.9974 31.5512 32.9695 31.4243 32.9178 31.3064C32.8661 31.1885 32.7917 31.0819 32.6989 30.9928C32.606 30.9036 32.4965 30.8336 32.3766 30.7868C32.2567 30.74 32.1287 30.7173 32 30.7199Z" fill="#D4E9FC"/>
<path d="M44 17.28H40C39.8713 17.2773 39.7433 17.3001 39.6234 17.3469C39.5035 17.3937 39.394 17.4637 39.3011 17.5528C39.2083 17.642 39.1339 17.7485 39.0822 17.8665C39.0305 17.9844 39.0026 18.1113 39 18.24V22.96C39.0026 22.8313 39.0305 22.7044 39.0822 22.5865C39.1339 22.4685 39.2083 22.362 39.3011 22.2728C39.394 22.1837 39.5035 22.1137 39.6234 22.0669C39.7433 22.0201 39.8713 21.9973 40 22H44C44.1287 21.9973 44.2567 22.0201 44.3766 22.0669C44.4965 22.1137 44.606 22.1837 44.6989 22.2728C44.7917 22.362 44.8661 22.4685 44.9178 22.5865C44.9695 22.7044 44.9974 22.8313 45 22.96V18.24C44.9974 18.1113 44.9695 17.9844 44.9178 17.8665C44.8661 17.7485 44.7917 17.642 44.6989 17.5528C44.606 17.4637 44.4965 17.3937 44.3766 17.3469C44.2567 17.3001 44.1287 17.2773 44 17.28Z" fill="#D4E9FC"/>
<path d="M9 37.4402C8.9974 37.3115 8.96947 37.1846 8.9178 37.0666C8.86613 36.9487 8.79175 36.8422 8.69888 36.753C8.60602 36.6639 8.4965 36.5939 8.37658 36.5471C8.25667 36.5003 8.1287 36.4775 8 36.4802H4C3.8713 36.4775 3.74333 36.5003 3.62342 36.5471C3.5035 36.5939 3.39398 36.6639 3.30112 36.753C3.20825 36.8422 3.13386 36.9487 3.0822 37.0666C3.03053 37.1846 3.0026 37.3115 3 37.4402V46.0802H9V37.4402Z" stroke="#02101D" stroke-linecap="round" stroke-linejoin="round"/>
<path d="M21 27.8401C20.9974 27.7114 20.9695 27.5845 20.9178 27.4666C20.8661 27.3486 20.7917 27.2421 20.6989 27.1529C20.606 27.0638 20.4965 26.9938 20.3766 26.947C20.2567 26.9002 20.1287 26.8774 20 26.8801H16C15.8713 26.8774 15.7433 26.9002 15.6234 26.947C15.5035 26.9938 15.394 27.0638 15.3011 27.1529C15.2083 27.2421 15.1339 27.3486 15.0822 27.4666C15.0305 27.5845 15.0026 27.7114 15 27.8401V46.0801H21V27.8401Z" stroke="#02101D" stroke-linecap="round" stroke-linejoin="round"/>
<path d="M33 31.6799C32.9974 31.5512 32.9695 31.4243 32.9178 31.3064C32.8661 31.1885 32.7917 31.0819 32.6989 30.9928C32.606 30.9036 32.4965 30.8336 32.3766 30.7868C32.2567 30.74 32.1287 30.7173 32 30.7199H28C27.8713 30.7173 27.7433 30.74 27.6234 30.7868C27.5035 30.8336 27.394 30.9036 27.3011 30.9928C27.2083 31.0819 27.1339 31.1885 27.0822 31.3064C27.0305 31.4243 27.0026 31.5512 27 31.6799V46.0799H33V31.6799Z" stroke="#02101D" stroke-linecap="round" stroke-linejoin="round"/>
<path d="M45 18.24C44.9974 18.1113 44.9695 17.9844 44.9178 17.8665C44.8661 17.7485 44.7917 17.642 44.6989 17.5528C44.606 17.4637 44.4965 17.3937 44.3766 17.3469C44.2567 17.3001 44.1287 17.2773 44 17.28H40C39.8713 17.2773 39.7433 17.3001 39.6234 17.3469C39.5035 17.3937 39.394 17.4637 39.3011 17.5528C39.2083 17.642 39.1339 17.7485 39.0822 17.8665C39.0305 17.9844 39.0026 18.1113 39 18.24V46.08H45V18.24Z" stroke="#02101D" stroke-linecap="round" stroke-linejoin="round"/>
<path d="M6.00009 25.9202C6.38733 25.9346 6.7735 25.8708 7.13551 25.7326C7.49753 25.5944 7.82794 25.3845 8.10701 25.1157C8.38607 24.8468 8.60805 24.5245 8.75967 24.1679C8.91129 23.8112 8.98944 23.4277 8.98944 23.0402C8.98944 22.6527 8.91129 22.2692 8.75967 21.9126C8.60805 21.5559 8.38607 21.2336 8.10701 20.9647C7.82794 20.6959 7.49753 20.486 7.13551 20.3478C6.7735 20.2096 6.38733 20.1458 6.00009 20.1602C5.61285 20.1458 5.22668 20.2096 4.86467 20.3478C4.50266 20.486 4.17224 20.6959 3.89317 20.9647C3.61411 21.2336 3.39213 21.5559 3.24051 21.9126C3.08889 22.2692 3.01074 22.6527 3.01074 23.0402C3.01074 23.4277 3.08889 23.8112 3.24051 24.1679C3.39213 24.5245 3.61411 24.8468 3.89317 25.1157C4.17224 25.3845 4.50266 25.5944 4.86467 25.7326C5.22668 25.8708 5.61285 25.9346 6.00009 25.9202Z" fill="#A4D0F9" stroke="#02101D" stroke-linecap="round" stroke-linejoin="round"/>
<path d="M18 16.3202C18.5645 16.297 19.1097 16.1085 19.5679 15.778C20.0261 15.4475 20.3771 14.9896 20.5772 14.4613C20.7773 13.9329 20.8177 13.3574 20.6933 12.8063C20.569 12.2552 20.2854 11.7528 19.8779 11.3616C19.4703 10.9703 18.9568 10.7075 18.401 10.6057C17.8453 10.504 17.2719 10.5678 16.7522 10.7893C16.2324 11.0108 15.7893 11.3801 15.4777 11.8514C15.1662 12.3227 15.0001 12.8752 15 13.4402C15.0163 14.2198 15.3414 14.9611 15.9039 15.5011C16.4665 16.0411 17.2204 16.3357 18 16.3202Z" fill="#A4D0F9" stroke="#02101D" stroke-linecap="round" stroke-linejoin="round"/>
<path d="M30 20.16C30.5645 20.1369 31.1097 19.9484 31.5679 19.6179C32.0261 19.2874 32.3771 18.8295 32.5772 18.3011C32.7773 17.7728 32.8177 17.1973 32.6933 16.6462C32.569 16.0951 32.2854 15.5927 31.8779 15.2014C31.4703 14.8101 30.9568 14.5473 30.401 14.4456C29.8453 14.3438 29.2719 14.4076 28.7522 14.6291C28.2324 14.8506 27.7893 15.22 27.4777 15.6913C27.1662 16.1626 27.0001 16.7151 27 17.28C27.0163 18.0596 27.3414 18.8009 27.9039 19.3409C28.4665 19.881 29.2204 20.1756 30 20.16Z" fill="#A4D0F9" stroke="#02101D" stroke-linecap="round" stroke-linejoin="round"/>
<path d="M42 7.6798C42.7796 7.69535 43.5335 7.40074 44.0961 6.86071C44.6586 6.32068 44.9837 5.57942 45 4.7998C45 4.00416 44.6839 3.24109 44.1213 2.67848C43.5587 2.11588 42.7956 1.7998 42 1.7998C41.2044 1.7998 40.4413 2.11588 39.8787 2.67848C39.3161 3.24109 39 4.00416 39 4.7998C39.0163 5.57942 39.3414 6.32068 39.9039 6.86071C40.4665 7.40074 41.2204 7.69535 42 7.6798Z" fill="#A4D0F9" stroke="#02101D" stroke-linecap="round" stroke-linejoin="round"/>
<path d="M8.52197 21.0198L15.696 15.2798" stroke="#02101D" stroke-linecap="round" stroke-linejoin="round"/>
<path d="M20.8459 14.3599L27.1539 16.3779" stroke="#02101D" stroke-linecap="round" stroke-linejoin="round"/>
<path d="M39.6 6.52002L32.082 14.94" stroke="#02101D" stroke-linecap="round" stroke-linejoin="round"/>
</svg>
