<svg width="112" height="112" viewBox="0 0 112 112" fill="none" xmlns="http://www.w3.org/2000/svg">
<path d="M48.1735 107.202C46.5524 104.163 44.1356 101.621 41.1817 99.8485C38.2277 98.0761 34.8476 97.1399 31.4027 97.1399C27.9578 97.1399 24.5777 98.0761 21.6237 99.8485C18.6697 101.621 16.253 104.163 14.6318 107.202H48.1735Z" fill="#00EB89"/>
<path d="M88.4236 107.207C88.4236 101.277 86.0677 95.5889 81.8742 91.3954C77.6807 87.2018 71.9931 84.8459 66.0625 84.8459C60.132 84.8459 54.4444 87.2018 50.2508 91.3954C46.0573 95.5889 43.7014 101.277 43.7014 107.207" fill="#00EB89"/>
<path d="M88.4236 107.207C88.4236 101.277 86.0677 95.5889 81.8742 91.3954C77.6807 87.2018 71.9931 84.8459 66.0625 84.8459C60.132 84.8459 54.4444 87.2018 50.2508 91.3954C46.0573 95.5889 43.7014 101.277 43.7014 107.207" stroke="#00140C" stroke-width="2" stroke-linecap="round" stroke-linejoin="round"/>
<path d="M81.6975 62.4669C81.6975 66.6182 80.0483 70.5996 77.1129 73.5351C74.1774 76.4705 70.1961 78.1196 66.0447 78.1196C61.8933 78.1196 57.912 76.4705 54.9765 73.5351C52.041 70.5996 50.3919 66.6182 50.3919 62.4669C50.3823 59.0713 51.499 55.7683 53.5672 53.0752C58.1857 57.5387 64.319 60.0943 70.7405 60.2308C74.2863 60.2744 77.8126 59.6993 81.1608 58.5313C81.5204 59.8121 81.701 61.1365 81.6975 62.4669Z" fill="#8FFFD0" stroke="#00140C" stroke-width="2" stroke-linecap="round" stroke-linejoin="round"/>
<path d="M31.4028 91.4422C34.0342 91.4422 36.6066 90.6619 38.7945 89.2C40.9825 87.738 42.6878 85.6601 43.6948 83.2289C44.7019 80.7978 44.9653 78.1226 44.452 75.5417C43.9386 72.9608 42.6714 70.5901 40.8107 68.7294C38.95 66.8687 36.5793 65.6015 33.9984 65.0882C31.4175 64.5748 28.7424 64.8383 26.3112 65.8453C23.8801 66.8523 21.8021 68.5576 20.3402 70.7456C18.8782 72.9336 18.0979 75.5059 18.0979 78.1374C18.0979 81.6661 19.4997 85.0502 21.9948 87.5453C24.4899 90.0405 27.8741 91.4422 31.4028 91.4422Z" fill="#8FFFD0" stroke="#00140C" stroke-width="2" stroke-linecap="round" stroke-linejoin="round"/>
<path d="M66.0625 98.6829V104.971" stroke="#00140C" stroke-width="2" stroke-linecap="round" stroke-linejoin="round"/>
<path d="M81.1607 58.5313C77.8125 59.6993 74.2863 60.2744 70.7405 60.2307C64.319 60.0942 58.1857 57.5387 53.5671 53.0751C55.3271 50.7182 57.718 48.9072 60.4636 47.8515C63.2091 46.7957 66.1974 46.5383 69.0831 47.1089C71.9688 47.6795 74.6342 49.0548 76.7713 51.076C78.9085 53.0972 80.4302 55.6818 81.1607 58.5313Z" fill="#00EB89" stroke="#00140C" stroke-width="2" stroke-linecap="round" stroke-linejoin="round"/>
<path d="M31.4027 97.1445C27.9579 97.145 24.5779 98.0815 21.6241 99.8538C18.6702 101.626 16.2533 104.168 14.6318 107.207" fill="#8FFFD0"/>
<path d="M31.4027 97.1445C27.9579 97.145 24.5779 98.0815 21.6241 99.8538C18.6702 101.626 16.2533 104.168 14.6318 107.207" stroke="#00140C" stroke-width="2" stroke-linecap="round" stroke-linejoin="round"/>
<path d="M39.2382 98.8261C36.7761 97.7135 34.1046 97.1402 31.4028 97.1446" stroke="#00140C" stroke-width="2" stroke-linecap="round" stroke-linejoin="round"/>
<path d="M35.8393 78.133C38.8272 78.1331 41.7839 77.5244 44.5288 76.3441C44.1732 73.6038 42.9679 71.0439 41.0822 69.024C39.1966 67.0041 36.7254 65.6259 34.016 65.0831C31.3066 64.5402 28.4952 64.86 25.977 65.9974C23.4587 67.1349 21.3602 69.0329 19.9763 71.4246C22.0356 73.5492 24.5011 75.2379 27.2263 76.3904C29.9514 77.5428 32.8805 78.1354 35.8393 78.133Z" fill="#00EB89" stroke="#00140C" stroke-width="2" stroke-linecap="round" stroke-linejoin="round"/>
<path d="M97.3682 107.207V4.34595" stroke="#00140C" stroke-width="2" stroke-linecap="round" stroke-linejoin="round"/>
<path d="M74.989 26.6891V31.1614C74.995 31.7503 74.8834 32.3345 74.6607 32.8798C74.4381 33.4251 74.1089 33.9205 73.6924 34.337C73.2759 34.7535 72.7806 35.0827 72.2353 35.3053C71.69 35.528 71.1057 35.6396 70.5168 35.6336H36.9751L48.1557 24.453L36.9751 13.2725H66.0445V22.2169C66.0445 23.403 66.5157 24.5405 67.3544 25.3792C68.1931 26.2179 69.3307 26.6891 70.5168 26.6891H74.989Z" fill="#00EB89" stroke="#00140C" stroke-width="2" stroke-linecap="round" stroke-linejoin="round"/>
<path d="M70.5169 4.32788C69.3308 4.32788 68.1933 4.79906 67.3546 5.63776C66.5159 6.47647 66.0447 7.614 66.0447 8.8001V22.2168C66.0447 23.4029 66.5159 24.5404 67.3546 25.3791C68.1933 26.2178 69.3308 26.689 70.5169 26.689H97.3502V4.32788H70.5169Z" fill="#8FFFD0" stroke="#00140C" stroke-width="2" stroke-linecap="round" stroke-linejoin="round"/>
</svg>
