<svg width="48" height="48" viewBox="0 0 48 48" fill="none" xmlns="http://www.w3.org/2000/svg">
<g clip-path="url(#clip0_39_4023)">
<path d="M12 4.99805H36C36 4.99805 37 4.99805 37 5.99805V46C37 46 37 47 36 47H12C12 47 11 47 11 46V5.99805C11 5.99805 11 4.99805 12 4.99805Z" fill="#8FFFD0"/>
<path d="M36.56 5.2C36.3986 5.07694 36.2029 5.00706 36 5H12C11.7348 5 11.4804 5.10536 11.2929 5.29289C11.1054 5.48043 11 5.73478 11 6V30.752L36.56 5.2Z" fill="white"/>
<path d="M20.5 5H12C11.7348 5 11.4804 5.10536 11.2929 5.29289C11.1054 5.48043 11 5.73478 11 6V46C11 46.2652 11.1054 46.5196 11.2929 46.7071C11.4804 46.8946 11.7348 47 12 47H36C36.2652 47 36.5196 46.8946 36.7071 46.7071C36.8946 46.5196 37 46.2652 37 46V19.966" stroke="#00140C" stroke-linecap="round" stroke-linejoin="round"/>
<path d="M47 44L45 40.132V31C45.084 27.444 40.838 24.274 37 21V31.898L34.936 29.788C34.7084 29.5512 34.4363 29.3617 34.1353 29.2305C33.8343 29.0993 33.5103 29.0289 33.1819 29.0235C32.8536 29.018 32.5274 29.0775 32.2221 29.1986C31.9169 29.3197 31.6386 29.5 31.4034 29.7291C31.1681 29.9582 30.9804 30.2315 30.8512 30.5334C30.722 30.8353 30.6538 31.1598 30.6505 31.4882C30.6472 31.8165 30.7089 32.1423 30.8321 32.4468C30.9552 32.7512 31.1373 33.0282 31.368 33.262L37 39V42C37.3062 43.7892 37.9878 45.4932 39 47" fill="#8FFFD0"/>
<path d="M47 44L45 40.132V31C45.084 27.444 40.838 24.274 37 21V31.898L34.936 29.788C34.7084 29.5512 34.4363 29.3617 34.1353 29.2305C33.8343 29.0993 33.5103 29.0289 33.1819 29.0235C32.8536 29.018 32.5274 29.0775 32.2221 29.1986C31.9169 29.3197 31.6386 29.5 31.4034 29.7291C31.1681 29.9582 30.9804 30.2315 30.8512 30.5334C30.722 30.8353 30.6538 31.1598 30.6505 31.4882C30.6472 31.8165 30.7089 32.1423 30.8321 32.4468C30.9552 32.7512 31.1373 33.0282 31.368 33.262L37 39V42C37.3062 43.7892 37.9878 45.4932 39 47" stroke="#00140C" stroke-linecap="round" stroke-linejoin="round"/>
<path d="M40.038 35L37 31.896" stroke="#00140C" stroke-linecap="round" stroke-linejoin="round"/>
<path d="M1 4L3 7.868V17C2.916 20.558 7.162 23.726 11 27V16.104L13.064 18.212C13.2915 18.4488 13.5636 18.6383 13.8647 18.7695C14.1657 18.9007 14.4897 18.9711 14.818 18.9765C15.1464 18.982 15.4726 18.9225 15.7778 18.8014C16.0831 18.6803 16.3613 18.5 16.5966 18.2709C16.8319 18.0418 17.0195 17.7685 17.1487 17.4666C17.2779 17.1647 17.3462 16.8402 17.3494 16.5118C17.3527 16.1835 17.291 15.8577 17.1679 15.5532C17.0448 15.2488 16.8626 14.9718 16.632 14.738L11 9V6C10.6934 4.21094 10.0118 2.50698 9 1" fill="#8FFFD0"/>
<path d="M1 4L3 7.868V17C2.916 20.558 7.162 23.726 11 27V16.104L13.064 18.212C13.2915 18.4488 13.5636 18.6383 13.8647 18.7695C14.1657 18.9007 14.4897 18.9711 14.818 18.9765C15.1464 18.982 15.4726 18.9225 15.7778 18.8014C16.0831 18.6803 16.3613 18.5 16.5966 18.2709C16.8319 18.0418 17.0195 17.7685 17.1487 17.4666C17.2779 17.1647 17.3462 16.8402 17.3494 16.5118C17.3527 16.1835 17.291 15.8577 17.1679 15.5532C17.0448 15.2488 16.8626 14.9718 16.632 14.738L11 9V6C10.6934 4.21094 10.0118 2.50698 9 1" stroke="#00140C" stroke-linecap="round" stroke-linejoin="round"/>
<path d="M7.96191 13L10.9999 16.104" stroke="#00140C" stroke-linecap="round" stroke-linejoin="round"/>
<path d="M26 31H15" stroke="#00140C" stroke-linecap="round" stroke-linejoin="round"/>
<path d="M33 25H15" stroke="#00140C" stroke-linecap="round" stroke-linejoin="round"/>
<path d="M24 37H15" stroke="#00140C" stroke-linecap="round" stroke-linejoin="round"/>
<path d="M24.9619 8.99805C24.9619 11.1198 25.8048 13.1546 27.3051 14.6549C28.8054 16.1552 30.8402 16.998 32.9619 16.998C35.0836 16.998 37.1185 16.1552 38.6188 14.6549C40.1191 13.1546 40.9619 11.1198 40.9619 8.99805C40.9619 6.87632 40.1191 4.84148 38.6188 3.34119C37.1185 1.8409 35.0836 0.998047 32.9619 0.998047C30.8402 0.998047 28.8054 1.8409 27.3051 3.34119C25.8048 4.84148 24.9619 6.87632 24.9619 8.99805Z" fill="#00EB89" stroke="#00140C" stroke-linecap="round" stroke-linejoin="round"/>
<path d="M41 3L33.708 10.29C33.6151 10.3831 33.5048 10.457 33.3833 10.5074C33.2618 10.5578 33.1315 10.5838 33 10.5838C32.8685 10.5838 32.7382 10.5578 32.6167 10.5074C32.4952 10.457 32.3849 10.3831 32.292 10.29L30 8" stroke="#00140C" stroke-linecap="round" stroke-linejoin="round"/>
</g>
<defs>
<clipPath id="clip0_39_4023">
<rect width="48" height="48" fill="white"/>
</clipPath>
</defs>
</svg>
