<svg width="1417" height="743" viewBox="0 0 1417 743" fill="none" xmlns="http://www.w3.org/2000/svg">
<g opacity="0.6">
<path d="M118.467 705.251C118.467 705.984 118.759 706.688 119.277 707.206C119.796 707.725 120.5 708.016 121.233 708.016H125.382M118.467 702.485V720.462C118.467 721.196 118.759 721.899 119.277 722.418C119.796 722.937 120.5 723.228 121.233 723.228H125.382M141.976 712.165C142.343 712.165 142.695 712.019 142.954 711.76C143.214 711.501 143.359 711.149 143.359 710.782V706.634C143.359 706.267 143.214 705.915 142.954 705.656C142.695 705.396 142.343 705.251 141.976 705.251H138.519C138.304 705.251 138.093 705.201 137.901 705.105C137.709 705.009 137.542 704.869 137.413 704.697L136.168 703.038C136.039 702.866 135.872 702.727 135.68 702.631C135.488 702.535 135.277 702.485 135.062 702.485H132.296C131.929 702.485 131.578 702.631 131.318 702.89C131.059 703.149 130.913 703.501 130.913 703.868V710.782C130.913 711.149 131.059 711.501 131.318 711.76C131.578 712.019 131.929 712.165 132.296 712.165H141.976ZM141.976 727.377C142.343 727.377 142.695 727.231 142.954 726.972C143.214 726.712 143.359 726.361 143.359 725.994V721.845C143.359 721.479 143.214 721.127 142.954 720.867C142.695 720.608 142.343 720.462 141.976 720.462H137.966C137.713 720.459 137.466 720.386 137.251 720.252C137.037 720.118 136.863 719.928 136.749 719.702L136.168 718.526C136.06 718.279 135.882 718.069 135.656 717.921C135.43 717.774 135.166 717.696 134.896 717.697H132.296C131.929 717.697 131.578 717.842 131.318 718.102C131.059 718.361 130.913 718.713 130.913 719.08V725.994C130.913 726.361 131.059 726.712 131.318 726.972C131.578 727.231 131.929 727.377 132.296 727.377H141.976Z" stroke="#0A59A4" stroke-width="2" stroke-linecap="round" stroke-linejoin="round"/>
<path d="M87.274 590.006L89.7355 593.701M88.7288 597.092L84.1321 599.061M96.8021 584.939L88.4218 587.034M73.293 583.556V605.683C73.293 606.416 73.5844 607.12 74.103 607.638C74.6217 608.157 75.3252 608.448 76.0587 608.448H98.185M88.5047 587.705C88.5047 589.233 87.2665 590.471 85.739 590.471C84.2115 590.471 82.9732 589.233 82.9732 587.705C82.9732 586.178 84.2115 584.939 85.739 584.939C87.2665 584.939 88.5047 586.178 88.5047 587.705ZM94.0363 596.002C94.0363 597.53 92.798 598.768 91.2705 598.768C89.743 598.768 88.5047 597.53 88.5047 596.002C88.5047 594.475 89.743 593.237 91.2705 593.237C92.798 593.237 94.0363 594.475 94.0363 596.002ZM84.3561 600.151C84.3561 601.679 83.1178 602.917 81.5903 602.917C80.0628 602.917 78.8245 601.679 78.8245 600.151C78.8245 598.624 80.0628 597.385 81.5903 597.385C83.1178 597.385 84.3561 598.624 84.3561 600.151Z" stroke="#0A59A4" stroke-width="2" stroke-linecap="round" stroke-linejoin="round"/>
<path d="M97.7241 651.318H103.256M100.49 667.913L104.639 663.764M111.553 667.913C111.553 674.023 106.6 678.976 100.49 678.976C94.3799 678.976 89.4268 674.023 89.4268 667.913C89.4268 661.803 94.3799 656.85 100.49 656.85C106.6 656.85 111.553 661.803 111.553 667.913Z" stroke="#0A59A4" stroke-width="2" stroke-linecap="round" stroke-linejoin="round"/>
<path d="M259.061 649.935L266.284 654.75C266.388 654.82 266.509 654.859 266.634 654.865C266.759 654.871 266.883 654.843 266.993 654.784C267.104 654.725 267.196 654.637 267.26 654.53C267.324 654.423 267.358 654.3 267.358 654.175V642.841C267.358 642.719 267.326 642.6 267.266 642.494C267.205 642.389 267.117 642.302 267.011 642.241C266.906 642.181 266.786 642.149 266.665 642.149C266.543 642.15 266.424 642.182 266.319 642.243L259.061 646.478M242.466 640.255H256.295C257.823 640.255 259.061 641.493 259.061 643.021V654.084C259.061 655.611 257.823 656.85 256.295 656.85H242.466C240.939 656.85 239.701 655.611 239.701 654.084V643.021C239.701 641.493 240.939 640.255 242.466 640.255Z" stroke="#0A59A4" stroke-width="2" stroke-linecap="round" stroke-linejoin="round"/>
<path d="M29.331 613.367C28.4512 615.447 27.0752 617.281 25.3232 618.707C23.5712 620.133 21.4966 621.108 19.2808 621.546C17.0649 621.985 14.7753 621.875 12.6121 621.224C10.4488 620.574 8.47789 619.403 6.87152 617.815C5.26515 616.227 4.07227 614.27 3.39717 612.114C2.72207 609.958 2.58531 607.67 2.99885 605.449C3.41238 603.229 4.36362 601.143 5.76939 599.375C7.17517 597.607 8.99268 596.21 11.063 595.306M29.0406 607.988C29.8039 607.988 30.4304 607.367 30.3543 606.607C30.0355 603.433 28.6286 600.466 26.3721 598.21C24.1155 595.954 21.1483 594.547 17.9733 594.229C17.2127 594.153 16.5932 594.78 16.5932 595.543V606.606C16.5932 606.973 16.7389 607.325 16.9982 607.584C17.2576 607.843 17.6093 607.989 17.9761 607.989L29.0406 607.988Z" stroke="#1D8BF1" stroke-width="2" stroke-linecap="round" stroke-linejoin="round"/>
<path d="M206.511 734.247V716.928C206.511 716.162 206.22 715.428 205.701 714.887C205.182 714.345 204.479 714.041 203.745 714.041H192.682C191.949 714.041 191.245 714.345 190.727 714.887C190.208 715.428 189.917 716.162 189.917 716.928V732.804C189.917 733.187 190.062 733.554 190.322 733.824C190.581 734.095 190.933 734.247 191.299 734.247H194.065M194.065 734.247C194.065 735.841 195.303 737.134 196.831 737.134C198.358 737.134 199.597 735.841 199.597 734.247M194.065 734.247C194.065 732.653 195.303 731.361 196.831 731.361C198.358 731.361 199.597 732.653 199.597 734.247M207.894 734.247H199.597M207.894 734.247C207.894 735.841 209.132 737.134 210.66 737.134C212.187 737.134 213.426 735.841 213.426 734.247M207.894 734.247C207.894 732.653 209.132 731.361 210.66 731.361C212.187 731.361 213.426 732.653 213.426 734.247M213.426 734.247H216.191C216.558 734.247 216.91 734.095 217.169 733.824C217.429 733.554 217.574 733.187 217.574 732.804V727.536C217.574 727.208 217.466 726.891 217.27 726.635L212.458 720.357C212.328 720.188 212.164 720.051 211.977 719.958C211.791 719.864 211.586 719.815 211.379 719.814H206.511" stroke="#0A59A4" stroke-width="2" stroke-linecap="round" stroke-linejoin="round"/>
<path d="M174.244 639.333H174.257M179.775 639.333H179.789M185.307 639.333H185.321M174.105 650.396C176.745 651.75 179.781 652.117 182.667 651.43C185.552 650.744 188.098 649.049 189.845 646.651C191.592 644.254 192.425 641.311 192.194 638.354C191.964 635.397 190.684 632.619 188.587 630.521C186.489 628.424 183.711 627.145 180.754 626.914C177.797 626.683 174.854 627.516 172.457 629.263C170.059 631.01 168.365 633.556 167.678 636.442C166.991 639.327 167.358 642.363 168.712 645.003L165.946 653.162L174.105 650.396Z" stroke="#1D8BF1" stroke-width="2" stroke-linecap="round" stroke-linejoin="round"/>
<path d="M646.73 708.016C646.73 708.75 647.022 709.453 647.541 709.972C648.059 710.491 648.763 710.782 649.496 710.782H653.645M646.73 705.251V723.228C646.73 723.962 647.022 724.665 647.541 725.184C648.059 725.703 648.763 725.994 649.496 725.994H653.645M670.24 714.931C670.606 714.931 670.958 714.785 671.217 714.526C671.477 714.266 671.622 713.915 671.622 713.548V709.399C671.622 709.033 671.477 708.681 671.217 708.421C670.958 708.162 670.606 708.016 670.24 708.016H666.782C666.568 708.016 666.356 707.966 666.164 707.87C665.972 707.774 665.805 707.635 665.676 707.463L664.431 705.804C664.303 705.632 664.136 705.493 663.944 705.397C663.752 705.301 663.54 705.251 663.325 705.251H660.559C660.193 705.251 659.841 705.396 659.582 705.656C659.322 705.915 659.176 706.267 659.176 706.633V713.548C659.176 713.915 659.322 714.266 659.582 714.526C659.841 714.785 660.193 714.931 660.559 714.931H670.24ZM670.24 730.143C670.606 730.143 670.958 729.997 671.217 729.738C671.477 729.478 671.622 729.126 671.622 728.76V724.611C671.622 724.244 671.477 723.893 671.217 723.633C670.958 723.374 670.606 723.228 670.24 723.228H666.229C665.976 723.225 665.729 723.152 665.514 723.018C665.3 722.884 665.126 722.694 665.012 722.468L664.431 721.292C664.323 721.045 664.146 720.834 663.919 720.687C663.693 720.54 663.429 720.461 663.159 720.462H660.559C660.193 720.462 659.841 720.608 659.582 720.867C659.322 721.127 659.176 721.479 659.176 721.845V728.76C659.176 729.126 659.322 729.478 659.582 729.738C659.841 729.997 660.193 730.143 660.559 730.143H670.24Z" stroke="#0A59A4" stroke-width="2" stroke-linecap="round" stroke-linejoin="round"/>
<path d="M453.588 655.006C453.588 661.91 445.928 669.101 443.356 671.322C443.116 671.503 442.824 671.6 442.525 671.6C442.225 671.6 441.933 671.503 441.693 671.322C439.121 669.101 431.461 661.91 431.461 655.006C431.461 652.071 432.627 649.258 434.702 647.183C436.776 645.108 439.59 643.943 442.525 643.943C445.459 643.943 448.273 645.108 450.347 647.183C452.422 649.258 453.588 652.071 453.588 655.006Z" stroke="#0A59A4" stroke-width="2" stroke-linecap="round" stroke-linejoin="round"/>
<path d="M442.525 659.154C444.816 659.154 446.673 657.297 446.673 655.006C446.673 652.714 444.816 650.857 442.525 650.857C440.233 650.857 438.376 652.714 438.376 655.006C438.376 657.297 440.233 659.154 442.525 659.154Z" stroke="#0A59A4" stroke-width="2" stroke-linecap="round" stroke-linejoin="round"/>
<path d="M338.347 651.318H343.879M341.113 667.913L345.262 663.764M352.176 667.913C352.176 674.023 347.223 678.976 341.113 678.976C335.003 678.976 330.05 674.023 330.05 667.913C330.05 661.803 335.003 656.85 341.113 656.85C347.223 656.85 352.176 661.803 352.176 667.913Z" stroke="#1D8BF1" stroke-width="2" stroke-linecap="round" stroke-linejoin="round"/>
<path d="M508.286 690.961H507.677C506.944 690.961 506.24 691.252 505.722 691.771C505.203 692.289 504.912 692.993 504.912 693.726V693.975C504.911 694.46 504.783 694.937 504.54 695.357C504.298 695.777 503.949 696.125 503.529 696.368L502.934 696.714C502.514 696.956 502.037 697.084 501.551 697.084C501.066 697.084 500.589 696.956 500.168 696.714L499.961 696.603C499.326 696.237 498.572 696.137 497.864 696.327C497.157 696.516 496.553 696.978 496.185 697.612L495.881 698.138C495.515 698.773 495.416 699.527 495.605 700.234C495.794 700.942 496.257 701.546 496.891 701.913L497.098 702.051C497.516 702.293 497.864 702.639 498.106 703.057C498.349 703.474 498.478 703.947 498.481 704.43V705.135C498.483 705.623 498.356 706.102 498.113 706.524C497.87 706.947 497.52 707.298 497.098 707.542L496.891 707.666C496.257 708.033 495.794 708.637 495.605 709.345C495.416 710.053 495.515 710.807 495.881 711.441L496.185 711.967C496.553 712.601 497.157 713.063 497.864 713.252C498.572 713.442 499.326 713.342 499.961 712.976L500.168 712.866C500.589 712.623 501.066 712.495 501.551 712.495C502.037 712.495 502.514 712.623 502.934 712.866L503.529 713.211C503.949 713.454 504.298 713.803 504.54 714.222C504.783 714.642 504.911 715.119 504.912 715.604V715.853C504.912 716.586 505.203 717.29 505.722 717.808C506.24 718.327 506.944 718.618 507.677 718.618H508.286C509.019 718.618 509.723 718.327 510.241 717.808C510.76 717.29 511.052 716.586 511.052 715.853V715.604C511.052 715.119 511.18 714.642 511.423 714.222C511.666 713.803 512.014 713.454 512.434 713.211L513.029 712.866C513.45 712.623 513.926 712.495 514.412 712.495C514.897 712.495 515.374 712.623 515.795 712.866L516.002 712.976C516.637 713.342 517.391 713.442 518.099 713.252C518.807 713.063 519.41 712.601 519.778 711.967L520.082 711.427C520.448 710.793 520.547 710.039 520.358 709.331C520.169 708.623 519.706 708.019 519.072 707.652L518.865 707.542C518.443 707.298 518.093 706.947 517.85 706.524C517.607 706.102 517.48 705.623 517.482 705.135V704.444C517.48 703.957 517.607 703.477 517.85 703.055C518.093 702.632 518.443 702.281 518.865 702.038L519.072 701.913C519.706 701.546 520.169 700.942 520.358 700.234C520.547 699.527 520.448 698.773 520.082 698.138L519.778 697.612C519.41 696.978 518.807 696.516 518.099 696.327C517.391 696.137 516.637 696.237 516.002 696.603L515.795 696.714C515.374 696.956 514.897 697.084 514.412 697.084C513.926 697.084 513.45 696.956 513.029 696.714L512.434 696.368C512.014 696.125 511.666 695.777 511.423 695.357C511.18 694.937 511.052 694.46 511.052 693.975V693.726C511.052 692.993 510.76 692.289 510.241 691.771C509.723 691.252 509.019 690.961 508.286 690.961Z" stroke="#1D8BF1" stroke-width="2" stroke-linecap="round" stroke-linejoin="round"/>
<path d="M507.982 708.938C510.273 708.938 512.13 707.081 512.13 704.79C512.13 702.498 510.273 700.641 507.982 700.641C505.69 700.641 503.833 702.498 503.833 704.79C503.833 707.081 505.69 708.938 507.982 708.938Z" stroke="#1D8BF1" stroke-width="2" stroke-linecap="round" stroke-linejoin="round"/>
<path d="M569.75 658.693H580.813M580.813 669.756V675.288M580.813 664.225H580.827M575.282 664.225H575.296M569.75 664.225H569.764M575.282 669.756H575.296M569.75 669.756H569.764M575.282 675.288H575.296M569.75 675.288H569.764M566.985 653.162H583.579C585.107 653.162 586.345 654.4 586.345 655.928V678.054C586.345 679.581 585.107 680.82 583.579 680.82H566.985C565.457 680.82 564.219 679.581 564.219 678.054V655.928C564.219 654.4 565.457 653.162 566.985 653.162Z" stroke="#1D8BF1" stroke-width="2" stroke-linecap="round" stroke-linejoin="round"/>
<path d="M316.506 719.079H310.228C309.494 719.079 308.791 719.371 308.272 719.89C307.753 720.408 307.462 721.112 307.462 721.845V728.124M296.399 702.955V705.251C296.399 706.351 296.836 707.406 297.614 708.184C298.392 708.962 299.447 709.399 300.547 709.399C301.281 709.399 301.985 709.691 302.503 710.209C303.022 710.728 303.313 711.432 303.313 712.165C303.313 713.686 304.558 714.931 306.079 714.931C306.813 714.931 307.516 714.639 308.035 714.121C308.553 713.602 308.845 712.899 308.845 712.165C308.845 710.644 310.089 709.399 311.611 709.399H315.994M301.93 728.691V723.228C301.93 722.495 301.639 721.791 301.12 721.272C300.602 720.754 299.898 720.462 299.165 720.462C298.431 720.462 297.728 720.171 297.209 719.652C296.69 719.134 296.399 718.43 296.399 717.697V716.314C296.399 715.58 296.107 714.877 295.589 714.358C295.07 713.839 294.367 713.548 293.633 713.548H289.554M317.142 714.931C317.142 722.568 310.951 728.76 303.313 728.76C295.676 728.76 289.484 722.568 289.484 714.931C289.484 707.293 295.676 701.102 303.313 701.102C310.951 701.102 317.142 707.293 317.142 714.931Z" stroke="#0A59A4" stroke-width="2" stroke-linecap="round" stroke-linejoin="round"/>
<path d="M412.101 694.188H384.443L395.506 707.27V716.314L401.038 719.079V707.27L412.101 694.188Z" stroke="#0A59A4" stroke-width="2" stroke-linecap="round" stroke-linejoin="round"/>
</g>
<g opacity="0.6">
<path d="M1372.75 642.099V625.504C1372.75 624.771 1372.46 624.067 1371.94 623.548C1371.42 623.03 1370.72 622.738 1369.98 622.738H1358.92C1358.19 622.738 1357.48 623.03 1356.96 623.548C1356.44 624.067 1356.15 624.771 1356.15 625.504V640.716C1356.15 641.083 1356.3 641.434 1356.56 641.694C1356.82 641.953 1357.17 642.099 1357.54 642.099H1360.3M1360.3 642.099C1360.3 643.626 1361.54 644.865 1363.07 644.865C1364.59 644.865 1365.83 643.626 1365.83 642.099M1360.3 642.099C1360.3 640.571 1361.54 639.333 1363.07 639.333C1364.59 639.333 1365.83 640.571 1365.83 642.099M1374.13 642.099H1365.83M1374.13 642.099C1374.13 643.626 1375.37 644.865 1376.9 644.865C1378.42 644.865 1379.66 643.626 1379.66 642.099M1374.13 642.099C1374.13 640.571 1375.37 639.333 1376.9 639.333C1378.42 639.333 1379.66 640.571 1379.66 642.099M1379.66 642.099H1382.43C1382.79 642.099 1383.15 641.953 1383.41 641.694C1383.66 641.434 1383.81 641.083 1383.81 640.716V635.668C1383.81 635.354 1383.7 635.05 1383.51 634.805L1378.69 628.79C1378.56 628.628 1378.4 628.497 1378.21 628.407C1378.03 628.317 1377.82 628.27 1377.62 628.27H1372.75" stroke="#0A59A4" stroke-width="2" stroke-linecap="round" stroke-linejoin="round"/>
<path d="M1113.23 604.761C1113.23 605.494 1113.52 606.198 1114.04 606.716C1114.55 607.235 1115.26 607.527 1115.99 607.527H1120.14M1113.23 601.995V619.973C1113.23 620.706 1113.52 621.41 1114.04 621.928C1114.55 622.447 1115.26 622.738 1115.99 622.738H1120.14M1136.73 611.675C1137.1 611.675 1137.45 611.53 1137.71 611.27C1137.97 611.011 1138.12 610.659 1138.12 610.292V606.144C1138.12 605.777 1137.97 605.425 1137.71 605.166C1137.45 604.906 1137.1 604.761 1136.73 604.761H1133.28C1133.06 604.761 1132.85 604.711 1132.66 604.615C1132.47 604.519 1132.3 604.379 1132.17 604.208L1130.93 602.548C1130.8 602.376 1130.63 602.237 1130.44 602.141C1130.25 602.045 1130.03 601.995 1129.82 601.995H1127.05C1126.69 601.995 1126.34 602.141 1126.08 602.4C1125.82 602.659 1125.67 603.011 1125.67 603.378V610.292C1125.67 610.659 1125.82 611.011 1126.08 611.27C1126.34 611.53 1126.69 611.675 1127.05 611.675H1136.73ZM1136.73 626.887C1137.1 626.887 1137.45 626.741 1137.71 626.482C1137.97 626.223 1138.12 625.871 1138.12 625.504V621.355C1138.12 620.989 1137.97 620.637 1137.71 620.378C1137.45 620.118 1137.1 619.973 1136.73 619.973H1132.72C1132.47 619.969 1132.22 619.897 1132.01 619.762C1131.79 619.628 1131.62 619.438 1131.51 619.212L1130.93 618.037C1130.82 617.789 1130.64 617.579 1130.41 617.431C1130.19 617.284 1129.92 617.206 1129.65 617.207H1127.05C1126.69 617.207 1126.34 617.352 1126.08 617.612C1125.82 617.871 1125.67 618.223 1125.67 618.59V625.504C1125.67 625.871 1125.82 626.223 1126.08 626.482C1126.34 626.741 1126.69 626.887 1127.05 626.887H1136.73Z" stroke="#1D8BF1" stroke-width="2" stroke-linecap="round" stroke-linejoin="round"/>
<path d="M1400.1 685.887L1402.56 689.582M1401.55 692.972L1396.95 694.942M1409.62 680.82L1401.24 682.915M1386.12 679.437V701.563C1386.12 702.297 1386.41 703 1386.93 703.519C1387.44 704.037 1388.15 704.329 1388.88 704.329H1411.01M1401.33 683.585C1401.33 685.113 1400.09 686.351 1398.56 686.351C1397.03 686.351 1395.8 685.113 1395.8 683.585C1395.8 682.058 1397.03 680.82 1398.56 680.82C1400.09 680.82 1401.33 682.058 1401.33 683.585ZM1406.86 691.883C1406.86 693.41 1405.62 694.649 1404.09 694.649C1402.57 694.649 1401.33 693.41 1401.33 691.883C1401.33 690.355 1402.57 689.117 1404.09 689.117C1405.62 689.117 1406.86 690.355 1406.86 691.883ZM1397.18 696.031C1397.18 697.559 1395.94 698.797 1394.41 698.797C1392.89 698.797 1391.65 697.559 1391.65 696.031C1391.65 694.504 1392.89 693.266 1394.41 693.266C1395.94 693.266 1397.18 694.504 1397.18 696.031Z" stroke="#1D8BF1" stroke-width="2" stroke-linecap="round" stroke-linejoin="round"/>
<path d="M1325.73 594.159C1325.73 601.063 1318.07 608.254 1315.5 610.475C1315.26 610.655 1314.97 610.753 1314.67 610.753C1314.37 610.753 1314.08 610.655 1313.84 610.475C1311.26 608.254 1303.6 601.063 1303.6 594.159C1303.6 591.224 1304.77 588.411 1306.84 586.336C1308.92 584.261 1311.73 583.095 1314.67 583.095C1317.6 583.095 1320.41 584.261 1322.49 586.336C1324.56 588.411 1325.73 591.224 1325.73 594.159Z" stroke="#1D8BF1" stroke-width="2" stroke-linecap="round" stroke-linejoin="round"/>
<path d="M1314.67 598.307C1316.96 598.307 1318.82 596.45 1318.82 594.159C1318.82 591.867 1316.96 590.01 1314.67 590.01C1312.38 590.01 1310.52 591.867 1310.52 594.159C1310.52 596.45 1312.38 598.307 1314.67 598.307Z" stroke="#1D8BF1" stroke-width="2" stroke-linecap="round" stroke-linejoin="round"/>
<path d="M1244.6 572.032H1250.13M1247.37 588.627L1251.51 584.478M1258.43 588.627C1258.43 594.737 1253.48 599.69 1247.37 599.69C1241.26 599.69 1236.3 594.737 1236.3 588.627C1236.3 582.517 1241.26 577.564 1247.37 577.564C1253.48 577.564 1258.43 582.517 1258.43 588.627Z" stroke="#0A59A4" stroke-width="2" stroke-linecap="round" stroke-linejoin="round"/>
<path d="M1289.77 720.002L1297 724.817C1297.1 724.886 1297.22 724.926 1297.35 724.932C1297.47 724.938 1297.6 724.91 1297.71 724.851C1297.82 724.792 1297.91 724.704 1297.97 724.597C1298.04 724.489 1298.07 724.367 1298.07 724.241V712.907C1298.07 712.786 1298.04 712.666 1297.98 712.561C1297.92 712.455 1297.83 712.368 1297.72 712.308C1297.62 712.247 1297.5 712.215 1297.38 712.216C1297.26 712.216 1297.14 712.249 1297.03 712.31L1289.77 716.544M1273.18 710.321H1287.01C1288.54 710.321 1289.77 711.56 1289.77 713.087V724.15C1289.77 725.678 1288.54 726.916 1287.01 726.916H1273.18C1271.65 726.916 1270.41 725.678 1270.41 724.15V713.087C1270.41 711.56 1271.65 710.321 1273.18 710.321Z" stroke="#1D8BF1" stroke-width="2" stroke-linecap="round" stroke-linejoin="round"/>
<path d="M1212.16 713.857C1211.28 715.937 1209.91 717.771 1208.15 719.197C1206.4 720.622 1204.33 721.597 1202.11 722.036C1199.9 722.475 1197.61 722.365 1195.44 721.714C1193.28 721.064 1191.31 719.893 1189.7 718.305C1188.1 716.717 1186.9 714.76 1186.23 712.604C1185.55 710.448 1185.42 708.16 1185.83 705.939C1186.24 703.719 1187.19 701.633 1188.6 699.865C1190.01 698.097 1191.82 696.7 1193.89 695.796M1211.87 708.477C1212.63 708.477 1213.26 707.856 1213.19 707.097C1212.87 703.922 1211.46 700.955 1209.2 698.699C1206.95 696.443 1203.98 695.037 1200.8 694.719C1200.04 694.643 1199.42 695.269 1199.42 696.033V707.096C1199.42 707.463 1199.57 707.814 1199.83 708.074C1200.09 708.333 1200.44 708.479 1200.81 708.479L1211.87 708.477Z" stroke="#0A59A4" stroke-width="2" stroke-linecap="round" stroke-linejoin="round"/>
<path d="M1275.33 634.723H1274.72C1273.99 634.723 1273.28 635.015 1272.76 635.533C1272.24 636.052 1271.95 636.756 1271.95 637.489V637.738C1271.95 638.223 1271.82 638.699 1271.58 639.119C1271.34 639.539 1270.99 639.888 1270.57 640.13L1269.98 640.476C1269.56 640.719 1269.08 640.847 1268.59 640.847C1268.11 640.847 1267.63 640.719 1267.21 640.476L1267 640.365C1266.37 639.999 1265.61 639.9 1264.91 640.089C1264.2 640.279 1263.59 640.741 1263.23 641.375L1262.92 641.9C1262.56 642.535 1262.46 643.289 1262.65 643.997C1262.84 644.705 1263.3 645.309 1263.93 645.676L1264.14 645.814C1264.56 646.055 1264.91 646.402 1265.15 646.819C1265.39 647.236 1265.52 647.71 1265.52 648.193V648.898C1265.53 649.385 1265.4 649.864 1265.16 650.287C1264.91 650.71 1264.56 651.06 1264.14 651.304L1263.93 651.429C1263.3 651.796 1262.84 652.4 1262.65 653.107C1262.46 653.815 1262.56 654.569 1262.92 655.204L1263.23 655.729C1263.59 656.363 1264.2 656.826 1264.91 657.015C1265.61 657.204 1266.37 657.105 1267 656.739L1267.21 656.628C1267.63 656.385 1268.11 656.258 1268.59 656.258C1269.08 656.258 1269.56 656.385 1269.98 656.628L1270.57 656.974C1270.99 657.216 1271.34 657.565 1271.58 657.985C1271.82 658.405 1271.95 658.881 1271.95 659.366V659.615C1271.95 660.349 1272.24 661.052 1272.76 661.571C1273.28 662.09 1273.99 662.381 1274.72 662.381H1275.33C1276.06 662.381 1276.76 662.09 1277.28 661.571C1277.8 661.052 1278.09 660.349 1278.09 659.615V659.366C1278.09 658.881 1278.22 658.405 1278.46 657.985C1278.71 657.565 1279.06 657.216 1279.48 656.974L1280.07 656.628C1280.49 656.385 1280.97 656.258 1281.45 656.258C1281.94 656.258 1282.42 656.385 1282.84 656.628L1283.04 656.739C1283.68 657.105 1284.43 657.204 1285.14 657.015C1285.85 656.826 1286.45 656.363 1286.82 655.729L1287.12 655.19C1287.49 654.555 1287.59 653.801 1287.4 653.094C1287.21 652.386 1286.75 651.782 1286.11 651.415L1285.91 651.304C1285.48 651.06 1285.13 650.71 1284.89 650.287C1284.65 649.864 1284.52 649.385 1284.52 648.898V648.206C1284.52 647.719 1284.65 647.24 1284.89 646.817C1285.13 646.395 1285.48 646.044 1285.91 645.8L1286.11 645.676C1286.75 645.309 1287.21 644.705 1287.4 643.997C1287.59 643.289 1287.49 642.535 1287.12 641.9L1286.82 641.375C1286.45 640.741 1285.85 640.279 1285.14 640.089C1284.43 639.9 1283.68 639.999 1283.04 640.365L1282.84 640.476C1282.42 640.719 1281.94 640.847 1281.45 640.847C1280.97 640.847 1280.49 640.719 1280.07 640.476L1279.48 640.13C1279.06 639.888 1278.71 639.539 1278.46 639.119C1278.22 638.699 1278.09 638.223 1278.09 637.738V637.489C1278.09 636.756 1277.8 636.052 1277.28 635.533C1276.76 635.015 1276.06 634.723 1275.33 634.723Z" stroke="#1D8BF1" stroke-width="2" stroke-linecap="round" stroke-linejoin="round"/>
<path d="M1275.02 652.701C1277.31 652.701 1279.17 650.843 1279.17 648.552C1279.17 646.261 1277.31 644.403 1275.02 644.403C1272.73 644.403 1270.87 646.261 1270.87 648.552C1270.87 650.843 1272.73 652.701 1275.02 652.701Z" stroke="#1D8BF1" stroke-width="2" stroke-linecap="round" stroke-linejoin="round"/>
<path d="M1196.66 634.723H1207.72M1207.72 645.786V651.318M1207.72 640.255H1207.74M1202.19 640.255H1202.21M1196.66 640.255H1196.67M1202.19 645.786H1202.21M1196.66 645.786H1196.67M1202.19 651.318H1202.21M1196.66 651.318H1196.67M1193.89 629.192H1210.49C1212.02 629.192 1213.25 630.43 1213.25 631.958V654.084C1213.25 655.611 1212.02 656.85 1210.49 656.85H1193.89C1192.37 656.85 1191.13 655.611 1191.13 654.084V631.958C1191.13 630.43 1192.37 629.192 1193.89 629.192Z" stroke="#1D8BF1" stroke-width="2" stroke-linecap="round" stroke-linejoin="round"/>
<path d="M1338.64 685.429H1338.65M1344.17 685.429H1344.18M1349.7 685.429H1349.71M1338.5 696.492C1341.14 697.846 1344.17 698.213 1347.06 697.526C1349.95 696.84 1352.49 695.145 1354.24 692.748C1355.98 690.35 1356.82 687.408 1356.59 684.45C1356.36 681.493 1355.08 678.715 1352.98 676.618C1350.88 674.52 1348.1 673.241 1345.15 673.01C1342.19 672.779 1339.25 673.613 1336.85 675.359C1334.45 677.106 1332.76 679.652 1332.07 682.538C1331.38 685.424 1331.75 688.46 1333.1 691.099L1330.34 699.258L1338.5 696.492Z" stroke="#0A59A4" stroke-width="2" stroke-linecap="round" stroke-linejoin="round"/>
<path d="M727.09 661.916L729.552 665.612M728.545 669.002L723.948 670.972M736.618 656.85L728.238 658.945M713.109 655.467V677.593C713.109 678.326 713.401 679.03 713.919 679.549C714.438 680.067 715.142 680.359 715.875 680.359H738.001M728.321 659.615C728.321 661.143 727.083 662.381 725.555 662.381C724.028 662.381 722.79 661.143 722.79 659.615C722.79 658.088 724.028 656.85 725.555 656.85C727.083 656.85 728.321 658.088 728.321 659.615ZM733.853 667.913C733.853 669.44 732.614 670.678 731.087 670.678C729.559 670.678 728.321 669.44 728.321 667.913C728.321 666.385 729.559 665.147 731.087 665.147C732.614 665.147 733.853 666.385 733.853 667.913ZM724.172 672.061C724.172 673.589 722.934 674.827 721.407 674.827C719.879 674.827 718.641 673.589 718.641 672.061C718.641 670.534 719.879 669.296 721.407 669.296C722.934 669.296 724.172 670.534 724.172 672.061Z" stroke="#1D8BF1" stroke-width="2" stroke-linecap="round" stroke-linejoin="round"/>
<path d="M1077.73 662.381C1077.73 669.286 1070.07 676.477 1067.5 678.698C1067.26 678.878 1066.97 678.975 1066.67 678.975C1066.37 678.975 1066.08 678.878 1065.84 678.698C1063.27 676.477 1055.61 669.286 1055.61 662.381C1055.61 659.447 1056.77 656.633 1058.85 654.558C1060.92 652.484 1063.73 651.318 1066.67 651.318C1069.6 651.318 1072.42 652.484 1074.49 654.558C1076.57 656.633 1077.73 659.447 1077.73 662.381Z" stroke="#0A59A4" stroke-width="2" stroke-linecap="round" stroke-linejoin="round"/>
<path d="M1066.67 666.53C1068.96 666.53 1070.82 664.672 1070.82 662.381C1070.82 660.09 1068.96 658.232 1066.67 658.232C1064.38 658.232 1062.52 660.09 1062.52 662.381C1062.52 664.672 1064.38 666.53 1066.67 666.53Z" stroke="#0A59A4" stroke-width="2" stroke-linecap="round" stroke-linejoin="round"/>
<path d="M1002.59 628.27L1005.36 631.036L1010.89 625.504M1020.57 628.27C1020.57 635.907 1014.38 642.099 1006.74 642.099C999.105 642.099 992.914 635.907 992.914 628.27C992.914 620.632 999.105 614.441 1006.74 614.441C1014.38 614.441 1020.57 620.632 1020.57 628.27Z" stroke="#1D8BF1" stroke-width="2" stroke-linecap="round" stroke-linejoin="round"/>
<path d="M936.676 642.56L943.899 647.375C944.003 647.444 944.124 647.484 944.249 647.49C944.374 647.496 944.498 647.468 944.609 647.409C944.719 647.35 944.811 647.262 944.875 647.155C944.94 647.047 944.974 646.925 944.974 646.8V635.466C944.974 635.344 944.942 635.224 944.881 635.119C944.82 635.014 944.732 634.926 944.627 634.866C944.521 634.805 944.402 634.773 944.28 634.774C944.158 634.774 944.039 634.807 943.934 634.868L936.676 639.103M920.082 632.88H933.911C935.438 632.88 936.676 634.118 936.676 635.645V646.708C936.676 648.236 935.438 649.474 933.911 649.474H920.082C918.554 649.474 917.316 648.236 917.316 646.708V635.645C917.316 634.118 918.554 632.88 920.082 632.88Z" stroke="#0A59A4" stroke-width="2" stroke-linecap="round" stroke-linejoin="round"/>
<path d="M1012.1 700.95C1011.22 703.03 1009.85 704.864 1008.1 706.29C1006.34 707.715 1004.27 708.69 1002.05 709.129C999.838 709.568 997.548 709.458 995.385 708.807C993.222 708.157 991.251 706.986 989.644 705.398C988.038 703.81 986.845 701.853 986.17 699.697C985.495 697.541 985.358 695.253 985.772 693.032C986.185 690.812 987.137 688.726 988.542 686.958C989.948 685.19 991.766 683.793 993.836 682.889M1011.81 695.57C1012.58 695.57 1013.2 694.949 1013.13 694.19C1012.81 691.015 1011.4 688.048 1009.14 685.792C1006.89 683.536 1003.92 682.13 1000.75 681.812C999.986 681.736 999.366 682.362 999.366 683.126V694.189C999.366 694.556 999.512 694.907 999.771 695.167C1000.03 695.426 1000.38 695.572 1000.75 695.572L1011.81 695.57Z" stroke="#0A59A4" stroke-width="2" stroke-linecap="round" stroke-linejoin="round"/>
<path d="M796.544 734.247V716.928C796.544 716.162 796.252 715.428 795.734 714.887C795.215 714.345 794.512 714.041 793.778 714.041H782.715C781.981 714.041 781.278 714.345 780.759 714.887C780.241 715.428 779.949 716.162 779.949 716.928V732.804C779.949 733.187 780.095 733.554 780.354 733.824C780.614 734.095 780.965 734.247 781.332 734.247H784.098M784.098 734.247C784.098 735.841 785.336 737.134 786.864 737.134C788.391 737.134 789.629 735.841 789.629 734.247M784.098 734.247C784.098 732.653 785.336 731.361 786.864 731.361C788.391 731.361 789.629 732.653 789.629 734.247M797.927 734.247H789.629M797.927 734.247C797.927 735.841 799.165 737.134 800.693 737.134C802.22 737.134 803.458 735.841 803.458 734.247M797.927 734.247C797.927 732.653 799.165 731.361 800.693 731.361C802.22 731.361 803.458 732.653 803.458 734.247M803.458 734.247H806.224C806.591 734.247 806.943 734.095 807.202 733.824C807.461 733.554 807.607 733.187 807.607 732.804V727.536C807.606 727.208 807.499 726.891 807.303 726.635L802.49 720.357C802.361 720.188 802.197 720.051 802.01 719.958C801.823 719.864 801.619 719.815 801.412 719.814H796.544" stroke="#0A59A4" stroke-width="2" stroke-linecap="round" stroke-linejoin="round"/>
<path d="M1123.21 696.492H1122.6C1121.87 696.492 1121.16 696.784 1120.65 697.302C1120.13 697.821 1119.84 698.525 1119.84 699.258V699.507C1119.84 699.992 1119.71 700.468 1119.46 700.888C1119.22 701.308 1118.87 701.657 1118.45 701.899L1117.86 702.245C1117.44 702.488 1116.96 702.616 1116.48 702.616C1115.99 702.616 1115.51 702.488 1115.09 702.245L1114.89 702.134C1114.25 701.768 1113.5 701.669 1112.79 701.858C1112.08 702.048 1111.48 702.51 1111.11 703.144L1110.81 703.67C1110.44 704.304 1110.34 705.058 1110.53 705.766C1110.72 706.474 1111.18 707.078 1111.82 707.445L1112.02 707.583C1112.44 707.824 1112.79 708.171 1113.03 708.588C1113.27 709.005 1113.4 709.479 1113.41 709.962V710.667C1113.41 711.154 1113.28 711.633 1113.04 712.056C1112.79 712.479 1112.44 712.829 1112.02 713.073L1111.82 713.198C1111.18 713.565 1110.72 714.169 1110.53 714.876C1110.34 715.584 1110.44 716.338 1110.81 716.973L1111.11 717.498C1111.48 718.132 1112.08 718.595 1112.79 718.784C1113.5 718.973 1114.25 718.874 1114.89 718.508L1115.09 718.397C1115.51 718.155 1115.99 718.027 1116.48 718.027C1116.96 718.027 1117.44 718.155 1117.86 718.397L1118.45 718.743C1118.87 718.985 1119.22 719.334 1119.46 719.754C1119.71 720.174 1119.84 720.65 1119.84 721.135V721.384C1119.84 722.118 1120.13 722.821 1120.65 723.34C1121.16 723.859 1121.87 724.15 1122.6 724.15H1123.21C1123.94 724.15 1124.65 723.859 1125.17 723.34C1125.68 722.821 1125.98 722.118 1125.98 721.384V721.135C1125.98 720.65 1126.1 720.174 1126.35 719.754C1126.59 719.334 1126.94 718.985 1127.36 718.743L1127.95 718.397C1128.37 718.155 1128.85 718.027 1129.34 718.027C1129.82 718.027 1130.3 718.155 1130.72 718.397L1130.93 718.508C1131.56 718.874 1132.32 718.973 1133.02 718.784C1133.73 718.595 1134.33 718.132 1134.7 717.498L1135.01 716.959C1135.37 716.324 1135.47 715.57 1135.28 714.863C1135.09 714.155 1134.63 713.551 1134 713.184L1133.79 713.073C1133.37 712.829 1133.02 712.479 1132.77 712.056C1132.53 711.633 1132.4 711.154 1132.41 710.667V709.975C1132.4 709.488 1132.53 709.009 1132.77 708.586C1133.02 708.164 1133.37 707.813 1133.79 707.569L1134 707.445C1134.63 707.078 1135.09 706.474 1135.28 705.766C1135.47 705.058 1135.37 704.304 1135.01 703.67L1134.7 703.144C1134.33 702.51 1133.73 702.048 1133.02 701.858C1132.32 701.669 1131.56 701.768 1130.93 702.134L1130.72 702.245C1130.3 702.488 1129.82 702.616 1129.34 702.616C1128.85 702.616 1128.37 702.488 1127.95 702.245L1127.36 701.899C1126.94 701.657 1126.59 701.308 1126.35 700.888C1126.1 700.468 1125.98 699.992 1125.98 699.507V699.258C1125.98 698.525 1125.68 697.821 1125.17 697.302C1124.65 696.784 1123.94 696.492 1123.21 696.492Z" stroke="#1D8BF1" stroke-width="2" stroke-linecap="round" stroke-linejoin="round"/>
<path d="M1122.91 714.47C1125.2 714.47 1127.05 712.612 1127.05 710.321C1127.05 708.03 1125.2 706.173 1122.91 706.173C1120.61 706.173 1118.76 708.03 1118.76 710.321C1118.76 712.612 1120.61 714.47 1122.91 714.47Z" stroke="#1D8BF1" stroke-width="2" stroke-linecap="round" stroke-linejoin="round"/>
<path d="M854.625 653.162H854.639M860.157 653.162H860.17M865.688 653.162H865.702M854.487 664.225C857.126 665.579 860.162 665.946 863.048 665.259C865.934 664.572 868.48 662.878 870.226 660.48C871.973 658.083 872.806 655.14 872.576 652.183C872.345 649.226 871.066 646.448 868.968 644.35C866.87 642.253 864.093 640.973 861.135 640.743C858.178 640.512 855.235 641.345 852.838 643.092C850.441 644.839 848.746 647.385 848.059 650.27C847.373 653.156 847.739 656.192 849.093 658.832L846.328 666.991L854.487 664.225Z" stroke="#1D8BF1" stroke-width="2" stroke-linecap="round" stroke-linejoin="round"/>
<path d="M921.29 716.314H915.011C914.278 716.314 913.574 716.605 913.056 717.124C912.537 717.642 912.246 718.346 912.246 719.08V725.358M901.183 700.189V702.485C901.183 703.585 901.62 704.64 902.398 705.418C903.176 706.196 904.231 706.634 905.331 706.634C906.065 706.634 906.768 706.925 907.287 707.444C907.806 707.962 908.097 708.666 908.097 709.399C908.097 710.92 909.342 712.165 910.863 712.165C911.596 712.165 912.3 711.874 912.818 711.355C913.337 710.836 913.629 710.133 913.629 709.399C913.629 707.878 914.873 706.634 916.394 706.634H920.778M906.714 725.925V720.462C906.714 719.729 906.423 719.025 905.904 718.507C905.385 717.988 904.682 717.697 903.948 717.697C903.215 717.697 902.511 717.405 901.993 716.887C901.474 716.368 901.183 715.664 901.183 714.931V713.548C901.183 712.814 900.891 712.111 900.372 711.592C899.854 711.074 899.15 710.782 898.417 710.782H894.337M921.926 712.165C921.926 719.803 915.734 725.994 908.097 725.994C900.459 725.994 894.268 719.803 894.268 712.165C894.268 704.528 900.459 698.336 908.097 698.336C915.734 698.336 921.926 704.528 921.926 712.165Z" stroke="#0A59A4" stroke-width="2" stroke-linecap="round" stroke-linejoin="round"/>
</g>
<g opacity="0.6">
<path d="M85.2778 56.2149C85.2778 56.9484 85.5692 57.6519 86.0879 58.1706C86.6066 58.6893 87.3101 58.9807 88.0436 58.9807H92.1923M85.2778 53.4491V71.4267C85.2778 72.1602 85.5692 72.8637 86.0879 73.3824C86.6066 73.901 87.3101 74.1924 88.0436 74.1924H92.1923M108.787 63.1293C109.154 63.1293 109.505 62.9836 109.765 62.7243C110.024 62.4649 110.17 62.1132 110.17 61.7464V57.5978C110.17 57.231 110.024 56.8793 109.765 56.6199C109.505 56.3606 109.154 56.2149 108.787 56.2149H105.33C105.115 56.2149 104.903 56.1649 104.711 56.0689C104.519 55.9729 104.352 55.8335 104.223 55.6617L102.979 54.0023C102.85 53.8305 102.683 53.6911 102.491 53.5951C102.299 53.4991 102.087 53.4491 101.872 53.4491H99.1067C98.74 53.4491 98.3882 53.5948 98.1289 53.8541C97.8695 54.1135 97.7238 54.4652 97.7238 54.832V61.7464C97.7238 62.1132 97.8695 62.4649 98.1289 62.7243C98.3882 62.9836 98.74 63.1293 99.1067 63.1293H108.787ZM108.787 78.3411C109.154 78.3411 109.505 78.1954 109.765 77.9361C110.024 77.6767 110.17 77.325 110.17 76.9582V72.8095C110.17 72.4428 110.024 72.091 109.765 71.8317C109.505 71.5723 109.154 71.4267 108.787 71.4267H104.777C104.524 71.4233 104.276 71.3507 104.062 71.2166C103.847 71.0825 103.673 70.892 103.56 70.6661L102.979 69.4906C102.871 69.2432 102.693 69.0329 102.467 68.8854C102.241 68.738 101.976 68.6599 101.707 68.6609H99.1067C98.74 68.6609 98.3882 68.8066 98.1289 69.0659C97.8695 69.3253 97.7238 69.677 97.7238 70.0438V76.9582C97.7238 77.325 97.8695 77.6767 98.1289 77.9361C98.3882 78.1954 98.74 78.3411 99.1067 78.3411H108.787Z" stroke="#0A59A4" stroke-width="2" stroke-linecap="round" stroke-linejoin="round"/>
<path d="M172.686 50.6832H166.407C165.674 50.6832 164.97 50.9746 164.452 51.4933C163.933 52.012 163.642 52.7155 163.642 53.449V59.7273M152.579 34.5588V36.8544C152.579 37.9546 153.016 39.0099 153.794 39.7879C154.572 40.5659 155.627 41.003 156.727 41.003C157.461 41.003 158.164 41.2944 158.683 41.8131C159.202 42.3318 159.493 43.0353 159.493 43.7688C159.493 45.29 160.738 46.5346 162.259 46.5346C162.992 46.5346 163.696 46.2432 164.214 45.7245C164.733 45.2058 165.025 44.5023 165.025 43.7688C165.025 42.2476 166.269 41.003 167.79 41.003H172.174M158.11 60.2943V54.8319C158.11 54.0984 157.819 53.3949 157.3 52.8762C156.781 52.3575 156.078 52.0661 155.344 52.0661C154.611 52.0661 153.907 51.7747 153.389 51.2561C152.87 50.7374 152.579 50.0339 152.579 49.3004V47.9175C152.579 47.1839 152.287 46.4804 151.768 45.9618C151.25 45.4431 150.546 45.1517 149.813 45.1517H145.733M173.322 46.5346C173.322 54.1721 167.13 60.3635 159.493 60.3635C151.855 60.3635 145.664 54.1721 145.664 46.5346C145.664 38.8971 151.855 32.7057 159.493 32.7057C167.13 32.7057 173.322 38.8971 173.322 46.5346Z" stroke="#0A59A4" stroke-width="2" stroke-linecap="round" stroke-linejoin="round"/>
<path d="M58.0815 108.304H63.6131M60.8473 124.898L64.996 120.75M71.9104 124.898C71.9104 131.008 66.9573 135.961 60.8473 135.961C54.7373 135.961 49.7842 131.008 49.7842 124.898C49.7842 118.788 54.7373 113.835 60.8473 113.835C66.9573 113.835 71.9104 118.788 71.9104 124.898Z" stroke="#0A59A4" stroke-width="2" stroke-linecap="round" stroke-linejoin="round"/>
<path d="M235.091 91.2481L242.314 96.0633C242.418 96.1326 242.539 96.1724 242.664 96.1783C242.789 96.1843 242.913 96.1563 243.023 96.0972C243.133 96.0382 243.226 95.9504 243.29 95.8431C243.354 95.7358 243.388 95.6131 243.388 95.488V84.1539C243.388 84.0322 243.356 83.9127 243.295 83.8074C243.234 83.7021 243.147 83.6147 243.041 83.5541C242.936 83.4935 242.816 83.4618 242.694 83.4622C242.573 83.4626 242.453 83.4951 242.348 83.5565L235.091 87.7909M218.496 81.5679H232.325C233.853 81.5679 235.091 82.8062 235.091 84.3336V95.3968C235.091 96.9243 233.853 98.1625 232.325 98.1625H218.496C216.969 98.1625 215.73 96.9243 215.73 95.3968V84.3336C215.73 82.8062 216.969 81.5679 218.496 81.5679Z" stroke="#0A59A4" stroke-width="2" stroke-linecap="round" stroke-linejoin="round"/>
<path d="M31.1747 81.4157C30.295 83.4962 28.9189 85.3295 27.167 86.7554C25.415 88.1813 23.3404 89.1563 21.1245 89.5952C18.9087 90.034 16.619 89.9234 14.4558 89.273C12.2926 88.6225 10.3216 87.4521 8.71527 85.864C7.1089 84.2758 5.91602 82.3184 5.24092 80.1627C4.56582 78.0071 4.42906 75.7188 4.8426 73.4981C5.25613 71.2774 6.20737 69.1918 7.61314 67.4236C9.01892 65.6555 10.8364 64.2586 12.9068 63.3551M30.8843 76.0362C31.6477 76.0362 32.2741 75.4153 32.1981 74.6561C31.8793 71.4812 30.4723 68.5143 28.2158 66.2583C25.9593 64.0023 22.992 62.596 19.8171 62.2779C19.0565 62.2018 18.4369 62.8283 18.4369 63.5916V74.6547C18.4369 75.0215 18.5826 75.3732 18.842 75.6326C19.1013 75.8919 19.4531 76.0376 19.8198 76.0376L30.8843 76.0362Z" stroke="#0A59A4" stroke-width="2" stroke-linecap="round" stroke-linejoin="round"/>
<path d="M62.9952 14.2672H62.3868C61.6532 14.2672 60.9498 14.5586 60.4311 15.0773C59.9124 15.596 59.621 16.2995 59.621 17.033V17.2819C59.6205 17.7669 59.4925 18.2433 59.2497 18.6632C59.007 19.0831 58.6581 19.4318 58.2381 19.6743L57.6435 20.02C57.223 20.2628 56.7461 20.3906 56.2606 20.3906C55.7751 20.3906 55.2981 20.2628 54.8777 20.02L54.6703 19.9094C54.0356 19.5433 53.2816 19.444 52.5738 19.6332C51.866 19.8225 51.2622 20.2849 50.895 20.9189L50.5907 21.4444C50.2246 22.0791 50.1253 22.8331 50.3146 23.5409C50.5039 24.2487 50.9662 24.8525 51.6002 25.2197L51.8077 25.358C52.2257 25.5993 52.5733 25.9458 52.8159 26.3631C53.0585 26.7804 53.1877 27.2539 53.1906 27.7365V28.4418C53.1925 28.9292 53.0656 29.4084 52.8228 29.8309C52.5799 30.2535 52.2297 30.6044 51.8077 30.848L51.6002 30.9725C50.9662 31.3397 50.5039 31.9435 50.3146 32.6513C50.1253 33.3591 50.2246 34.1131 50.5907 34.7478L50.895 35.2733C51.2622 35.9073 51.866 36.3697 52.5738 36.559C53.2816 36.7482 54.0356 36.6489 54.6703 36.2828L54.8777 36.1722C55.2981 35.9294 55.7751 35.8016 56.2606 35.8016C56.7461 35.8016 57.223 35.9294 57.6435 36.1722L58.2381 36.5179C58.6581 36.7604 59.007 37.1091 59.2497 37.529C59.4925 37.9489 59.6205 38.4253 59.621 38.9103V39.1592C59.621 39.8927 59.9124 40.5962 60.4311 41.1149C60.9498 41.6336 61.6532 41.925 62.3868 41.925H62.9952C63.7288 41.925 64.4323 41.6336 64.9509 41.1149C65.4696 40.5962 65.761 39.8927 65.761 39.1592V38.9103C65.7615 38.4253 65.8896 37.9489 66.1323 37.529C66.375 37.1091 66.7239 36.7604 67.1439 36.5179L67.7386 36.1722C68.159 35.9294 68.636 35.8016 69.1214 35.8016C69.6069 35.8016 70.0839 35.9294 70.5043 36.1722L70.7118 36.2828C71.3464 36.6489 72.1004 36.7482 72.8082 36.559C73.516 36.3697 74.1198 35.9073 74.4871 35.2733L74.7913 34.734C75.1574 34.0993 75.2567 33.3453 75.0674 32.6375C74.8782 31.9297 74.4158 31.3259 73.7818 30.9587L73.5743 30.848C73.1523 30.6044 72.8021 30.2535 72.5592 29.8309C72.3164 29.4084 72.1895 28.9292 72.1915 28.4418V27.7504C72.1895 27.263 72.3164 26.7838 72.5592 26.3613C72.8021 25.9387 73.1523 25.5878 73.5743 25.3442L73.7818 25.2197C74.4158 24.8525 74.8782 24.2487 75.0674 23.5409C75.2567 22.8331 75.1574 22.0791 74.7913 21.4444L74.4871 20.9189C74.1198 20.2849 73.516 19.8225 72.8082 19.6332C72.1004 19.444 71.3464 19.5433 70.7118 19.9094L70.5043 20.02C70.0839 20.2628 69.6069 20.3906 69.1214 20.3906C68.636 20.3906 68.159 20.2628 67.7386 20.02L67.1439 19.6743C66.7239 19.4318 66.375 19.0831 66.1323 18.6632C65.8896 18.2433 65.7615 17.7669 65.761 17.2819V17.033C65.761 16.2995 65.4696 15.596 64.9509 15.0773C64.4323 14.5586 63.7288 14.2672 62.9952 14.2672Z" stroke="#1D8BF1" stroke-width="2" stroke-linecap="round" stroke-linejoin="round"/>
<path d="M62.691 32.2448C64.9823 32.2448 66.8397 30.3873 66.8397 28.0961C66.8397 25.8049 64.9823 23.9474 62.691 23.9474C60.3998 23.9474 58.5423 25.8049 58.5423 28.0961C58.5423 30.3873 60.3998 32.2448 62.691 32.2448Z" stroke="#1D8BF1" stroke-width="2" stroke-linecap="round" stroke-linejoin="round"/>
<path d="M297.782 111.069H308.845M308.845 122.133V127.664M308.845 116.601H308.859M303.314 116.601H303.327M297.782 116.601H297.796M303.314 122.133H303.327M297.782 122.133H297.796M303.314 127.664H303.327M297.782 127.664H297.796M295.016 105.538H311.611C313.138 105.538 314.377 106.776 314.377 108.304V130.43C314.377 131.957 313.138 133.196 311.611 133.196H295.016C293.489 133.196 292.25 131.957 292.25 130.43V108.304C292.25 106.776 293.489 105.538 295.016 105.538Z" stroke="#1D8BF1" stroke-width="2" stroke-linecap="round" stroke-linejoin="round"/>
<path d="M146.586 106.46H146.6M152.117 106.46H152.131M157.649 106.46H157.663M146.448 117.523C149.087 118.877 152.123 119.244 155.009 118.557C157.895 117.87 160.44 116.176 162.187 113.778C163.934 111.381 164.767 108.438 164.537 105.481C164.306 102.524 163.026 99.7458 160.929 97.6483C158.831 95.5508 156.054 94.2714 153.096 94.0406C150.139 93.8099 147.196 94.6431 144.799 96.3899C142.402 98.1368 140.707 100.683 140.02 103.568C139.334 106.454 139.7 109.49 141.054 112.13L138.289 120.289L146.448 117.523Z" stroke="#1D8BF1" stroke-width="2" stroke-linecap="round" stroke-linejoin="round"/>
<path d="M470.643 25.7913C470.643 26.5248 470.934 27.2283 471.453 27.747C471.972 28.2657 472.675 28.5571 473.409 28.5571H477.558M470.643 23.0255V41.0031C470.643 41.7366 470.934 42.4401 471.453 42.9588C471.972 43.4775 472.675 43.7688 473.409 43.7688H477.558M494.152 32.7057C494.519 32.7057 494.871 32.56 495.13 32.3007C495.389 32.0414 495.535 31.6896 495.535 31.3228V27.1742C495.535 26.8074 495.389 26.4557 495.13 26.1963C494.871 25.937 494.519 25.7913 494.152 25.7913H490.695C490.48 25.7913 490.269 25.7413 490.077 25.6453C489.884 25.5493 489.717 25.4099 489.589 25.2381L488.344 23.5787C488.215 23.4069 488.048 23.2675 487.856 23.1715C487.664 23.0755 487.452 23.0255 487.238 23.0255H484.472C484.105 23.0255 483.753 23.1712 483.494 23.4306C483.235 23.6899 483.089 24.0416 483.089 24.4084V31.3228C483.089 31.6896 483.235 32.0414 483.494 32.3007C483.753 32.56 484.105 32.7057 484.472 32.7057H494.152ZM494.152 47.9175C494.519 47.9175 494.871 47.7718 495.13 47.5125C495.389 47.2531 495.535 46.9014 495.535 46.5346V42.386C495.535 42.0192 495.389 41.6674 495.13 41.4081C494.871 41.1488 494.519 41.0031 494.152 41.0031H490.142C489.889 40.9998 489.642 40.9271 489.427 40.793C489.212 40.6589 489.039 40.4685 488.925 40.2425L488.344 39.067C488.236 38.8197 488.058 38.6093 487.832 38.4618C487.606 38.3144 487.342 38.2363 487.072 38.2373H484.472C484.105 38.2373 483.753 38.383 483.494 38.6423C483.235 38.9017 483.089 39.2534 483.089 39.6202V46.5346C483.089 46.9014 483.235 47.2531 483.494 47.5125C483.753 47.7718 484.105 47.9175 484.472 47.9175H494.152Z" stroke="#0A59A4" stroke-width="2" stroke-linecap="round" stroke-linejoin="round"/>
<path d="M504.906 95.854L507.368 99.549M506.361 102.94L501.764 104.909M514.434 90.7871L506.054 92.8821M490.925 89.4042V111.53C490.925 112.264 491.217 112.967 491.735 113.486C492.254 114.005 492.958 114.296 493.691 114.296H515.817M506.137 93.5528C506.137 95.0803 504.899 96.3186 503.371 96.3186C501.844 96.3186 500.606 95.0803 500.606 93.5528C500.606 92.0253 501.844 90.7871 503.371 90.7871C504.899 90.7871 506.137 92.0253 506.137 93.5528ZM511.669 101.85C511.669 103.378 510.43 104.616 508.903 104.616C507.375 104.616 506.137 103.378 506.137 101.85C506.137 100.323 507.375 99.0844 508.903 99.0844C510.43 99.0844 511.669 100.323 511.669 101.85ZM501.988 105.999C501.988 107.526 500.75 108.765 499.223 108.765C497.695 108.765 496.457 107.526 496.457 105.999C496.457 104.471 497.695 103.233 499.223 103.233C500.75 103.233 501.988 104.471 501.988 105.999Z" stroke="#0A59A4" stroke-width="2" stroke-linecap="round" stroke-linejoin="round"/>
<path d="M445.29 80.6459C445.29 87.5506 437.63 94.7417 435.058 96.9626C434.819 97.1428 434.527 97.2402 434.227 97.2402C433.927 97.2402 433.636 97.1428 433.396 96.9626C430.824 94.7417 423.164 87.5506 423.164 80.6459C423.164 77.7118 424.33 74.8978 426.404 72.8231C428.479 70.7483 431.293 69.5828 434.227 69.5828C437.161 69.5828 439.975 70.7483 442.05 72.8231C444.125 74.8978 445.29 77.7118 445.29 80.6459Z" stroke="#1D8BF1" stroke-width="2" stroke-linecap="round" stroke-linejoin="round"/>
<path d="M434.227 84.7945C436.518 84.7945 438.376 82.9371 438.376 80.6459C438.376 78.3546 436.518 76.4972 434.227 76.4972C431.936 76.4972 430.079 78.3546 430.079 80.6459C430.079 82.9371 431.936 84.7945 434.227 84.7945Z" stroke="#1D8BF1" stroke-width="2" stroke-linecap="round" stroke-linejoin="round"/>
<path d="M578.048 65.895H583.579M580.814 82.4897L584.962 78.341M591.877 82.4897C591.877 88.5997 586.924 93.5528 580.814 93.5528C574.704 93.5528 569.75 88.5997 569.75 82.4897C569.75 76.3797 574.704 71.4266 580.814 71.4266C586.924 71.4266 591.877 76.3797 591.877 82.4897Z" stroke="#1D8BF1" stroke-width="2" stroke-linecap="round" stroke-linejoin="round"/>
<path d="M678.998 73.2704L681.764 76.0362L687.295 70.5046M696.976 73.2704C696.976 80.9079 690.784 87.0993 683.147 87.0993C675.509 87.0993 669.318 80.9079 669.318 73.2704C669.318 65.6329 675.509 59.4415 683.147 59.4415C690.784 59.4415 696.976 65.6329 696.976 73.2704Z" stroke="#1D8BF1" stroke-width="2" stroke-linecap="round" stroke-linejoin="round"/>
<path d="M377.067 28.8999V11.5805C377.067 10.815 376.776 10.0808 376.257 9.53942C375.739 8.99809 375.035 8.69397 374.302 8.69397H363.238C362.505 8.69397 361.801 8.99809 361.283 9.53942C360.764 10.0808 360.473 10.815 360.473 11.5805V27.4566C360.473 27.8394 360.618 28.2065 360.878 28.4771C361.137 28.7478 361.489 28.8999 361.856 28.8999H364.621M364.621 28.8999C364.621 30.4941 365.86 31.7864 367.387 31.7864C368.915 31.7864 370.153 30.4941 370.153 28.8999M364.621 28.8999C364.621 27.3057 365.86 26.0133 367.387 26.0133C368.915 26.0133 370.153 27.3057 370.153 28.8999M378.45 28.8999H370.153M378.45 28.8999C378.45 30.4941 379.688 31.7864 381.216 31.7864C382.743 31.7864 383.982 30.4941 383.982 28.8999M378.45 28.8999C378.45 27.3057 379.688 26.0133 381.216 26.0133C382.743 26.0133 383.982 27.3057 383.982 28.8999M383.982 28.8999H386.748C387.114 28.8999 387.466 28.7478 387.725 28.4771C387.985 28.2065 388.13 27.8394 388.13 27.4566V22.1886C388.13 21.8611 388.023 21.5435 387.826 21.288L383.014 15.0098C382.884 14.8407 382.72 14.7042 382.534 14.6103C382.347 14.5163 382.142 14.4674 381.935 14.4671H377.067" stroke="#1D8BF1" stroke-width="2" stroke-linecap="round" stroke-linejoin="round"/>
<path d="M622.604 14.2672H621.996C621.262 14.2672 620.559 14.5586 620.04 15.0773C619.521 15.596 619.23 16.2995 619.23 17.033V17.2819C619.229 17.7669 619.101 18.2433 618.859 18.6632C618.616 19.0831 618.267 19.4318 617.847 19.6743L617.252 20.02C616.832 20.2628 616.355 20.3906 615.869 20.3906C615.384 20.3906 614.907 20.2628 614.487 20.02L614.279 19.9094C613.644 19.5433 612.89 19.444 612.183 19.6332C611.475 19.8225 610.871 20.2849 610.504 20.9189L610.2 21.4444C609.834 22.0791 609.734 22.8331 609.923 23.5409C610.113 24.2487 610.575 24.8525 611.209 25.2197L611.417 25.358C611.835 25.5993 612.182 25.9458 612.425 26.3631C612.667 26.7804 612.797 27.2539 612.799 27.7365V28.4418C612.801 28.9292 612.675 29.4084 612.432 29.8309C612.189 30.2535 611.839 30.6044 611.417 30.848L611.209 30.9725C610.575 31.3397 610.113 31.9435 609.923 32.6513C609.734 33.3591 609.834 34.1131 610.2 34.7478L610.504 35.2733C610.871 35.9073 611.475 36.3697 612.183 36.559C612.89 36.7482 613.644 36.6489 614.279 36.2828L614.487 36.1722C614.907 35.9294 615.384 35.8016 615.869 35.8016C616.355 35.8016 616.832 35.9294 617.252 36.1722L617.847 36.5179C618.267 36.7604 618.616 37.1091 618.859 37.529C619.101 37.9489 619.229 38.4253 619.23 38.9103V39.1592C619.23 39.8927 619.521 40.5962 620.04 41.1149C620.559 41.6336 621.262 41.925 621.996 41.925H622.604C623.338 41.925 624.041 41.6336 624.56 41.1149C625.079 40.5962 625.37 39.8927 625.37 39.1592V38.9103C625.37 38.4253 625.498 37.9489 625.741 37.529C625.984 37.1091 626.333 36.7604 626.753 36.5179L627.347 36.1722C627.768 35.9294 628.245 35.8016 628.73 35.8016C629.216 35.8016 629.693 35.9294 630.113 36.1722L630.321 36.2828C630.955 36.6489 631.709 36.7482 632.417 36.559C633.125 36.3697 633.729 35.9073 634.096 35.2733L634.4 34.734C634.766 34.0993 634.866 33.3453 634.676 32.6375C634.487 31.9297 634.025 31.3259 633.391 30.9587L633.183 30.848C632.761 30.6044 632.411 30.2535 632.168 29.8309C631.925 29.4084 631.798 28.9292 631.8 28.4418V27.7504C631.798 27.263 631.925 26.7838 632.168 26.3613C632.411 25.9387 632.761 25.5878 633.183 25.3442L633.391 25.2197C634.025 24.8525 634.487 24.2487 634.676 23.5409C634.866 22.8331 634.766 22.0791 634.4 21.4444L634.096 20.9189C633.729 20.2849 633.125 19.8225 632.417 19.6332C631.709 19.444 630.955 19.5433 630.321 19.9094L630.113 20.02C629.693 20.2628 629.216 20.3906 628.73 20.3906C628.245 20.3906 627.768 20.2628 627.347 20.02L626.753 19.6743C626.333 19.4318 625.984 19.0831 625.741 18.6632C625.498 18.2433 625.37 17.7669 625.37 17.2819V17.033C625.37 16.2995 625.079 15.596 624.56 15.0773C624.041 14.5586 623.338 14.2672 622.604 14.2672Z" stroke="#0A59A4" stroke-width="2" stroke-linecap="round" stroke-linejoin="round"/>
<path d="M622.3 32.2448C624.591 32.2448 626.449 30.3873 626.449 28.0961C626.449 25.8049 624.591 23.9474 622.3 23.9474C620.009 23.9474 618.151 25.8049 618.151 28.0961C618.151 30.3873 620.009 32.2448 622.3 32.2448Z" stroke="#0A59A4" stroke-width="2" stroke-linecap="round" stroke-linejoin="round"/>
<path d="M305.157 23.0255H277.5L288.563 36.1076V45.1517L294.094 47.9175V36.1076L305.157 23.0255Z" stroke="#0A59A4" stroke-width="2" stroke-linecap="round" stroke-linejoin="round"/>
<path d="M370.614 98.1624H362.317C361.583 98.1624 360.879 98.4538 360.361 98.9725C359.842 99.4912 359.551 100.195 359.551 100.928C359.551 101.662 359.842 102.365 360.361 102.884C360.879 103.403 361.583 103.694 362.317 103.694H367.848C368.582 103.694 369.285 103.985 369.804 104.504C370.322 105.023 370.614 105.726 370.614 106.46C370.614 107.193 370.322 107.897 369.804 108.415C369.285 108.934 368.582 109.226 367.848 109.226H359.551M365.082 111.991V95.3966M353.812 99.0198C353.61 98.1106 353.641 97.1651 353.902 96.2711C354.163 95.3771 354.645 94.5634 355.305 93.9055C355.964 93.2476 356.778 92.7669 357.673 92.5078C358.568 92.2487 359.513 92.2197 360.422 92.4234C360.922 91.6411 361.611 90.9973 362.426 90.5514C363.24 90.1054 364.154 89.8717 365.082 89.8717C366.011 89.8717 366.924 90.1054 367.739 90.5514C368.553 90.9973 369.242 91.6411 369.743 92.4234C370.653 92.2188 371.6 92.2477 372.496 92.5074C373.392 92.7671 374.208 93.2492 374.867 93.9089C375.527 94.5685 376.009 95.3843 376.269 96.2803C376.529 97.1763 376.557 98.1235 376.353 99.0336C377.135 99.5338 377.779 100.223 378.225 101.037C378.671 101.852 378.905 102.765 378.905 103.694C378.905 104.623 378.671 105.536 378.225 106.351C377.779 107.165 377.135 107.854 376.353 108.354C376.557 109.263 376.528 110.209 376.268 111.103C376.009 111.998 375.529 112.812 374.871 113.472C374.213 114.131 373.399 114.613 372.505 114.874C371.611 115.135 370.666 115.166 369.756 114.965C369.257 115.75 368.567 116.396 367.751 116.844C366.936 117.292 366.02 117.527 365.089 117.527C364.158 117.527 363.243 117.292 362.427 116.844C361.611 116.396 360.922 115.75 360.422 114.965C359.513 115.168 358.568 115.139 357.673 114.88C356.778 114.621 355.964 114.14 355.305 113.482C354.645 112.825 354.163 112.011 353.902 111.117C353.641 110.223 353.61 109.277 353.812 108.368C353.023 107.869 352.374 107.179 351.924 106.362C351.474 105.545 351.238 104.627 351.238 103.694C351.238 102.761 351.474 101.843 351.924 101.026C352.374 100.209 353.023 99.5187 353.812 99.0198Z" stroke="#0A59A4" stroke-width="2" stroke-linecap="round" stroke-linejoin="round"/>
</g>
<g opacity="0.6">
<path d="M1160.7 32.7057V16.111C1160.7 15.3775 1160.41 14.674 1159.89 14.1553C1159.38 13.6366 1158.67 13.3452 1157.94 13.3452H1146.88C1146.14 13.3452 1145.44 13.6366 1144.92 14.1553C1144.4 14.674 1144.11 15.3775 1144.11 16.111V31.3228C1144.11 31.6895 1144.26 32.0413 1144.51 32.3006C1144.77 32.56 1145.13 32.7057 1145.49 32.7057H1148.26M1148.26 32.7057C1148.26 34.2332 1149.5 35.4714 1151.02 35.4714C1152.55 35.4714 1153.79 34.2332 1153.79 32.7057M1148.26 32.7057C1148.26 31.1782 1149.5 29.9399 1151.02 29.9399C1152.55 29.9399 1153.79 31.1782 1153.79 32.7057M1162.09 32.7057H1153.79M1162.09 32.7057C1162.09 34.2332 1163.33 35.4714 1164.85 35.4714C1166.38 35.4714 1167.62 34.2332 1167.62 32.7057M1162.09 32.7057C1162.09 31.1782 1163.33 29.9399 1164.85 29.9399C1166.38 29.9399 1167.62 31.1782 1167.62 32.7057M1167.62 32.7057H1170.38C1170.75 32.7057 1171.1 32.56 1171.36 32.3006C1171.62 32.0413 1171.77 31.6895 1171.77 31.3228V26.2752C1171.77 25.9614 1171.66 25.6571 1171.46 25.4123L1166.65 19.3967C1166.52 19.2348 1166.36 19.104 1166.17 19.014C1165.98 18.9239 1165.78 18.8771 1165.57 18.8768H1160.7" stroke="#0A59A4" stroke-width="2" stroke-linecap="round" stroke-linejoin="round"/>
<path d="M1212.62 118.906H1206.34C1205.61 118.906 1204.9 119.197 1204.38 119.716C1203.87 120.235 1203.57 120.938 1203.57 121.672V127.95M1192.51 102.781V105.077C1192.51 106.177 1192.95 107.232 1193.73 108.01C1194.5 108.788 1195.56 109.226 1196.66 109.226C1197.39 109.226 1198.1 109.517 1198.62 110.036C1199.13 110.554 1199.43 111.258 1199.43 111.991C1199.43 113.513 1200.67 114.757 1202.19 114.757C1202.92 114.757 1203.63 114.466 1204.15 113.947C1204.67 113.428 1204.96 112.725 1204.96 111.991C1204.96 110.47 1206.2 109.226 1207.72 109.226H1212.11M1198.04 128.517V123.054C1198.04 122.321 1197.75 121.617 1197.23 121.099C1196.71 120.58 1196.01 120.289 1195.28 120.289C1194.54 120.289 1193.84 119.997 1193.32 119.479C1192.8 118.96 1192.51 118.256 1192.51 117.523V116.14C1192.51 115.406 1192.22 114.703 1191.7 114.184C1191.18 113.666 1190.48 113.374 1189.75 113.374H1185.67M1213.25 114.757C1213.25 122.395 1207.06 128.586 1199.43 128.586C1191.79 128.586 1185.6 122.395 1185.6 114.757C1185.6 107.12 1191.79 100.928 1199.43 100.928C1207.06 100.928 1213.25 107.12 1213.25 114.757Z" stroke="#1D8BF1" stroke-width="2" stroke-linecap="round" stroke-linejoin="round"/>
<path d="M1313.74 70.5046C1313.74 77.4094 1306.08 84.6004 1303.51 86.8213C1303.27 87.0015 1302.98 87.099 1302.68 87.099C1302.38 87.099 1302.09 87.0015 1301.85 86.8213C1299.28 84.6004 1291.62 77.4094 1291.62 70.5046C1291.62 67.5705 1292.78 64.7566 1294.86 62.6818C1296.93 60.6071 1299.75 59.4415 1302.68 59.4415C1305.62 59.4415 1308.43 60.6071 1310.5 62.6818C1312.58 64.7566 1313.74 67.5705 1313.74 70.5046Z" stroke="#0A59A4" stroke-width="2" stroke-linecap="round" stroke-linejoin="round"/>
<path d="M1302.68 74.6533C1304.97 74.6533 1306.83 72.7959 1306.83 70.5046C1306.83 68.2134 1304.97 66.356 1302.68 66.356C1300.39 66.356 1298.53 68.2134 1298.53 70.5046C1298.53 72.7959 1300.39 74.6533 1302.68 74.6533Z" stroke="#0A59A4" stroke-width="2" stroke-linecap="round" stroke-linejoin="round"/>
<path d="M1277.79 118.445H1283.32M1280.56 135.039L1284.7 130.891M1291.62 135.039C1291.62 141.149 1286.67 146.103 1280.56 146.103C1274.45 146.103 1269.49 141.149 1269.49 135.039C1269.49 128.93 1274.45 123.976 1280.56 123.976C1286.67 123.976 1291.62 128.93 1291.62 135.039Z" stroke="#0A59A4" stroke-width="2" stroke-linecap="round" stroke-linejoin="round"/>
<path d="M1396.26 78.802L1399.02 81.5678L1404.55 76.0363M1414.23 78.802C1414.23 86.4395 1408.04 92.6309 1400.41 92.6309C1392.77 92.6309 1386.58 86.4395 1386.58 78.802C1386.58 71.1645 1392.77 64.9731 1400.41 64.9731C1408.04 64.9731 1414.23 71.1645 1414.23 78.802Z" stroke="#0A59A4" stroke-width="2" stroke-linecap="round" stroke-linejoin="round"/>
<path d="M1354.31 38.6983L1361.53 43.5135C1361.64 43.5828 1361.76 43.6225 1361.88 43.6285C1362.01 43.6345 1362.13 43.6065 1362.24 43.5474C1362.35 43.4884 1362.44 43.4006 1362.51 43.2933C1362.57 43.186 1362.61 43.0633 1362.61 42.9382V31.6041C1362.61 31.4824 1362.57 31.3629 1362.51 31.2576C1362.45 31.1523 1362.36 31.0649 1362.26 31.0043C1362.15 30.9437 1362.03 30.912 1361.91 30.9124C1361.79 30.9128 1361.67 30.9453 1361.57 31.0067L1354.31 35.2411M1337.71 29.0181H1351.54C1353.07 29.0181 1354.31 30.2563 1354.31 31.7838V42.847C1354.31 44.3745 1353.07 45.6127 1351.54 45.6127H1337.71C1336.19 45.6127 1334.95 44.3745 1334.95 42.847V31.7838C1334.95 30.2563 1336.19 29.0181 1337.71 29.0181Z" stroke="#0A59A4" stroke-width="2" stroke-linecap="round" stroke-linejoin="round"/>
<path d="M1122.29 81.5677H1121.68C1120.95 81.5677 1120.24 81.8591 1119.72 82.3778C1119.21 82.8965 1118.91 83.6 1118.91 84.3335V84.5824C1118.91 85.0675 1118.79 85.5438 1118.54 85.9637C1118.3 86.3836 1117.95 86.7323 1117.53 86.9748L1116.94 87.3206C1116.52 87.5633 1116.04 87.6911 1115.55 87.6911C1115.07 87.6911 1114.59 87.5633 1114.17 87.3206L1113.96 87.2099C1113.33 86.8438 1112.57 86.7445 1111.87 86.9338C1111.16 87.1231 1110.56 87.5854 1110.19 88.2194L1109.88 88.7449C1109.52 89.3796 1109.42 90.1336 1109.61 90.8414C1109.8 91.5492 1110.26 92.153 1110.89 92.5202L1111.1 92.6585C1111.52 92.8998 1111.87 93.2464 1112.11 93.6636C1112.35 94.0809 1112.48 94.5544 1112.48 95.0371V95.7424C1112.49 96.2297 1112.36 96.7089 1112.12 97.1315C1111.87 97.554 1111.52 97.9049 1111.1 98.1486L1110.89 98.273C1110.26 98.6403 1109.8 99.2441 1109.61 99.9519C1109.42 100.66 1109.52 101.414 1109.88 102.048L1110.19 102.574C1110.56 103.208 1111.16 103.67 1111.87 103.859C1112.57 104.049 1113.33 103.949 1113.96 103.583L1114.17 103.473C1114.59 103.23 1115.07 103.102 1115.55 103.102C1116.04 103.102 1116.52 103.23 1116.94 103.473L1117.53 103.818C1117.95 104.061 1118.3 104.41 1118.54 104.83C1118.79 105.249 1118.91 105.726 1118.91 106.211V106.46C1118.91 107.193 1119.21 107.897 1119.72 108.415C1120.24 108.934 1120.95 109.226 1121.68 109.226H1122.29C1123.02 109.226 1123.73 108.934 1124.24 108.415C1124.76 107.897 1125.05 107.193 1125.05 106.46V106.211C1125.05 105.726 1125.18 105.249 1125.43 104.83C1125.67 104.41 1126.02 104.061 1126.44 103.818L1127.03 103.473C1127.45 103.23 1127.93 103.102 1128.41 103.102C1128.9 103.102 1129.38 103.23 1129.8 103.473L1130 103.583C1130.64 103.949 1131.39 104.049 1132.1 103.859C1132.81 103.67 1133.41 103.208 1133.78 102.574L1134.08 102.035C1134.45 101.4 1134.55 100.646 1134.36 99.938C1134.17 99.2302 1133.71 98.6264 1133.07 98.2592L1132.87 98.1486C1132.45 97.9049 1132.1 97.554 1131.85 97.1315C1131.61 96.7089 1131.48 96.2297 1131.48 95.7424V95.0509C1131.48 94.5636 1131.61 94.0843 1131.85 93.6618C1132.1 93.2392 1132.45 92.8884 1132.87 92.6447L1133.07 92.5202C1133.71 92.153 1134.17 91.5492 1134.36 90.8414C1134.55 90.1336 1134.45 89.3796 1134.08 88.7449L1133.78 88.2194C1133.41 87.5854 1132.81 87.1231 1132.1 86.9338C1131.39 86.7445 1130.64 86.8438 1130 87.2099L1129.8 87.3206C1129.38 87.5633 1128.9 87.6911 1128.41 87.6911C1127.93 87.6911 1127.45 87.5633 1127.03 87.3206L1126.44 86.9748C1126.02 86.7323 1125.67 86.3836 1125.43 85.9637C1125.18 85.5438 1125.05 85.0675 1125.05 84.5824V84.3335C1125.05 83.6 1124.76 82.8965 1124.24 82.3778C1123.73 81.8591 1123.02 81.5677 1122.29 81.5677Z" stroke="#0A59A4" stroke-width="2" stroke-linecap="round" stroke-linejoin="round"/>
<path d="M1121.98 99.5453C1124.28 99.5453 1126.13 97.6879 1126.13 95.3966C1126.13 93.1054 1124.28 91.248 1121.98 91.248C1119.69 91.248 1117.84 93.1054 1117.84 95.3966C1117.84 97.6879 1119.69 99.5453 1121.98 99.5453Z" stroke="#0A59A4" stroke-width="2" stroke-linecap="round" stroke-linejoin="round"/>
<path d="M1236.3 29.9399H1247.37M1247.37 41.003V46.5345M1247.37 35.4714H1247.38M1241.83 35.4714H1241.85M1236.3 35.4714H1236.32M1241.83 41.003H1241.85M1236.3 41.003H1236.32M1241.83 46.5345H1241.85M1236.3 46.5345H1236.32M1233.54 24.4083H1250.13C1251.66 24.4083 1252.9 25.6466 1252.9 27.1741V49.3003C1252.9 50.8278 1251.66 52.0661 1250.13 52.0661H1233.54C1232.01 52.0661 1230.77 50.8278 1230.77 49.3003V27.1741C1230.77 25.6466 1232.01 24.4083 1233.54 24.4083Z" stroke="#1D8BF1" stroke-width="2" stroke-linecap="round" stroke-linejoin="round"/>
<path d="M1360.76 125.82H1360.78M1366.29 125.82H1366.31M1371.83 125.82H1371.84M1360.62 136.883C1363.26 138.237 1366.3 138.604 1369.19 137.917C1372.07 137.231 1374.62 135.536 1376.36 133.139C1378.11 130.741 1378.94 127.799 1378.71 124.841C1378.48 121.884 1377.2 119.106 1375.11 117.009C1373.01 114.911 1370.23 113.632 1367.27 113.401C1364.32 113.17 1361.37 114.004 1358.98 115.75C1356.58 117.497 1354.88 120.043 1354.2 122.929C1353.51 125.815 1353.88 128.851 1355.23 131.49L1352.46 139.649L1360.62 136.883Z" stroke="#1D8BF1" stroke-width="2" stroke-linecap="round" stroke-linejoin="round"/>
<path d="M898.878 90.3261L906.1 95.1413C906.204 95.2106 906.325 95.2504 906.45 95.2563C906.575 95.2623 906.7 95.2343 906.81 95.1753C906.92 95.1162 907.012 95.0284 907.077 94.9211C907.141 94.8138 907.175 94.6911 907.175 94.566V83.2319C907.175 83.1102 907.143 82.9907 907.082 82.8854C907.021 82.7801 906.933 82.6927 906.828 82.6321C906.722 82.5715 906.603 82.5398 906.481 82.5402C906.359 82.5406 906.24 82.5732 906.135 82.6345L898.878 86.8689M882.283 80.6459H896.112C897.639 80.6459 898.878 81.8842 898.878 83.4117V94.4748C898.878 96.0023 897.639 97.2405 896.112 97.2405H882.283C880.755 97.2405 879.517 96.0023 879.517 94.4748V83.4117C879.517 81.8842 880.755 80.6459 882.283 80.6459Z" stroke="#1D8BF1" stroke-width="2" stroke-linecap="round" stroke-linejoin="round"/>
<path d="M960.476 42.6949C959.596 44.7754 958.22 46.6087 956.468 48.0346C954.716 49.4605 952.642 50.4355 950.426 50.8743C948.21 51.3132 945.92 51.2026 943.757 50.5521C941.594 49.9017 939.623 48.7313 938.017 47.1431C936.41 45.555 935.217 43.5975 934.542 41.4419C933.867 39.2862 933.73 36.998 934.144 34.7773C934.557 32.5566 935.509 30.471 936.914 28.7028C938.32 26.9347 940.138 25.5378 942.208 24.6343M960.186 37.3154C960.949 37.3154 961.575 36.6945 961.499 35.9353C961.181 32.7604 959.774 29.7935 957.517 27.5374C955.261 25.2814 952.293 23.8752 949.118 23.5571C948.358 23.481 947.738 24.1074 947.738 24.8708V35.9339C947.738 36.3007 947.884 36.6524 948.143 36.9118C948.403 37.1711 948.754 37.3168 949.121 37.3168L960.186 37.3154Z" stroke="#0A59A4" stroke-width="2" stroke-linecap="round" stroke-linejoin="round"/>
<path d="M818.67 56.3482V39.0289C818.67 38.2633 818.378 37.5291 817.86 36.9878C817.341 36.4465 816.638 36.1423 815.904 36.1423H804.841C804.107 36.1423 803.404 36.4465 802.885 36.9878C802.367 37.5291 802.075 38.2633 802.075 39.0289V54.9049C802.075 55.2877 802.221 55.6548 802.48 55.9255C802.74 56.1962 803.091 56.3482 803.458 56.3482H806.224M806.224 56.3482C806.224 57.9424 807.462 59.2348 808.99 59.2348C810.517 59.2348 811.755 57.9424 811.755 56.3482M806.224 56.3482C806.224 54.754 807.462 53.4617 808.99 53.4617C810.517 53.4617 811.755 54.754 811.755 56.3482M820.053 56.3482H811.755M820.053 56.3482C820.053 57.9424 821.291 59.2348 822.819 59.2348C824.346 59.2348 825.584 57.9424 825.584 56.3482M820.053 56.3482C820.053 54.754 821.291 53.4617 822.819 53.4617C824.346 53.4617 825.584 54.754 825.584 56.3482M825.584 56.3482H828.35C828.717 56.3482 829.069 56.1962 829.328 55.9255C829.587 55.6548 829.733 55.2877 829.733 54.9049V49.637C829.732 49.3094 829.625 48.9919 829.429 48.7364L824.616 42.4581C824.487 42.2891 824.323 42.1525 824.136 42.0586C823.949 41.9647 823.745 41.9158 823.538 41.9154H818.67" stroke="#0A59A4" stroke-width="2" stroke-linecap="round" stroke-linejoin="round"/>
<path d="M986.461 103.694H997.524M997.524 114.757V120.289M997.524 109.226H997.538M991.992 109.226H992.006M986.461 109.226H986.475M991.992 114.757H992.006M986.461 114.757H986.475M991.992 120.289H992.006M986.461 120.289H986.475M983.695 98.1625H1000.29C1001.82 98.1625 1003.06 99.4008 1003.06 100.928V123.054C1003.06 124.582 1001.82 125.82 1000.29 125.82H983.695C982.167 125.82 980.929 124.582 980.929 123.054V100.928C980.929 99.4008 982.167 98.1625 983.695 98.1625Z" stroke="#0A59A4" stroke-width="2" stroke-linecap="round" stroke-linejoin="round"/>
<path d="M753.213 101.85H753.227M758.745 101.85H758.759M764.276 101.85H764.29M753.075 112.913C755.714 114.267 758.751 114.634 761.636 113.947C764.522 113.261 767.068 111.566 768.815 109.169C770.562 106.771 771.395 103.829 771.164 100.871C770.933 97.9139 769.654 95.1362 767.556 93.0387C765.459 90.9411 762.681 89.6617 759.724 89.431C756.766 89.2003 753.824 90.0335 751.426 91.7803C749.029 93.5272 747.334 96.0729 746.648 98.9587C745.961 101.845 746.328 104.881 747.682 107.52L744.916 115.679L753.075 112.913Z" stroke="#1D8BF1" stroke-width="2" stroke-linecap="round" stroke-linejoin="round"/>
<path d="M888.1 21.1817H881.822C881.088 21.1817 880.385 21.4731 879.866 21.9917C879.348 22.5104 879.056 23.2139 879.056 23.9474V30.2257M867.993 5.05717V7.35277C867.993 8.45306 868.43 9.50829 869.208 10.2863C869.986 11.0643 871.041 11.5014 872.142 11.5014C872.875 11.5014 873.579 11.7928 874.097 12.3115C874.616 12.8302 874.908 13.5337 874.908 14.2672C874.908 15.7884 876.152 17.033 877.673 17.033C878.407 17.033 879.11 16.7416 879.629 16.2229C880.148 15.7042 880.439 15.0007 880.439 14.2672C880.439 12.746 881.684 11.5014 883.205 11.5014H887.589M873.525 30.7927V25.3303C873.525 24.5968 873.233 23.8933 872.715 23.3746C872.196 22.8559 871.492 22.5645 870.759 22.5645C870.025 22.5645 869.322 22.2732 868.803 21.7545C868.284 21.2358 867.993 20.5323 867.993 19.7988V18.4159C867.993 17.6823 867.702 16.9789 867.183 16.4602C866.664 15.9415 865.961 15.6501 865.227 15.6501H861.148M888.736 17.033C888.736 24.6705 882.545 30.8619 874.908 30.8619C867.27 30.8619 861.079 24.6705 861.079 17.033C861.079 9.39551 867.27 3.2041 874.908 3.2041C882.545 3.2041 888.736 9.39551 888.736 17.033Z" stroke="#1D8BF1" stroke-width="2" stroke-linecap="round" stroke-linejoin="round"/>
<path d="M1063.44 91.248C1063.44 93.5393 1057.87 95.3967 1051 95.3967C1044.12 95.3967 1038.55 93.5393 1038.55 91.248M1063.44 91.248C1063.44 88.9568 1057.87 87.0994 1051 87.0994C1044.12 87.0994 1038.55 88.9568 1038.55 91.248M1063.44 91.248V110.608C1063.44 111.709 1062.13 112.764 1059.8 113.542C1057.46 114.32 1054.3 114.757 1051 114.757C1047.69 114.757 1044.53 114.32 1042.19 113.542C1039.86 112.764 1038.55 111.709 1038.55 110.608V91.248M1038.55 100.928C1038.55 102.029 1039.86 103.084 1042.19 103.862C1044.53 104.64 1047.69 105.077 1051 105.077C1054.3 105.077 1057.46 104.64 1059.8 103.862C1062.13 103.084 1063.44 102.029 1063.44 100.928" stroke="#1D8BF1" stroke-width="2" stroke-linecap="round" stroke-linejoin="round"/>
<path d="M1064.82 16.1111V21.6426C1064.82 22.3762 1065.12 23.0797 1065.63 23.5983C1066.15 24.117 1066.86 24.4084 1067.59 24.4084H1073.12M1056.53 38.2373V35.4715M1062.06 38.2373V32.7057M1067.59 38.2373V29.94M1066.21 16.1111H1053.76C1053.03 16.1111 1052.32 16.4025 1051.81 16.9212C1051.29 17.4398 1051 18.1433 1051 18.8769V41.0031C1051 41.7366 1051.29 42.4401 1051.81 42.9588C1052.32 43.4775 1053.03 43.7689 1053.76 43.7689H1070.36C1071.09 43.7689 1071.79 43.4775 1072.31 42.9588C1072.83 42.4401 1073.12 41.7366 1073.12 41.0031V23.0255L1066.21 16.1111Z" stroke="#1D8BF1" stroke-width="2" stroke-linecap="round" stroke-linejoin="round"/>
</g>
</svg>
