<svg width="48" height="48" viewBox="0 0 48 48" fill="none" xmlns="http://www.w3.org/2000/svg">
<path d="M21 35H48V44C48 45.0609 47.5786 46.0783 46.8284 46.8284C46.0783 47.5786 45.0609 48 44 48H25C23.9391 48 22.9217 47.5786 22.1716 46.8284C21.4214 46.0783 21 45.0609 21 44V35Z" fill="#D4E9FC"/>
<path d="M34.9558 31.12L16.7158 24C18.0848 26.5641 19.8106 28.9209 21.8418 31L34.9558 31.12Z" fill="#A4D0F9"/>
<path d="M16.708 24.0001C22.308 13.5741 33.708 6.08211 47 12.1821L16.716 24.0001" fill="#D4E9FC"/>
<path d="M1 38C1 38.7879 1.15519 39.5681 1.45672 40.2961C1.75825 41.0241 2.20021 41.6855 2.75736 42.2426C3.31451 42.7998 3.97595 43.2417 4.7039 43.5433C5.43185 43.8448 6.21207 44 7 44C7.78793 44 8.56815 43.8448 9.2961 43.5433C10.0241 43.2417 10.6855 42.7998 11.2426 42.2426C11.7998 41.6855 12.2417 41.0241 12.5433 40.2961C12.8448 39.5681 13 38.7879 13 38C13 37.2121 12.8448 36.4319 12.5433 35.7039C12.2417 34.9759 11.7998 34.3145 11.2426 33.7574C10.6855 33.2002 10.0241 32.7583 9.2961 32.4567C8.56815 32.1552 7.78793 32 7 32C6.21207 32 5.43185 32.1552 4.7039 32.4567C3.97595 32.7583 3.31451 33.2002 2.75736 33.7574C2.20021 34.3145 1.75825 34.9759 1.45672 35.7039C1.15519 36.4319 1 37.2121 1 38Z" stroke="#02101D" stroke-linecap="round" stroke-linejoin="round"/>
<path d="M1 10C1 10.7879 1.15519 11.5681 1.45672 12.2961C1.75825 13.0241 2.20021 13.6855 2.75736 14.2426C3.31451 14.7998 3.97595 15.2417 4.7039 15.5433C5.43185 15.8448 6.21207 16 7 16C7.78793 16 8.56815 15.8448 9.2961 15.5433C10.0241 15.2417 10.6855 14.7998 11.2426 14.2426C11.7998 13.6855 12.2417 13.0241 12.5433 12.2961C12.8448 11.5681 13 10.7879 13 10C13 9.21207 12.8448 8.43185 12.5433 7.7039C12.2417 6.97595 11.7998 6.31451 11.2426 5.75736C10.6855 5.20021 10.0241 4.75825 9.2961 4.45672C8.56815 4.15519 7.78793 4 7 4C6.21207 4 5.43185 4.15519 4.7039 4.45672C3.97595 4.75825 3.31451 5.20021 2.75736 5.75736C2.20021 6.31451 1.75825 6.97595 1.45672 7.7039C1.15519 8.43185 1 9.21207 1 10Z" stroke="#02101D" stroke-linecap="round" stroke-linejoin="round"/>
<path d="M21 35H22" stroke="#02101D" stroke-linecap="round" stroke-linejoin="round"/>
<path d="M26 35H28" stroke="#02101D" stroke-linecap="round" stroke-linejoin="round"/>
<path d="M33 35H35" stroke="#02101D" stroke-linecap="round" stroke-linejoin="round"/>
<path d="M40 35H42" stroke="#02101D" stroke-linecap="round" stroke-linejoin="round"/>
<path d="M46 35H47" stroke="#02101D" stroke-linecap="round" stroke-linejoin="round"/>
<path d="M21.838 31C16.3511 25.3638 13.1946 17.8636 13 10" stroke="#02101D" stroke-linecap="round" stroke-linejoin="round"/>
<path d="M13 37.9999C13 22.3479 28.092 3.49595 47 12.1779L16.716 23.9999" fill="#A4D0F9"/>
<path d="M13 37.9999C13 22.3479 28.092 3.49595 47 12.1779L16.716 23.9999" stroke="#02101D" stroke-linecap="round" stroke-linejoin="round"/>
<path d="M16.7158 24L34.9558 31.12" stroke="#02101D" stroke-linecap="round" stroke-linejoin="round"/>
</svg>
