<svg width="112" height="112" viewBox="0 0 112 112" fill="none" xmlns="http://www.w3.org/2000/svg">
<path d="M56.0001 2.33325C45.6754 2.33304 35.5699 5.31104 26.8953 10.9102C18.2207 16.5093 11.3454 24.4918 7.09374 33.9004C2.84213 43.309 1.39474 53.7443 2.92517 63.9549C4.45559 74.1655 8.89885 83.7179 15.7221 91.4666C27.5477 83.3071 41.6352 79.0633 56.0001 79.3333C70.365 79.0633 84.4525 83.3071 96.2781 91.4666C103.101 83.7179 107.545 74.1655 109.075 63.9549C110.605 53.7443 109.158 43.309 104.906 33.9004C100.655 24.4918 93.7795 16.5093 85.1049 10.9102C76.4303 5.31104 66.3247 2.33304 56.0001 2.33325Z" fill="#8FFFD0"/>
<path d="M56.0002 20.5333C68.2159 20.534 80.0849 24.5946 89.7412 32.0765C99.3976 39.5585 106.293 50.0374 109.345 61.8659C109.558 59.9178 109.665 57.9596 109.667 55.9999C109.667 41.7666 104.013 28.1163 93.9482 18.0519C83.8838 7.9874 70.2335 2.33325 56.0002 2.33325C41.7669 2.33325 28.1166 7.9874 18.0521 18.0519C7.98765 28.1163 2.3335 41.7666 2.3335 55.9999C2.33454 57.9658 2.44203 59.9303 2.6555 61.8846C5.70332 50.0526 12.5977 39.5695 22.2544 32.0839C31.911 24.5983 43.782 20.5351 56.0002 20.5333Z" fill="#00EB89"/>
<path d="M15.7219 91.4667C20.7554 97.1913 26.9513 101.777 33.8967 104.919C40.842 108.06 48.3772 109.685 55.9999 109.685C63.6227 109.685 71.1579 108.06 78.1032 104.919C85.0485 101.777 91.2444 97.1913 96.2779 91.4667C84.4523 83.3072 70.3648 79.0635 55.9999 79.3334C41.6351 79.0635 27.5475 83.3072 15.7219 91.4667Z" fill="white"/>
<path d="M21.5739 97.1554C44.2417 92.0594 67.7581 92.0594 90.4259 97.1554C92.516 95.4081 94.4721 93.5065 96.2779 91.4667C84.4523 83.3072 70.3648 79.0635 55.9999 79.3334C41.6351 79.0635 27.5475 83.3072 15.7219 91.4667C17.5277 93.5065 19.4839 95.4081 21.5739 97.1554Z" fill="white"/>
<path d="M56.0001 2.33325C45.6754 2.33304 35.5699 5.31104 26.8953 10.9102C18.2207 16.5093 11.3454 24.4918 7.09374 33.9004C2.84213 43.309 1.39474 53.7443 2.92517 63.9549C4.45559 74.1655 8.89885 83.7179 15.7221 91.4666C27.5477 83.3071 41.6352 79.0633 56.0001 79.3332C70.365 79.0633 84.4525 83.3071 96.2781 91.4666C103.101 83.7179 107.545 74.1655 109.075 63.9549C110.605 53.7443 109.158 43.309 104.906 33.9004C100.655 24.4918 93.7795 16.5093 85.1049 10.9102C76.4303 5.31104 66.3248 2.33304 56.0001 2.33325Z" stroke="#00140C" stroke-width="2" stroke-linecap="round" stroke-linejoin="round"/>
<path d="M15.7219 91.4667C20.7554 97.1913 26.9513 101.777 33.8967 104.919C40.842 108.06 48.3772 109.685 55.9999 109.685C63.6227 109.685 71.1579 108.06 78.1032 104.919C85.0485 101.777 91.2444 97.1913 96.2779 91.4667C84.4523 83.3072 70.3648 79.0635 55.9999 79.3334C41.6351 79.0635 27.5475 83.3072 15.7219 91.4667Z" stroke="#00140C" stroke-width="2" stroke-linecap="round" stroke-linejoin="round"/>
<path d="M62.5986 62.5986C60.8383 64.2988 58.4807 65.2395 56.0335 65.2183C53.5863 65.197 51.2454 64.2154 49.5149 62.4849C47.7844 60.7545 46.8029 58.4136 46.7816 55.9664C46.7603 53.5192 47.7011 51.1616 49.4012 49.4013C53.0459 45.7566 87.3506 24.668 87.3506 24.668C87.3506 24.668 66.2666 58.954 62.5986 62.5986Z" fill="#00EB89" stroke="#00140C" stroke-width="2" stroke-linecap="round" stroke-linejoin="round"/>
<path d="M16.3333 56H23.3333" stroke="#00140C" stroke-width="2" stroke-linecap="round" stroke-linejoin="round"/>
<path d="M27.9531 27.9534L32.8998 32.9" stroke="#00140C" stroke-width="2" stroke-linecap="round" stroke-linejoin="round"/>
<path d="M56 16.3333V23.3333" stroke="#00140C" stroke-width="2" stroke-linecap="round" stroke-linejoin="round"/>
<path d="M95.6667 56H88.6667" stroke="#00140C" stroke-width="2" stroke-linecap="round" stroke-linejoin="round"/>
</svg>
