<svg width="48" height="48" viewBox="0 0 48 48" fill="none" xmlns="http://www.w3.org/2000/svg">
<g clip-path="url(#clip0_38_2510)">
<path d="M31.1619 31.36V31.84C30.8619 31.84 30.5819 31.82 30.2819 31.8C27.7684 31.5761 25.4425 30.3773 23.8019 28.46C22.1506 30.3744 19.8198 31.5721 17.3019 31.8C17.0019 31.82 16.7219 31.84 16.4219 31.84V31.36C16.4219 29.4053 17.1984 27.5308 18.5805 26.1486C19.9626 24.7665 21.8372 23.99 23.7919 23.99C25.7465 23.99 27.6211 24.7665 29.0033 26.1486C30.3854 27.5308 31.1619 29.4053 31.1619 31.36Z" fill="#D4E9FC" stroke="#02101D" stroke-linecap="round" stroke-linejoin="round"/>
<path d="M16.422 31.8401V32.7601C16.4807 34.6037 16.0012 36.4245 15.042 38.0001" stroke="#02101D" stroke-linecap="round" stroke-linejoin="round"/>
<path d="M31.1618 31.8401V32.7601C31.0961 34.6018 31.5687 36.4228 32.5218 38.0001" stroke="#02101D" stroke-linecap="round" stroke-linejoin="round"/>
<path d="M30.2818 31.8C30.199 33.4655 29.4792 35.0355 28.2711 36.185C27.0631 37.3345 25.4593 37.9756 23.7918 37.9756C22.1242 37.9756 20.5204 37.3345 19.3124 36.185C18.1043 35.0355 17.3845 33.4655 17.3018 31.8C19.8197 31.572 22.1504 30.3744 23.8018 28.46C25.4424 30.3772 27.7683 31.5761 30.2818 31.8Z" fill="#E7F3FE" stroke="#02101D" stroke-linecap="round" stroke-linejoin="round"/>
<path d="M33.5539 47C32.6401 45.1951 31.2438 43.6787 29.5202 42.6194C27.7965 41.5601 25.813 40.9993 23.7899 40.9993C21.7668 40.9993 19.7832 41.5601 18.0596 42.6194C16.336 43.6787 14.9397 45.1951 14.0259 47" fill="#D4E9FC"/>
<path d="M33.5539 47C32.6401 45.1951 31.2438 43.6787 29.5202 42.6194C27.7965 41.5601 25.813 40.9993 23.7899 40.9993C21.7668 40.9993 19.7832 41.5601 18.0596 42.6194C16.336 43.6787 14.9397 45.1951 14.0259 47" stroke="#02101D" stroke-linecap="round" stroke-linejoin="round"/>
<path d="M32.9998 17.88L34.7998 19.132L32.8778 23.55C32.7936 23.7524 32.7749 23.976 32.8245 24.1895C32.874 24.403 32.9892 24.5956 33.1539 24.7402C33.3186 24.8848 33.5245 24.9741 33.7426 24.9956C33.9607 25.0171 34.1801 24.9697 34.3698 24.86L39.0178 22.246L43.6658 24.86C43.8556 24.9705 44.0752 25.0185 44.2938 24.9973C44.5123 24.9762 44.7187 24.887 44.8838 24.7422C45.0489 24.5974 45.1644 24.4045 45.2139 24.1906C45.2634 23.9767 45.2445 23.7526 45.1598 23.55L43.2358 19.132L46.7078 16.712C46.8592 16.5783 46.9654 16.4009 47.0119 16.2043C47.0584 16.0077 47.0429 15.8016 46.9675 15.6141C46.8921 15.4267 46.7605 15.2673 46.5908 15.1577C46.4211 15.0481 46.2216 14.9937 46.0198 15.002H42.0198L39.9658 9.57403C39.8763 9.40119 39.741 9.25628 39.5747 9.15513C39.4084 9.05398 39.2175 9.00049 39.0228 9.00049C38.8282 9.00049 38.6373 9.05398 38.4709 9.15513C38.3046 9.25628 38.1693 9.40119 38.0798 9.57403L36.0238 15H33.9998" fill="#A4D0F9"/>
<path d="M42.0278 15L39.9658 9.57403C39.8763 9.40119 39.741 9.25628 39.5747 9.15513C39.4084 9.05398 39.2175 9.00049 39.0228 9.00049C38.8282 9.00049 38.6373 9.05398 38.471 9.15513C38.3047 9.25628 38.1693 9.40119 38.0798 9.57403L36.0238 15H33.9998L32.9998 17.878L34.7998 19.13L32.8778 23.548C32.7914 23.7611 32.7787 23.9969 32.8418 24.218L42.0698 15H42.0278Z" fill="#E7F3FE"/>
<path d="M15.0002 17.8801L13.2002 19.1321L15.1242 23.5501C15.2084 23.7524 15.2271 23.9761 15.1776 24.1896C15.128 24.4031 15.0128 24.5957 14.8481 24.7403C14.6834 24.8849 14.4776 24.9742 14.2594 24.9957C14.0413 25.0172 13.822 24.9697 13.6322 24.8601L9.00023 22.2461L4.34623 24.8601C4.15648 24.9697 3.93712 25.0172 3.71901 24.9957C3.5009 24.9742 3.29502 24.8849 3.13033 24.7403C2.96564 24.5957 2.85042 24.4031 2.8009 24.1896C2.75137 23.9761 2.77002 23.7524 2.85423 23.5501L4.77823 19.1321L1.30623 16.7121C1.15357 16.5782 1.04638 16.4001 0.999529 16.2025C0.95268 16.0049 0.968496 15.7976 1.04478 15.6094C1.12107 15.4212 1.25405 15.2615 1.42526 15.1523C1.59647 15.0431 1.79742 14.9899 2.00023 15.0001H6.00023L8.06023 9.57207C8.14976 9.39923 8.28506 9.25433 8.45137 9.15318C8.61767 9.05203 8.80858 8.99854 9.00323 8.99854C9.19788 8.99854 9.38878 9.05203 9.55509 9.15318C9.72139 9.25433 9.8567 9.39923 9.94623 9.57207L12.0002 15.0001H14.0002" fill="#A4D0F9"/>
<path d="M2.81821 23.98L11.9402 14.858L9.94021 9.57403C9.85068 9.40119 9.71537 9.25628 9.54907 9.15513C9.38276 9.05398 9.19186 9.00049 8.99721 9.00049C8.80256 9.00049 8.61166 9.05398 8.44535 9.15513C8.27905 9.25628 8.14374 9.40119 8.05421 9.57403L6.00021 15H2.00021C1.79887 14.9929 1.60021 15.0479 1.43128 15.1577C1.26236 15.2675 1.13138 15.4267 1.05618 15.6136C0.980979 15.8005 0.965212 16.0061 1.01103 16.2023C1.05684 16.3984 1.16201 16.5758 1.31221 16.71L4.78421 19.13L2.86021 23.548C2.81532 23.6873 2.80099 23.8347 2.81821 23.98Z" fill="#E7F3FE"/>
<path d="M24.9662 1.57403L27.0222 7.00003H31.0222C31.2237 6.99242 31.4227 7.04717 31.5919 7.15681C31.7612 7.26644 31.8925 7.42561 31.968 7.61262C32.0434 7.79963 32.0593 8.00536 32.0136 8.20176C31.9678 8.39815 31.8626 8.57564 31.7122 8.71003L28.2402 11.132L30.1642 15.55C30.2484 15.7524 30.2671 15.976 30.2175 16.1895C30.168 16.403 30.0528 16.5956 29.8881 16.7402C29.7234 16.8848 29.5175 16.9741 29.2994 16.9956C29.0813 17.0171 28.862 16.9697 28.6722 16.86L24.0242 14.246L19.3742 16.86C19.1845 16.9697 18.9651 17.0171 18.747 16.9956C18.5289 16.9741 18.323 16.8848 18.1583 16.7402C17.9936 16.5956 17.8784 16.403 17.8289 16.1895C17.7793 15.976 17.798 15.7524 17.8822 15.55L19.8002 11.132L16.3342 8.71203C16.182 8.57843 16.0751 8.4009 16.0281 8.20394C15.9812 8.00698 15.9965 7.80029 16.072 7.61241C16.1475 7.42453 16.2795 7.26471 16.4497 7.15502C16.6199 7.04533 16.8199 6.99118 17.0222 7.00003H21.0222L23.0802 1.57403C23.1697 1.40119 23.305 1.25628 23.4713 1.15513C23.6377 1.05398 23.8286 1.00049 24.0232 1.00049C24.2179 1.00049 24.4088 1.05398 24.5751 1.15513C24.7414 1.25628 24.8767 1.40119 24.9662 1.57403Z" fill="#A4D0F9"/>
<path d="M27.0222 7.00003L24.9662 1.57403C24.8767 1.40119 24.7413 1.25628 24.575 1.15513C24.4087 1.05398 24.2178 1.00049 24.0232 1.00049C23.8285 1.00049 23.6376 1.05398 23.4713 1.15513C23.305 1.25628 23.1697 1.40119 23.0802 1.57403L21.0222 7.00003H17.0222C16.8208 6.99286 16.6222 7.04792 16.4533 7.15772C16.2843 7.26751 16.1534 7.4267 16.0782 7.61361C16.003 7.80052 15.9872 8.00606 16.033 8.20226C16.0788 8.39845 16.184 8.57575 16.3342 8.71003L19.8002 11.13L17.8822 15.548C17.7952 15.7795 17.7952 16.0346 17.8822 16.266L27.1422 7.00003H27.0222Z" fill="#E7F3FE"/>
<path d="M24.9662 1.57403L27.0222 7.00003H31.0222C31.2237 6.99242 31.4227 7.04717 31.5919 7.15681C31.7612 7.26644 31.8925 7.42561 31.968 7.61262C32.0434 7.79963 32.0593 8.00536 32.0136 8.20176C31.9678 8.39815 31.8626 8.57564 31.7122 8.71003L28.2402 11.132L30.1642 15.55C30.2484 15.7524 30.2671 15.976 30.2175 16.1895C30.168 16.403 30.0528 16.5956 29.8881 16.7402C29.7234 16.8848 29.5175 16.9741 29.2994 16.9956C29.0813 17.0171 28.862 16.9697 28.6722 16.86L24.0242 14.246L19.3742 16.86C19.1845 16.9697 18.9651 17.0171 18.747 16.9956C18.5289 16.9741 18.323 16.8848 18.1583 16.7402C17.9936 16.5956 17.8784 16.403 17.8289 16.1895C17.7793 15.976 17.798 15.7524 17.8822 15.55L19.8002 11.132L16.3342 8.71203C16.182 8.57843 16.0751 8.4009 16.0281 8.20394C15.9812 8.00698 15.9965 7.80029 16.072 7.61241C16.1475 7.42453 16.2795 7.26471 16.4497 7.15502C16.6199 7.04533 16.8199 6.99118 17.0222 7.00003H21.0222L23.0802 1.57403C23.1697 1.40119 23.305 1.25628 23.4713 1.15513C23.6377 1.05398 23.8286 1.00049 24.0232 1.00049C24.2179 1.00049 24.4088 1.05398 24.5751 1.15513C24.7414 1.25628 24.8767 1.40119 24.9662 1.57403Z" fill="#D4E9FC" stroke="#02101D" stroke-linecap="round" stroke-linejoin="round"/>
<path d="M15.0002 17.8801L13.2002 19.1321L15.1242 23.5501C15.2084 23.7524 15.2271 23.9761 15.1776 24.1896C15.128 24.4031 15.0128 24.5957 14.8481 24.7403C14.6834 24.8849 14.4776 24.9742 14.2594 24.9957C14.0413 25.0172 13.822 24.9697 13.6322 24.8601L9.00023 22.2461L4.34623 24.8601C4.15648 24.9697 3.93712 25.0172 3.71901 24.9957C3.5009 24.9742 3.29502 24.8849 3.13033 24.7403C2.96564 24.5957 2.85042 24.4031 2.8009 24.1896C2.75137 23.9761 2.77002 23.7524 2.85423 23.5501L4.77823 19.1321L1.30623 16.7121C1.15357 16.5782 1.04638 16.4001 0.999529 16.2025C0.95268 16.0049 0.968496 15.7976 1.04478 15.6094C1.12107 15.4212 1.25405 15.2615 1.42526 15.1523C1.59647 15.0431 1.79742 14.9899 2.00023 15.0001H6.00023L8.06023 9.57207C8.14976 9.39923 8.28506 9.25433 8.45137 9.15318C8.61767 9.05203 8.80858 8.99854 9.00323 8.99854C9.19788 8.99854 9.38878 9.05203 9.55509 9.15318C9.72139 9.25433 9.8567 9.39923 9.94623 9.57207L12.0002 15.0001H14.0002" fill="#D4E9FC"/>
<path d="M15.0002 17.8801L13.2002 19.1321L15.1242 23.5501C15.2084 23.7524 15.2271 23.9761 15.1776 24.1896C15.128 24.4031 15.0128 24.5957 14.8481 24.7403C14.6834 24.8849 14.4776 24.9742 14.2594 24.9957C14.0413 25.0172 13.822 24.9697 13.6322 24.8601L9.00023 22.2461L4.34623 24.8601C4.15648 24.9697 3.93712 25.0172 3.71901 24.9957C3.5009 24.9742 3.29502 24.8849 3.13033 24.7403C2.96564 24.5957 2.85042 24.4031 2.8009 24.1896C2.75137 23.9761 2.77002 23.7524 2.85423 23.5501L4.77823 19.1321L1.30623 16.7121C1.15357 16.5782 1.04638 16.4001 0.999529 16.2025C0.95268 16.0049 0.968496 15.7976 1.04478 15.6094C1.12107 15.4212 1.25405 15.2615 1.42526 15.1523C1.59647 15.0431 1.79742 14.9899 2.00023 15.0001H6.00023L8.06023 9.57207C8.14976 9.39923 8.28506 9.25433 8.45137 9.15318C8.61767 9.05203 8.80858 8.99854 9.00323 8.99854C9.19788 8.99854 9.38878 9.05203 9.55509 9.15318C9.72139 9.25433 9.8567 9.39923 9.94623 9.57207L12.0002 15.0001H14.0002" stroke="#02101D" stroke-linecap="round" stroke-linejoin="round"/>
<path d="M32.9998 17.88L34.7998 19.132L32.8778 23.55C32.7936 23.7524 32.7749 23.976 32.8245 24.1895C32.874 24.403 32.9892 24.5956 33.1539 24.7402C33.3186 24.8848 33.5245 24.9741 33.7426 24.9956C33.9607 25.0171 34.1801 24.9697 34.3698 24.86L39.0178 22.246L43.6658 24.86C43.8556 24.9705 44.0752 25.0185 44.2938 24.9973C44.5123 24.9762 44.7187 24.887 44.8838 24.7422C45.0489 24.5974 45.1644 24.4045 45.2139 24.1906C45.2634 23.9767 45.2445 23.7526 45.1598 23.55L43.2358 19.132L46.7078 16.712C46.8592 16.5783 46.9654 16.4009 47.0119 16.2043C47.0584 16.0077 47.0429 15.8016 46.9675 15.6141C46.8921 15.4267 46.7605 15.2673 46.5908 15.1577C46.4211 15.0481 46.2216 14.9937 46.0198 15.002H42.0198L39.9658 9.57403C39.8763 9.40119 39.741 9.25628 39.5747 9.15513C39.4084 9.05398 39.2175 9.00049 39.0228 9.00049C38.8282 9.00049 38.6373 9.05398 38.4709 9.15513C38.3046 9.25628 38.1693 9.40119 38.0798 9.57403L36.0238 15H33.9998" fill="#D4E9FC"/>
<path d="M32.9998 17.88L34.7998 19.132L32.8778 23.55C32.7936 23.7524 32.7749 23.976 32.8245 24.1895C32.874 24.403 32.9892 24.5956 33.1539 24.7402C33.3186 24.8848 33.5245 24.9741 33.7426 24.9956C33.9607 25.0171 34.1801 24.9697 34.3698 24.86L39.0178 22.246L43.6658 24.86C43.8556 24.9705 44.0752 25.0185 44.2938 24.9973C44.5123 24.9762 44.7187 24.887 44.8838 24.7422C45.0489 24.5974 45.1644 24.4045 45.2139 24.1906C45.2634 23.9767 45.2445 23.7526 45.1598 23.55L43.2358 19.132L46.7078 16.712C46.8592 16.5783 46.9654 16.4009 47.0119 16.2043C47.0584 16.0077 47.0429 15.8016 46.9675 15.6141C46.8921 15.4267 46.7605 15.2673 46.5908 15.1577C46.4211 15.0481 46.2216 14.9937 46.0198 15.002H42.0198L39.9658 9.57403C39.8763 9.40119 39.741 9.25628 39.5747 9.15513C39.4084 9.05398 39.2175 9.00049 39.0228 9.00049C38.8282 9.00049 38.6373 9.05398 38.4709 9.15513C38.3046 9.25628 38.1693 9.40119 38.0798 9.57403L36.0238 15H33.9998" stroke="#02101D" stroke-linecap="round" stroke-linejoin="round"/>
</g>
<defs>
<clipPath id="clip0_38_2510">
<rect width="48" height="48" fill="white"/>
</clipPath>
</defs>
</svg>
