<svg width="48" height="48" viewBox="0 0 48 48" fill="none" xmlns="http://www.w3.org/2000/svg">
<path d="M9.56615 6C9.56615 4.67392 10.0929 3.40215 11.0306 2.46447C11.9683 1.52678 13.2401 1 14.5661 1H40.5661C39.2401 1 37.9683 1.52678 37.0306 2.46447C36.0929 3.40215 35.5661 4.67392 35.5661 6V39C35.5661 41.1217 34.7233 43.1566 33.223 44.6569C31.7227 46.1571 29.6879 47 27.5661 47H7.24215C7.0363 47.0041 6.8342 46.9446 6.66344 46.8296C6.49268 46.7145 6.3616 46.5496 6.28809 46.3573C6.21457 46.1649 6.20221 45.9546 6.25269 45.755C6.30318 45.5554 6.41404 45.3762 6.57015 45.242C7.50656 44.4934 8.26245 43.5436 8.78178 42.463C9.30111 41.3825 9.57056 40.1989 9.57015 39L9.56615 6Z" fill="#F2F2F2"/>
<path d="M35.5661 39C35.5661 41.1217 34.7233 43.1566 33.223 44.6569C31.7227 46.1571 29.6879 47 27.5661 47H7.24215C7.0363 47.0041 6.8342 46.9446 6.66344 46.8296C6.49268 46.7145 6.3616 46.5496 6.28809 46.3573C6.21457 46.1649 6.20221 45.9546 6.25269 45.755C6.30318 45.5554 6.41404 45.3762 6.57015 45.242C7.50656 44.4934 8.26245 43.5436 8.78178 42.463C9.30111 41.3825 9.57056 40.1989 9.57015 39H35.5661Z" fill="#D4E9FC"/>
<path d="M19.5661 1H40.5661C39.2401 1 37.9683 1.52678 37.0306 2.46447C36.0929 3.40215 35.5661 4.67392 35.5661 6V39C35.5661 41.1217 34.7233 43.1566 33.223 44.6569C31.7227 46.1571 29.6879 47 27.5661 47H7.24215C7.0363 47.0041 6.8342 46.9446 6.66344 46.8296C6.49268 46.7145 6.3616 46.5496 6.28809 46.3573C6.21457 46.1649 6.20221 45.9546 6.25269 45.755C6.30318 45.5554 6.41404 45.3762 6.57015 45.242C7.50656 44.4934 8.26245 43.5436 8.78178 42.463C9.30111 41.3825 9.57056 40.1989 9.57015 39V31" stroke="#02101D" stroke-linecap="round" stroke-linejoin="round"/>
<path d="M35.5659 6C35.5659 7.32608 36.0927 8.59785 37.0304 9.53553C37.9681 10.4732 39.2398 11 40.5659 11C41.892 11 43.1638 10.4732 44.1015 9.53553C45.0391 8.59785 45.5659 7.32608 45.5659 6C45.5659 4.67392 45.0391 3.40215 44.1015 2.46447C43.1638 1.52678 41.892 1 40.5659 1C39.2398 1 37.9681 1.52678 37.0304 2.46447C36.0927 3.40215 35.5659 4.67392 35.5659 6Z" fill="#D4E9FC" stroke="#02101D" stroke-linecap="round" stroke-linejoin="round"/>
<path d="M24.5301 10.554C24.6303 10.4034 24.6878 10.2285 24.6964 10.0478C24.7051 9.8671 24.6646 9.68746 24.5792 9.52799C24.4938 9.36852 24.3668 9.2352 24.2116 9.14222C24.0565 9.04924 23.879 9.00008 23.6981 8.99999H19.1201C18.9505 8.99999 18.7837 8.95685 18.6353 8.87463C18.487 8.79241 18.362 8.67381 18.2721 8.52999L14.4141 2.35599C14.3242 2.21216 14.1992 2.09356 14.0509 2.01134C13.9025 1.92912 13.7357 1.88599 13.5661 1.88599C13.3965 1.88599 13.2297 1.92912 13.0813 2.01134C12.933 2.09356 12.808 2.21216 12.7181 2.35599L8.8601 8.52999C8.77021 8.67381 8.64521 8.79241 8.49687 8.87463C8.34853 8.95685 8.18171 8.99999 8.0121 8.99999H3.4341C3.25322 9.00008 3.07574 9.04924 2.92059 9.14222C2.76543 9.2352 2.6384 9.36852 2.55302 9.52799C2.46764 9.68746 2.42712 9.8671 2.43576 10.0478C2.4444 10.2285 2.50189 10.4034 2.6021 10.554L5.2001 14.446C5.30932 14.6101 5.36758 14.8029 5.36758 15C5.36758 15.1971 5.30932 15.3899 5.2001 15.554L2.6001 19.446C2.49989 19.5966 2.4424 19.7715 2.43376 19.9522C2.42512 20.1329 2.46564 20.3125 2.55102 20.472C2.6364 20.6315 2.76343 20.7648 2.91859 20.8578C3.07374 20.9507 3.25122 20.9999 3.4321 21H8.0121C8.18171 21 8.34853 21.0431 8.49687 21.1253C8.64521 21.2076 8.77021 21.3262 8.8601 21.47L12.7181 27.644C12.808 27.7878 12.933 27.9064 13.0813 27.9886C13.2297 28.0709 13.3965 28.114 13.5661 28.114C13.7357 28.114 13.9025 28.0709 14.0509 27.9886C14.1992 27.9064 14.3242 27.7878 14.4141 27.644L18.2721 21.47C18.362 21.3262 18.487 21.2076 18.6353 21.1253C18.7837 21.0431 18.9505 21 19.1201 21H23.6981C23.879 20.9999 24.0565 20.9507 24.2116 20.8578C24.3668 20.7648 24.4938 20.6315 24.5792 20.472C24.6646 20.3125 24.7051 20.1329 24.6964 19.9522C24.6878 19.7715 24.6303 19.5966 24.5301 19.446L21.9301 15.554C21.8209 15.3899 21.7626 15.1971 21.7626 15C21.7626 14.8029 21.8209 14.6101 21.9301 14.446L24.5301 10.554Z" fill="#A4D0F9"/>
<path d="M13.5661 1.88599C13.3965 1.88599 13.2297 1.92912 13.0813 2.01134C12.933 2.09356 12.808 2.21216 12.7181 2.35599L8.8601 8.52999C8.77021 8.67381 8.64521 8.79241 8.49687 8.87463C8.34853 8.95685 8.18171 8.99999 8.0121 8.99999H3.4341C3.25322 9.00008 3.07574 9.04923 2.92059 9.14221C2.76543 9.23519 2.6384 9.36852 2.55302 9.52799C2.46764 9.68745 2.42712 9.86709 2.43576 10.0478C2.4444 10.2284 2.50189 10.4034 2.6021 10.554L5.2001 14.446C5.30932 14.6101 5.36758 14.8028 5.36758 15C5.36758 15.1971 5.30932 15.3899 5.2001 15.554L2.6001 19.446C2.49989 19.5966 2.4424 19.7715 2.43376 19.9522C2.42512 20.1329 2.46564 20.3125 2.55102 20.472C2.6364 20.6315 2.76343 20.7648 2.91859 20.8578C3.07374 20.9507 3.25122 20.9999 3.4321 21H8.0121C8.18171 21 8.34853 21.0431 8.49687 21.1253C8.64521 21.2076 8.77021 21.3262 8.8601 21.47L12.7181 27.644C12.808 27.7878 12.933 27.9064 13.0813 27.9886C13.2297 28.0709 13.3965 28.114 13.5661 28.114V1.88599Z" fill="#D4E9FC"/>
<path d="M24.5301 10.554C24.6303 10.4034 24.6878 10.2285 24.6964 10.0478C24.7051 9.8671 24.6646 9.68746 24.5792 9.52799C24.4938 9.36852 24.3668 9.2352 24.2116 9.14222C24.0565 9.04924 23.879 9.00008 23.6981 8.99999H19.1201C18.9505 8.99999 18.7837 8.95685 18.6353 8.87463C18.487 8.79241 18.362 8.67381 18.2721 8.52999L14.4141 2.35599C14.3242 2.21216 14.1992 2.09356 14.0509 2.01134C13.9025 1.92912 13.7357 1.88599 13.5661 1.88599C13.3965 1.88599 13.2297 1.92912 13.0813 2.01134C12.933 2.09356 12.808 2.21216 12.7181 2.35599L8.8601 8.52999C8.77021 8.67381 8.64521 8.79241 8.49687 8.87463C8.34853 8.95685 8.18171 8.99999 8.0121 8.99999H3.4341C3.25322 9.00008 3.07574 9.04924 2.92059 9.14222C2.76543 9.2352 2.6384 9.36852 2.55302 9.52799C2.46764 9.68746 2.42712 9.8671 2.43576 10.0478C2.4444 10.2285 2.50189 10.4034 2.6021 10.554L5.2001 14.446C5.30932 14.6101 5.36758 14.8029 5.36758 15C5.36758 15.1971 5.30932 15.3899 5.2001 15.554L2.6001 19.446C2.49989 19.5966 2.4424 19.7715 2.43376 19.9522C2.42512 20.1329 2.46564 20.3125 2.55102 20.472C2.6364 20.6315 2.76343 20.7648 2.91859 20.8578C3.07374 20.9507 3.25122 20.9999 3.4321 21H8.0121C8.18171 21 8.34853 21.0431 8.49687 21.1253C8.64521 21.2076 8.77021 21.3262 8.8601 21.47L12.7181 27.644C12.808 27.7878 12.933 27.9064 13.0813 27.9886C13.2297 28.0709 13.3965 28.114 13.5661 28.114C13.7357 28.114 13.9025 28.0709 14.0509 27.9886C14.1992 27.9064 14.3242 27.7878 14.4141 27.644L18.2721 21.47C18.362 21.3262 18.487 21.2076 18.6353 21.1253C18.7837 21.0431 18.9505 21 19.1201 21H23.6981C23.879 20.9999 24.0565 20.9507 24.2116 20.8578C24.3668 20.7648 24.4938 20.6315 24.5792 20.472C24.6646 20.3125 24.7051 20.1329 24.6964 19.9522C24.6878 19.7715 24.6303 19.5966 24.5301 19.446L21.9301 15.554C21.8209 15.3899 21.7626 15.1971 21.7626 15C21.7626 14.8029 21.8209 14.6101 21.9301 14.446L24.5301 10.554Z" fill="#A4D0F9" stroke="#02101D" stroke-linecap="round" stroke-linejoin="round"/>
<path d="M9.56592 15C9.56592 16.0609 9.98735 17.0783 10.7375 17.8284C11.4876 18.5786 12.5051 19 13.5659 19C14.6268 19 15.6442 18.5786 16.3943 17.8284C17.1445 17.0783 17.5659 16.0609 17.5659 15C17.5659 13.9391 17.1445 12.9217 16.3943 12.1716C15.6442 11.4214 14.6268 11 13.5659 11C12.5051 11 11.4876 11.4214 10.7375 12.1716C9.98735 12.9217 9.56592 13.9391 9.56592 15Z" fill="#A4D0F9"/>
<path d="M13.5659 19C12.5051 19 11.4876 18.5786 10.7375 17.8284C9.98735 17.0783 9.56592 16.0609 9.56592 15C9.56592 13.9391 9.98735 12.9217 10.7375 12.1716C11.4876 11.4214 12.5051 11 13.5659 11V19Z" fill="#D4E9FC"/>
<path d="M9.56592 15C9.56592 16.0609 9.98735 17.0783 10.7375 17.8284C11.4876 18.5786 12.5051 19 13.5659 19C14.6268 19 15.6442 18.5786 16.3943 17.8284C17.1445 17.0783 17.5659 16.0609 17.5659 15C17.5659 13.9391 17.1445 12.9217 16.3943 12.1716C15.6442 11.4214 14.6268 11 13.5659 11C12.5051 11 11.4876 11.4214 10.7375 12.1716C9.98735 12.9217 9.56592 13.9391 9.56592 15Z" stroke="#02101D" stroke-linecap="round" stroke-linejoin="round"/>
<path d="M18.5659 31H26.5659" stroke="#02101D" stroke-linecap="round" stroke-linejoin="round"/>
<path d="M15.5659 37H29.5659" stroke="#02101D" stroke-linecap="round" stroke-linejoin="round"/>
</svg>
