<svg version="1.1" id="Layer_1" xmlns="http://www.w3.org/2000/svg" xmlns:xlink="http://www.w3.org/1999/xlink" x="0px" y="0px" viewBox="0 0 1080 157.09" style="enable-background:new 0 0 1080 157.09;" xml:space="preserve">
  <style type="text/css">
    .st0{fill:#074074;}
    .st1{fill:#00B367;}
  </style>
  <g>
    <g>
      <path class="st0" d="M231.37,16.94h72.25l-5.38,20.1h-48.17l-7.13,26.6h34.28l-5.11,19.06h-34.28l-11.68,43.59h-24.08
        L231.37,16.94z"/>
      <path class="st0" d="M316.63,16.94h23.64l-29.3,109.35h-23.64L316.63,16.94z"/>
      <path class="st0" d="M336.13,86.99c8.2-30.59,34.35-41.08,50.61-41.08c16.25,0,34.02,8.13,24.44,43.89l-0.95,3.55h-52.16
        c-2.3,13,3.59,18.03,13.49,18.03c9.31,0,19.25-4.58,25.88-9.46l5.36,14.19c-11.26,7.83-23.71,11.82-37.45,11.82
        C344.81,127.92,327.97,117.43,336.13,86.99z M392.71,79.3c1.79-11.08-1.81-16.4-10.68-16.4c-7.39,0-15.05,4.88-19.91,16.4H392.71z
        "/>
      <path class="st0" d="M421.39,86.99c8.2-30.59,34.35-41.08,50.61-41.08s34.02,8.13,24.44,43.89l-0.95,3.55h-52.16
        c-2.3,13,3.59,18.03,13.49,18.03c9.31,0,19.25-4.58,25.88-9.46l5.36,14.19c-11.26,7.83-23.71,11.82-37.45,11.82
        C430.07,127.92,413.23,117.43,421.39,86.99z M477.97,79.3c1.79-11.08-1.81-16.4-10.68-16.4c-7.39,0-15.05,4.88-19.91,16.4H477.97z
        "/>
      <path class="st0" d="M512.69,104.13l10.53-39.31h-13.15l4.63-17.29h13.15l7.25-27.04h23.64l-7.25,27.04h20.24l-4.63,17.29h-20.24
        l-9.15,34.14c-2.26,8.42-0.6,11.08,7.96,11.08c2.66,0,6.29-0.29,8.07-0.89l-4.55,16.99c-1.89,0.44-10.81,1.18-15.98,1.18
        C509.88,127.33,508.73,118.91,512.69,104.13z"/>
    </g>
    <g>
      <polygon class="st0" points="625.47,29.71 678.07,29.71 681.73,16.03 614.36,16.03 584.89,126.02 584.61,127.09 599.37,127.09 
        612.91,76.55 651.63,76.55 655.21,63.18 616.5,63.18 		"/>
      <polygon class="st0" points="709.95,18.25 694.89,18.25 691.11,32.37 706.17,32.37 		"/>
      <polygon class="st0" points="666.02,127.09 680.49,127.09 701.85,47.36 687.38,47.36 		"/>
      <path class="st0" d="M797.88,17.11l0.29-1.07H783.7l-10.72,40.03c-4.65-6.5-12.29-10.32-20.81-10.32
        c-20.91,0-38.15,15.87-45,41.42c-3.84,14.34-2.98,25.7,2.51,32.84c4.15,5.41,10.85,8.27,19.36,8.27c12,0,21.27-5.8,27.61-10.87
        c-0.67,3.48-0.83,6.89-0.66,8.91l0.07,0.78h15.1l-0.18-1c-0.64-3.65,0.16-9.11,2.77-18.84L797.88,17.11z M751.04,58.23
        c7.65,0,13.66,3.63,18.37,11.11L760,104.48c-9.42,7.91-17.39,11.6-25.06,11.6c-5.3,0-9.46-1.77-12.03-5.13
        c-3.71-4.83-4.2-12.86-1.43-23.21C726.58,68.71,737.08,58.23,751.04,58.23z"/>
      <path class="st0" d="M841.26,45.74c-17.32,0-39.43,12.91-47.03,41.27c-3.61,13.47-2.46,24.56,3.3,32.08
        c4.77,6.21,12.56,9.63,21.95,9.63c13.82,0,25.87-5.5,36.81-16.81l0.54-0.56l-6.76-7.79l-0.65,0.65
        c-7.44,7.48-14.76,12.46-26.3,12.46c-5.73,0-10.27-1.93-13.14-5.57c-3.53-4.49-4.37-11.31-2.44-19.76h55.09l0.88-3.29
        c3.99-14.9,3.15-26.62-2.44-33.9C856.89,48.64,850.03,45.74,841.26,45.74z M838.26,58.08c4.97,0,8.7,1.46,11.08,4.35
        c3.01,3.65,3.87,9.62,2.5,17.3h-40.75C817.55,63.79,829.29,58.08,838.26,58.08z"/>
      <polygon class="st0" points="913.27,16.03 898.8,16.03 869.33,126.02 869.05,127.09 883.52,127.09 912.99,17.11 		"/>
      <polygon class="st0" points="904.66,127.09 919.13,127.09 940.49,47.36 926.02,47.36 		"/>
      <polygon class="st0" points="929.74,32.37 944.8,32.37 948.59,18.25 933.53,18.25 		"/>
      <path class="st0" d="M979.56,127.12l3.33-12.43l-1.42,0.38c-2.31,0.61-5.46,1.01-8.04,1.01c-4.04,0-6.6-0.78-7.83-2.38
        c-1.29-1.67-1.33-4.52-0.14-8.96l12.11-45.18h20.24l3.27-12.2h-20.24l7.44-27.78h-14.47l-7.44,27.78h-13.59l-3.27,12.2h13.59
        l-12.74,47.55c-2,7.46-1.73,12.49,0.84,15.84c2.71,3.53,7.91,5.18,16.36,5.18c4.16,0,9.2-0.47,11.48-0.9L979.56,127.12z"/>
      <path class="st0" d="M1065.1,47.36l-38.98,61.79l-5.87-61.79h-15.18l9.19,79.11l-4.84,7.42c-5.24,7.8-9.9,10.71-17.19,10.71
        c-5.31,0-8.87-0.7-10.93-1.3l-0.65-0.19l-6.52,11.69l0.98,0.32c2.76,0.91,6.89,1.96,14.38,1.96c15.79,0,24.05-7.89,32.97-21.52
        L1080,47.36H1065.1z"/>
    </g>
    <polygon class="st0" points="103.06,37.76 113.18,0 77.4,0 75.42,0 39.64,0 0,147.93 37.76,147.93 47.46,111.72 83.24,111.72 
      93.36,73.97 57.58,73.97 67.28,37.76 	"/>
    <polygon class="st1" points="148.96,0 139.26,36.21 103.48,36.21 93.36,73.97 129.14,73.97 119.44,110.18 83.66,110.18 
      73.54,147.93 109.32,147.93 111.3,147.93 147.08,147.93 186.72,0 	"/>
  </g>
</svg>
