<svg width="112" height="112" viewBox="0 0 112 112" fill="none" xmlns="http://www.w3.org/2000/svg">
<path d="M4.66675 108.5C4.66675 104.787 6.14174 101.226 8.76725 98.6005C11.3928 95.975 14.9537 94.5 18.6667 94.5C22.3798 94.5 25.9407 95.975 28.5662 98.6005C31.1918 101.226 32.6667 104.787 32.6667 108.5H4.66675Z" fill="#00EB89" stroke="#00140C" stroke-width="2" stroke-linecap="round" stroke-linejoin="round"/>
<path d="M42 108.5C42 104.787 43.475 101.226 46.1005 98.6005C48.726 95.975 52.287 94.5 56 94.5C59.713 94.5 63.274 95.975 65.8995 98.6005C68.525 101.226 70 104.787 70 108.5H42Z" fill="#00EB89" stroke="#00140C" stroke-width="2" stroke-linecap="round" stroke-linejoin="round"/>
<path d="M79.3333 108.5C79.3333 104.787 80.8082 101.226 83.4338 98.6005C86.0593 95.975 89.6202 94.5 93.3333 94.5C97.0463 94.5 100.607 95.975 103.233 98.6005C105.858 101.226 107.333 104.787 107.333 108.5H79.3333Z" fill="#00EB89" stroke="#00140C" stroke-width="2" stroke-linecap="round" stroke-linejoin="round"/>
<path d="M18.6666 87.4999C20.5125 87.4999 22.317 86.9525 23.8519 85.927C25.3868 84.9014 26.583 83.4438 27.2895 81.7383C27.9959 80.0329 28.1807 78.1562 27.8206 76.3457C27.4605 74.5353 26.5715 72.8722 25.2662 71.5669C23.961 70.2616 22.2979 69.3727 20.4874 69.0126C18.6769 68.6525 16.8003 68.8373 15.0949 69.5437C13.3894 70.2501 11.9318 71.4464 10.9062 72.9813C9.88064 74.5161 9.33325 76.3206 9.33325 78.1666C9.33325 80.6419 10.3166 83.0159 12.0669 84.7663C13.8173 86.5166 16.1912 87.4999 18.6666 87.4999Z" fill="#8FFFD0" stroke="#00140C" stroke-width="2" stroke-linecap="round" stroke-linejoin="round"/>
<path d="M56.0001 87.4999C57.846 87.4999 59.6505 86.9525 61.1854 85.927C62.7203 84.9014 63.9165 83.4438 64.623 81.7383C65.3294 80.0329 65.5142 78.1562 65.1541 76.3457C64.794 74.5353 63.905 72.8722 62.5997 71.5669C61.2945 70.2616 59.6314 69.3727 57.8209 69.0126C56.0104 68.6525 54.1338 68.8373 52.4284 69.5437C50.7229 70.2501 49.2653 71.4464 48.2397 72.9813C47.2141 74.5161 46.6667 76.3206 46.6667 78.1666C46.6667 80.6419 47.6501 83.0159 49.4004 84.7663C51.1508 86.5166 53.5247 87.4999 56.0001 87.4999Z" fill="#8FFFD0" stroke="#00140C" stroke-width="2" stroke-linecap="round" stroke-linejoin="round"/>
<path d="M93.3333 87.4999C95.1793 87.4999 96.9838 86.9525 98.5187 85.927C100.054 84.9014 101.25 83.4438 101.956 81.7383C102.663 80.0329 102.847 78.1562 102.487 76.3457C102.127 74.5353 101.238 72.8722 99.933 71.5669C98.6277 70.2616 96.9647 69.3727 95.1542 69.0126C93.3437 68.6525 91.4671 68.8373 89.7616 69.5437C88.0562 70.2501 86.5985 71.4464 85.573 72.9813C84.5474 74.5161 84 76.3206 84 78.1666C84 80.6419 84.9833 83.0159 86.7337 84.7663C88.484 86.5166 90.858 87.4999 93.3333 87.4999Z" fill="#8FFFD0" stroke="#00140C" stroke-width="2" stroke-linecap="round" stroke-linejoin="round"/>
<path d="M65.3334 10.5H51.3334C48.2581 10.5 46.6667 11.4007 46.6667 15.1667C46.6667 21.266 65.3334 27.734 65.3334 33.8333C65.43 34.4684 65.3759 35.1172 65.1755 35.7274C64.9751 36.3377 64.6341 36.8923 64.1799 37.3465C63.7257 37.8007 63.1711 38.1417 62.5608 38.3421C61.9506 38.5425 61.3018 38.5966 60.6667 38.5H46.6667" stroke="#00140C" stroke-width="2" stroke-linecap="round" stroke-linejoin="round"/>
<path d="M56 10.5V3.5" stroke="#00140C" stroke-width="2" stroke-linecap="round" stroke-linejoin="round"/>
<path d="M56 45.5V38.5" stroke="#00140C" stroke-width="2" stroke-linecap="round" stroke-linejoin="round"/>
<path d="M18.6667 61.8334V57.1667H93.3334V61.8334" stroke="#00140C" stroke-width="2" stroke-linecap="round" stroke-linejoin="round"/>
<path d="M56 57.1667V61.8334" stroke="#00140C" stroke-width="2" stroke-linecap="round" stroke-linejoin="round"/>
</svg>
