<svg width="48" height="48" viewBox="0 0 48 48" fill="none" xmlns="http://www.w3.org/2000/svg">
<g clip-path="url(#clip0_39_3993)">
<path d="M24 3C19.8466 3 15.7865 4.23163 12.333 6.53914C8.8796 8.84665 6.18798 12.1264 4.59854 15.9636C3.0091 19.8009 2.59323 24.0233 3.40352 28.0969C4.21381 32.1705 6.21386 35.9123 9.15077 38.8492C12.0877 41.7861 15.8295 43.7862 19.9031 44.5965C23.9767 45.4068 28.1991 44.9909 32.0364 43.4015C35.8736 41.812 39.1534 39.1204 41.4609 35.667C43.7684 32.2135 45 28.1534 45 24C45 18.4305 42.7875 13.089 38.8493 9.15076C34.911 5.21249 29.5696 3 24 3ZM24 34C22.0222 34 20.0888 33.4135 18.4443 32.3147C16.7998 31.2159 15.5181 29.6541 14.7612 27.8268C14.0043 25.9996 13.8063 23.9889 14.1922 22.0491C14.578 20.1093 15.5304 18.3275 16.9289 16.9289C18.3275 15.5304 20.1093 14.578 22.0491 14.1921C23.9889 13.8063 25.9996 14.0043 27.8268 14.7612C29.6541 15.5181 31.2159 16.7998 32.3147 18.4443C33.4135 20.0888 34 22.0222 34 24C34 26.6522 32.9464 29.1957 31.0711 31.0711C29.1957 32.9464 26.6522 34 24 34Z" fill="#00EB89"/>
<path d="M6.52591 19.5681C8.85421 16.0743 12.1763 13.3586 16.0634 11.7716C19.9504 10.1846 24.2239 9.79924 28.3322 10.6652C32.4404 11.5311 36.1948 13.6086 39.1106 16.6294C42.0265 19.6503 43.9698 23.4758 44.6899 27.6121C45.2159 24.595 45.0756 21.4994 44.2789 18.5423C43.4822 15.5852 42.0483 12.8381 40.0778 10.4937C38.1073 8.14921 35.6479 6.26412 32.8719 4.97056C30.0959 3.677 27.0706 3.00626 24.008 3.00537C20.9455 3.00448 17.9198 3.67347 15.143 4.96542C12.3663 6.25737 9.90579 8.14103 7.93392 10.4843C5.96206 12.8276 4.5266 15.5739 3.72817 18.5306C2.92974 21.4872 2.78767 24.5827 3.31191 27.6001C3.81122 24.7279 4.90602 21.9919 6.52591 19.5681Z" fill="#8FFFD0"/>
<path d="M27 14.458V3C27 2.46957 26.7893 1.96086 26.4142 1.58579C26.0391 1.21071 25.5304 1 25 1H23C22.4696 1 21.9609 1.21071 21.5858 1.58579C21.2107 1.96086 21 2.46957 21 3V14.458" fill="white"/>
<path d="M27 14.458V3C27 2.46957 26.7893 1.96086 26.4142 1.58579C26.0391 1.21071 25.5304 1 25 1H23C22.4696 1 21.9609 1.21071 21.5858 1.58579C21.2107 1.96086 21 2.46957 21 3V14.458" stroke="#00140C" stroke-linecap="round" stroke-linejoin="round"/>
<path d="M21 33.542V45C21 45.5304 21.2107 46.0391 21.5858 46.4142C21.9609 46.7893 22.4696 47 23 47H25C25.5304 47 26.0391 46.7893 26.4142 46.4142C26.7893 46.0391 27 45.5304 27 45V33.542" fill="white"/>
<path d="M21 33.542V45C21 45.5304 21.2107 46.0391 21.5858 46.4142C21.9609 46.7893 22.4696 47 23 47H25C25.5304 47 26.0391 46.7893 26.4142 46.4142C26.7893 46.0391 27 45.5304 27 45V33.542" stroke="#00140C" stroke-linecap="round" stroke-linejoin="round"/>
<path d="M14.458 21H3C2.46957 21 1.96086 21.2107 1.58579 21.5858C1.21071 21.9609 1 22.4696 1 23V25C1 25.5304 1.21071 26.0391 1.58579 26.4142C1.96086 26.7893 2.46957 27 3 27H14.458" fill="white"/>
<path d="M14.458 21H3C2.46957 21 1.96086 21.2107 1.58579 21.5858C1.21071 21.9609 1 22.4696 1 23V25C1 25.5304 1.21071 26.0391 1.58579 26.4142C1.96086 26.7893 2.46957 27 3 27H14.458" stroke="#00140C" stroke-linecap="round" stroke-linejoin="round"/>
<path d="M33.542 27H45C45.5304 27 46.0391 26.7893 46.4142 26.4142C46.7893 26.0391 47 25.5304 47 25V23C47 22.4696 46.7893 21.9609 46.4142 21.5858C46.0391 21.2107 45.5304 21 45 21H33.542" fill="white"/>
<path d="M33.542 27H45C45.5304 27 46.0391 26.7893 46.4142 26.4142C46.7893 26.0391 47 25.5304 47 25V23C47 22.4696 46.7893 21.9609 46.4142 21.5858C46.0391 21.2107 45.5304 21 45 21H33.542" stroke="#00140C" stroke-linecap="round" stroke-linejoin="round"/>
<path d="M14 24C14 26.6522 15.0536 29.1957 16.9289 31.0711C18.8043 32.9464 21.3478 34 24 34C26.6522 34 29.1957 32.9464 31.0711 31.0711C32.9464 29.1957 34 26.6522 34 24C34 21.3478 32.9464 18.8043 31.0711 16.9289C29.1957 15.0536 26.6522 14 24 14C21.3478 14 18.8043 15.0536 16.9289 16.9289C15.0536 18.8043 14 21.3478 14 24Z" stroke="#00140C" stroke-linecap="round" stroke-linejoin="round"/>
<path d="M27 3.21387C31.4864 3.86344 35.6425 5.9464 38.848 9.15187C42.0535 12.3573 44.1364 16.5134 44.786 20.9999" stroke="#00140C" stroke-linecap="round" stroke-linejoin="round"/>
<path d="M3.20996 20.9999C3.86059 16.5115 5.94569 12.3541 9.15386 9.14844C12.362 5.9428 16.5211 3.86097 21.01 3.21387" stroke="#00140C" stroke-linecap="round" stroke-linejoin="round"/>
<path d="M21 44.788C16.5124 44.1394 12.355 42.0566 9.14866 38.8506C5.94231 35.6447 3.85904 31.4875 3.20996 27" stroke="#00140C" stroke-linecap="round" stroke-linejoin="round"/>
<path d="M44.786 27C44.139 31.4877 42.0569 35.6454 38.851 38.8517C35.6451 42.0579 31.4876 44.1405 27 44.788" stroke="#00140C" stroke-linecap="round" stroke-linejoin="round"/>
</g>
<defs>
<clipPath id="clip0_39_3993">
<rect width="48" height="48" fill="white"/>
</clipPath>
</defs>
</svg>
