<svg width="112" height="112" viewBox="0 0 112 112" fill="none" xmlns="http://www.w3.org/2000/svg">
<path d="M72.3333 86.3333V79.3333C72.3333 78.7145 72.5791 78.121 73.0167 77.6834C73.4543 77.2458 74.0477 77 74.6666 77H107.333C107.952 77 108.546 77.2458 108.983 77.6834C109.421 78.121 109.667 78.7145 109.667 79.3333V98C109.667 98.6188 109.421 99.2123 108.983 99.6499C108.546 100.088 107.952 100.333 107.333 100.333H100.333" fill="#00EB89"/>
<path d="M72.3333 86.3333V79.3333C72.3333 78.7145 72.5791 78.121 73.0167 77.6834C73.4543 77.2458 74.0477 77 74.6666 77H107.333C107.952 77 108.546 77.2458 108.983 77.6834C109.421 78.121 109.667 78.7145 109.667 79.3333V98C109.667 98.6188 109.421 99.2123 108.983 99.6499C108.546 100.088 107.952 100.333 107.333 100.333H100.333" stroke="#00140C" stroke-width="2" stroke-linecap="round" stroke-linejoin="round"/>
<path d="M7 53.6667H44.3333" stroke="#00140C" stroke-linecap="round" stroke-linejoin="round"/>
<path d="M63 88.6666C63 88.0477 63.2458 87.4543 63.6834 87.0167C64.121 86.5791 64.7145 86.3333 65.3333 86.3333H98C98.6188 86.3333 99.2123 86.5791 99.6499 87.0167C100.088 87.4543 100.333 88.0477 100.333 88.6666V107.333C100.333 107.952 100.088 108.546 99.6499 108.983C99.2123 109.421 98.6188 109.667 98 109.667H65.3333C64.7145 109.667 64.121 109.421 63.6834 108.983C63.2458 108.546 63 107.952 63 107.333V88.6666Z" fill="#8FFFD0"/>
<path d="M65.3333 109.667C64.7145 109.667 64.121 109.421 63.6834 108.983C63.2458 108.546 63 107.952 63 107.333V88.6666C63 88.0477 63.2458 87.4543 63.6834 87.0167C64.121 86.5791 64.7145 86.3333 65.3333 86.3333H98C98.6188 86.3333 99.2123 86.5791 99.6499 87.0167C100.088 87.4543 100.333 88.0477 100.333 88.6666L65.3333 109.667Z" fill="#00EB89"/>
<path d="M63 88.6666C63 88.0477 63.2458 87.4543 63.6834 87.0167C64.121 86.5791 64.7145 86.3333 65.3333 86.3333H98C98.6188 86.3333 99.2123 86.5791 99.6499 87.0167C100.088 87.4543 100.333 88.0477 100.333 88.6666V107.333C100.333 107.952 100.088 108.546 99.6499 108.983C99.2123 109.421 98.6188 109.667 98 109.667H65.3333C64.7145 109.667 64.121 109.421 63.6834 108.983C63.2458 108.546 63 107.952 63 107.333V88.6666Z" stroke="#00140C" stroke-width="2" stroke-linecap="round" stroke-linejoin="round"/>
<path d="M81.6667 96.8333C81.8974 96.8333 82.123 96.9017 82.3148 97.0299C82.5067 97.1581 82.6562 97.3403 82.7445 97.5535C82.8328 97.7666 82.8559 98.0012 82.8109 98.2275C82.7659 98.4538 82.6548 98.6617 82.4916 98.8249C82.3285 98.988 82.1206 99.0991 81.8943 99.1442C81.668 99.1892 81.4334 99.1661 81.2202 99.0778C81.007 98.9895 80.8248 98.8399 80.6966 98.6481C80.5684 98.4562 80.5 98.2307 80.5 97.9999C80.5 97.6905 80.6229 97.3938 80.8417 97.175C81.0605 96.9562 81.3572 96.8333 81.6667 96.8333Z" fill="#00140C"/>
<path d="M56 37.3333L69.0667 24.2993C69.9418 23.4244 71.1286 22.9329 72.366 22.9329C73.6034 22.9329 74.7902 23.4244 75.6653 24.2993L78.4 27.0339C79.2751 27.9088 80.4619 28.4003 81.6993 28.4003C82.9368 28.4003 84.1235 27.9088 84.9987 27.0339L109.667 2.33325" stroke="#00140C" stroke-width="2" stroke-linecap="round" stroke-linejoin="round"/>
<path d="M91 2.33325H109.667V20.9999" stroke="#00140C" stroke-width="2" stroke-linecap="round" stroke-linejoin="round"/>
<path d="M27.9999 109.667C34.8071 109.667 41.3356 106.963 46.149 102.149C50.9624 97.3357 53.6666 90.8072 53.6666 84C53.6666 69.8227 37.3333 53.6667 37.3333 53.6667L46.4333 40.6933C46.8824 40.0514 47.11 39.2806 47.0817 38.4977C47.0533 37.7148 46.7706 36.9625 46.2762 36.3548C45.7819 35.747 45.103 35.3169 44.3422 35.1297C43.5815 34.9425 42.7805 35.0084 42.0606 35.3173C40.6705 35.9117 39.1343 36.0764 37.6497 35.7903C36.1652 35.5042 34.8003 34.7804 33.7306 33.712L32.4659 32.4473C31.8821 31.8629 31.1888 31.3993 30.4257 31.0829C29.6626 30.7666 28.8447 30.6038 28.0186 30.6038C27.1925 30.6038 26.3745 30.7666 25.6114 31.0829C24.8483 31.3993 24.1551 31.8629 23.5713 32.4473L22.3066 33.712C21.2385 34.7752 19.8777 35.4957 18.3981 35.7817C16.9185 36.0676 15.3872 35.906 13.9999 35.3173C13.2785 34.9954 12.4712 34.9196 11.7025 35.1015C10.9337 35.2833 10.246 35.7129 9.74532 36.3239C9.2446 36.9349 8.95861 37.6936 8.93138 38.4831C8.90414 39.2727 9.13717 40.0493 9.59458 40.6933L18.6666 53.6667C18.6666 53.6667 2.33325 69.8227 2.33325 84C2.33325 90.8072 5.03741 97.3357 9.85084 102.149C14.6643 106.963 21.1927 109.667 27.9999 109.667Z" fill="#8FFFD0"/>
<path d="M27.9999 91.0001C22.8859 91.0011 17.8881 89.4745 13.6476 86.6159C9.40711 83.7573 6.11723 79.6971 4.19992 74.9561C2.62696 78.8519 2.03443 83.0744 2.47434 87.2527C2.91426 91.4311 4.37317 95.4376 6.723 98.9204C9.07283 102.403 12.2417 105.256 15.9515 107.228C19.6613 109.201 23.7985 110.232 27.9999 110.232C32.2014 110.232 36.3386 109.201 40.0484 107.228C43.7581 105.256 46.927 102.403 49.2769 98.9204C51.6267 95.4376 53.0856 91.4311 53.5255 87.2527C53.9654 83.0744 53.3729 78.8519 51.7999 74.9561C49.8826 79.6971 46.5927 83.7573 42.3522 86.6159C38.1117 89.4745 33.114 91.0011 27.9999 91.0001Z" fill="#00EB89"/>
<path d="M27.9999 109.667C34.8071 109.667 41.3356 106.963 46.149 102.149C50.9624 97.3357 53.6666 90.8072 53.6666 84C53.6666 69.8227 37.3333 53.6667 37.3333 53.6667L46.4332 40.6933C46.8824 40.0514 47.11 39.2806 47.0817 38.4977C47.0533 37.7148 46.7706 36.9625 46.2762 36.3548C45.7819 35.747 45.103 35.3169 44.3422 35.1297C43.5815 34.9425 42.7805 35.0084 42.0606 35.3173C40.6705 35.9117 39.1343 36.0764 37.6497 35.7903C36.1652 35.5042 34.8003 34.7804 33.7306 33.712L32.4659 32.4473C31.8821 31.8629 31.1888 31.3993 30.4257 31.0829C29.6626 30.7666 28.8447 30.6038 28.0186 30.6038C27.1925 30.6038 26.3745 30.7666 25.6114 31.0829C24.8483 31.3993 24.1551 31.8629 23.5713 32.4473L22.3066 33.712C21.2385 34.7752 19.8777 35.4957 18.3981 35.7817C16.9185 36.0676 15.3872 35.906 13.9999 35.3173C13.2785 34.9954 12.4712 34.9196 11.7025 35.1015C10.9337 35.2833 10.246 35.7129 9.74532 36.3239C9.2446 36.9349 8.95861 37.6936 8.93138 38.4831C8.90414 39.2727 9.13717 40.0493 9.59459 40.6933L18.6666 53.6667C18.6666 53.6667 2.33325 69.8227 2.33325 84C2.33325 90.8072 5.03741 97.3357 9.85084 102.149C14.6643 106.963 21.1927 109.667 27.9999 109.667Z" stroke="#00140C" stroke-width="2" stroke-linecap="round" stroke-linejoin="round"/>
<path d="M7 53.6667H49" stroke="#00140C" stroke-width="2" stroke-linecap="round" stroke-linejoin="round"/>
<path d="M28 91V95.6667" stroke="#00140C" stroke-width="2" stroke-linecap="round" stroke-linejoin="round"/>
<path d="M28 67.6667V72.3334" stroke="#00140C" stroke-width="2" stroke-linecap="round" stroke-linejoin="round"/>
<path d="M18.6667 90.9999H32.6667C33.9044 90.9999 35.0914 90.5083 35.9666 89.6331C36.8417 88.7579 37.3334 87.5709 37.3334 86.3333C37.3334 85.0956 36.8417 83.9086 35.9666 83.0334C35.0914 82.1582 33.9044 81.6666 32.6667 81.6666H23.3334C22.0957 81.6666 20.9088 81.1749 20.0336 80.2998C19.1584 79.4246 18.6667 78.2376 18.6667 76.9999C18.6667 75.7622 19.1584 74.5753 20.0336 73.7001C20.9088 72.8249 22.0957 72.3333 23.3334 72.3333H37.3334" stroke="#00140C" stroke-width="2" stroke-linecap="round" stroke-linejoin="round"/>
</svg>
