<svg width="48" height="48" viewBox="0 0 48 48" fill="none" xmlns="http://www.w3.org/2000/svg">
<g clip-path="url(#clip0_32_1295)">
<path d="M35 26C35 24.6739 34.4732 23.4021 33.5355 22.4645C32.5979 21.5268 31.3261 21 30 21H6C4.67392 21 3.40215 21.5268 2.46447 22.4645C1.52678 23.4021 1 24.6739 1 26C1 27.3261 1.52678 28.5979 2.46447 29.5355C3.40215 30.4732 4.67392 31 6 31H30C31.3261 31 32.5979 30.4732 33.5355 29.5355C34.4732 28.5979 35 27.3261 35 26Z" fill="#A4D0F9"/>
<path d="M35 26C35 24.6739 34.4732 23.4021 33.5355 22.4645C32.5979 21.5268 31.3261 21 30 21H6C5.34339 21 4.69321 21.1293 4.08658 21.3806C3.47995 21.6319 2.92876 22.0002 2.46447 22.4645C1.52678 23.4021 1 24.6739 1 26H35Z" fill="#F2F2F2"/>
<path d="M35 16C35 14.6739 34.4732 13.4021 33.5355 12.4645C32.5979 11.5268 31.3261 11 30 11H6C4.67392 11 3.40215 11.5268 2.46447 12.4645C1.52678 13.4021 1 14.6739 1 16C1 17.3261 1.52678 18.5979 2.46447 19.5355C3.40215 20.4732 4.67392 21 6 21H30C31.3261 21 32.5979 20.4732 33.5355 19.5355C34.4732 18.5979 35 17.3261 35 16Z" fill="#A4D0F9"/>
<path d="M35 16C35 14.6739 34.4732 13.4021 33.5355 12.4645C32.5979 11.5268 31.3261 11 30 11H6C5.34339 11 4.69321 11.1293 4.08658 11.3806C3.47995 11.6319 2.92876 12.0002 2.46447 12.4645C1.52678 13.4021 1 14.6739 1 16H35Z" fill="#F2F2F2"/>
<path d="M35 6C35 5.34339 34.8707 4.69321 34.6194 4.08658C34.3681 3.47995 33.9998 2.92876 33.5355 2.46447C33.0712 2.00017 32.52 1.63188 31.9134 1.3806C31.3068 1.12933 30.6566 1 30 1H6C4.67392 1 3.40215 1.52678 2.46447 2.46447C1.52678 3.40215 1 4.67392 1 6C1 7.32608 1.52678 8.59785 2.46447 9.53553C3.40215 10.4732 4.67392 11 6 11H30C31.3261 11 32.5979 10.4732 33.5355 9.53553C34.4732 8.59785 35 7.32608 35 6Z" fill="#A4D0F9"/>
<path d="M35 6C35 5.34339 34.8707 4.69321 34.6194 4.08658C34.3681 3.47995 33.9998 2.92876 33.5355 2.46447C33.0712 2.00017 32.52 1.63188 31.9134 1.3806C31.3068 1.12933 30.6566 1 30 1H6C5.34339 1 4.69321 1.12933 4.08658 1.3806C3.47995 1.63188 2.92876 2.00017 2.46447 2.46447C1.52678 3.40215 1 4.67392 1 6H35Z" fill="#F2F2F2"/>
<path d="M23 35C23 38.1826 24.2643 41.2348 26.5147 43.4853C28.7652 45.7357 31.8174 47 35 47C38.1826 47 41.2348 45.7357 43.4853 43.4853C45.7357 41.2348 47 38.1826 47 35C47 31.8174 45.7357 28.7652 43.4853 26.5147C41.2348 24.2643 38.1826 23 35 23C31.8174 23 28.7652 24.2643 26.5147 26.5147C24.2643 28.7652 23 31.8174 23 35Z" fill="#A4D0F9"/>
<path d="M43.486 26.514C41.2354 24.2634 38.1829 22.999 35 22.999C31.8172 22.999 28.7647 24.2634 26.514 26.514C24.2634 28.7647 22.999 31.8172 22.999 35C22.999 38.1829 24.2634 41.2354 26.514 43.486L43.486 26.514Z" fill="#D4E9FC"/>
<path d="M23 35C23 38.1826 24.2643 41.2348 26.5147 43.4853C28.7652 45.7357 31.8174 47 35 47C38.1826 47 41.2348 45.7357 43.4853 43.4853C45.7357 41.2348 47 38.1826 47 35C47 31.8174 45.7357 28.7652 43.4853 26.5147C41.2348 24.2643 38.1826 23 35 23C31.8174 23 28.7652 24.2643 26.5147 26.5147C24.2643 28.7652 23 31.8174 23 35Z" stroke="#02101D" stroke-linecap="round" stroke-linejoin="round"/>
<path d="M40.3481 31.5122L34.5381 39.2602C34.4091 39.432 34.2447 39.574 34.056 39.6768C33.8674 39.7795 33.6589 39.8405 33.4446 39.8557C33.2303 39.8709 33.0153 39.8398 32.814 39.7647C32.6128 39.6896 32.43 39.5721 32.2781 39.4202L29.2781 36.4202" stroke="#02101D" stroke-linecap="round" stroke-linejoin="round"/>
<path d="M11 41H17" stroke="#02101D" stroke-linecap="round" stroke-linejoin="round"/>
<path d="M17.002 31V41" stroke="#02101D" stroke-linecap="round" stroke-linejoin="round"/>
<path d="M6.5 40C6.40111 40 6.30444 40.0293 6.22221 40.0843C6.13999 40.1392 6.0759 40.2173 6.03806 40.3087C6.00022 40.4 5.99031 40.5006 6.00961 40.5975C6.0289 40.6945 6.07652 40.7836 6.14645 40.8536C6.21637 40.9235 6.30546 40.9711 6.40246 40.9904C6.49945 41.0097 6.59998 40.9998 6.69134 40.9619C6.78271 40.9241 6.86079 40.86 6.91574 40.7778C6.97068 40.6956 7 40.5989 7 40.5C7 40.3674 6.94732 40.2402 6.85355 40.1464C6.75979 40.0527 6.63261 40 6.5 40Z" stroke="#02101D" stroke-linecap="round" stroke-linejoin="round"/>
<path d="M1.5 40C1.40111 40 1.30444 40.0293 1.22222 40.0843C1.13999 40.1392 1.0759 40.2173 1.03806 40.3087C1.00022 40.4 0.990315 40.5006 1.00961 40.5975C1.0289 40.6945 1.07652 40.7836 1.14645 40.8536C1.21637 40.9235 1.30546 40.9711 1.40246 40.9904C1.49945 41.0097 1.59998 40.9998 1.69134 40.9619C1.78271 40.9241 1.86079 40.86 1.91574 40.7778C1.97068 40.6956 2 40.5989 2 40.5C2 40.3674 1.94732 40.2402 1.85355 40.1464C1.75979 40.0527 1.63261 40 1.5 40Z" stroke="#02101D" stroke-linecap="round" stroke-linejoin="round"/>
<path d="M8.5 25.5C8.40111 25.5 8.30444 25.5293 8.22221 25.5843C8.13999 25.6392 8.0759 25.7173 8.03806 25.8087C8.00022 25.9 7.99031 26.0006 8.00961 26.0975C8.0289 26.1945 8.07652 26.2836 8.14645 26.3536C8.21637 26.4235 8.30546 26.4711 8.40245 26.4904C8.49945 26.5097 8.59998 26.4998 8.69134 26.4619C8.7827 26.4241 8.86079 26.36 8.91574 26.2778C8.97068 26.1956 9 26.0989 9 26C9 25.8674 8.94732 25.7402 8.85355 25.6464C8.75979 25.5527 8.63261 25.5 8.5 25.5Z" stroke="#02101D" stroke-linecap="round" stroke-linejoin="round"/>
<path d="M13.5 25.5C13.4011 25.5 13.3044 25.5293 13.2222 25.5843C13.14 25.6392 13.0759 25.7173 13.0381 25.8087C13.0002 25.9 12.9903 26.0006 13.0096 26.0975C13.0289 26.1945 13.0765 26.2836 13.1464 26.3536C13.2164 26.4235 13.3055 26.4711 13.4025 26.4904C13.4994 26.5097 13.6 26.4998 13.6913 26.4619C13.7827 26.4241 13.8608 26.36 13.9157 26.2778C13.9707 26.1956 14 26.0989 14 26C14 25.8674 13.9473 25.7402 13.8536 25.6464C13.7598 25.5527 13.6326 25.5 13.5 25.5Z" stroke="#02101D" stroke-linecap="round" stroke-linejoin="round"/>
<path d="M25 21H6C4.67392 21 3.40215 21.5268 2.46447 22.4645C1.52678 23.4021 1 24.6739 1 26C1 27.3261 1.52678 28.5979 2.46447 29.5355C3.40215 30.4732 4.67392 31 6 31H19" stroke="#02101D" stroke-linecap="round" stroke-linejoin="round"/>
<path d="M8.5 15.5C8.40111 15.5 8.30444 15.5293 8.22221 15.5843C8.13999 15.6392 8.0759 15.7173 8.03806 15.8087C8.00022 15.9 7.99031 16.0006 8.00961 16.0975C8.0289 16.1945 8.07652 16.2836 8.14645 16.3536C8.21637 16.4235 8.30546 16.4711 8.40245 16.4904C8.49945 16.5097 8.59998 16.4998 8.69134 16.4619C8.7827 16.4241 8.86079 16.36 8.91574 16.2778C8.97068 16.1956 9 16.0989 9 16C9 15.8674 8.94732 15.7402 8.85355 15.6464C8.75979 15.5527 8.63261 15.5 8.5 15.5Z" stroke="#02101D" stroke-linecap="round" stroke-linejoin="round"/>
<path d="M13.5 15.5C13.4011 15.5 13.3044 15.5293 13.2222 15.5843C13.14 15.6392 13.0759 15.7173 13.0381 15.8087C13.0002 15.9 12.9903 16.0006 13.0096 16.0975C13.0289 16.1945 13.0765 16.2836 13.1464 16.3536C13.2164 16.4235 13.3055 16.4711 13.4025 16.4904C13.4994 16.5097 13.6 16.4998 13.6913 16.4619C13.7827 16.4241 13.8608 16.36 13.9157 16.2778C13.9707 16.1956 14 16.0989 14 16C14 15.8674 13.9473 15.7402 13.8536 15.6464C13.7598 15.5527 13.6326 15.5 13.5 15.5Z" stroke="#02101D" stroke-linecap="round" stroke-linejoin="round"/>
<path d="M35 16C35 14.6739 34.4732 13.4021 33.5355 12.4645C32.5979 11.5268 31.3261 11 30 11H6C4.67392 11 3.40215 11.5268 2.46447 12.4645C1.52678 13.4021 1 14.6739 1 16C1 17.3261 1.52678 18.5979 2.46447 19.5355C3.40215 20.4732 4.67392 21 6 21H25" stroke="#02101D" stroke-linecap="round" stroke-linejoin="round"/>
<path d="M8.5 5.5C8.40111 5.5 8.30444 5.52932 8.22221 5.58427C8.13999 5.63921 8.0759 5.7173 8.03806 5.80866C8.00022 5.90002 7.99031 6.00055 8.00961 6.09755C8.0289 6.19454 8.07652 6.28363 8.14645 6.35355C8.21637 6.42348 8.30546 6.4711 8.40245 6.49039C8.49945 6.50969 8.59998 6.49978 8.69134 6.46194C8.7827 6.4241 8.86079 6.36001 8.91574 6.27779C8.97068 6.19556 9 6.09889 9 6C9 5.86739 8.94732 5.74021 8.85355 5.64645C8.75979 5.55268 8.63261 5.5 8.5 5.5Z" stroke="#02101D" stroke-linecap="round" stroke-linejoin="round"/>
<path d="M13.5 5.5C13.4011 5.5 13.3044 5.52932 13.2222 5.58427C13.14 5.63921 13.0759 5.7173 13.0381 5.80866C13.0002 5.90002 12.9903 6.00055 13.0096 6.09755C13.0289 6.19454 13.0765 6.28363 13.1464 6.35355C13.2164 6.42348 13.3055 6.4711 13.4025 6.49039C13.4994 6.50969 13.6 6.49978 13.6913 6.46194C13.7827 6.4241 13.8608 6.36001 13.9157 6.27779C13.9707 6.19556 14 6.09889 14 6C14 5.86739 13.9473 5.74021 13.8536 5.64645C13.7598 5.55268 13.6326 5.5 13.5 5.5Z" stroke="#02101D" stroke-linecap="round" stroke-linejoin="round"/>
<path d="M35 6C35 5.34339 34.8707 4.69321 34.6194 4.08658C34.3681 3.47995 33.9998 2.92876 33.5355 2.46447C33.0712 2.00017 32.52 1.63188 31.9134 1.3806C31.3068 1.12933 30.6566 1 30 1H6C4.67392 1 3.40215 1.52678 2.46447 2.46447C1.52678 3.40215 1 4.67392 1 6C1 7.32608 1.52678 8.59785 2.46447 9.53553C3.40215 10.4732 4.67392 11 6 11H30C31.3261 11 32.5979 10.4732 33.5355 9.53553C34.4732 8.59785 35 7.32608 35 6Z" stroke="#02101D" stroke-linecap="round" stroke-linejoin="round"/>
</g>
<defs>
<clipPath id="clip0_32_1295">
<rect width="48" height="48" fill="white"/>
</clipPath>
</defs>
</svg>
