<svg width="48" height="48" viewBox="0 0 48 48" fill="none" xmlns="http://www.w3.org/2000/svg">
<g clip-path="url(#clip0_38_2468)">
<path d="M19 41C22.5601 41 26.0402 39.9443 29.0003 37.9665C31.9604 35.9886 34.2675 33.1774 35.6298 29.8883C36.9922 26.5992 37.3487 22.98 36.6541 19.4884C35.9596 15.9967 34.2453 12.7894 31.7279 10.2721C29.2106 7.75474 26.0033 6.04041 22.5116 5.34587C19.02 4.65134 15.4008 5.0078 12.1117 6.37018C8.82263 7.73255 6.01141 10.0397 4.03355 12.9997C2.05568 15.9598 1 19.4399 1 23C1 27.7739 2.89642 32.3523 6.27208 35.7279C9.64773 39.1036 14.2261 41 19 41Z" fill="#D4E9FC"/>
<path d="M19 33C14.9233 32.9973 10.9683 31.6108 7.78229 29.0675C4.59626 26.5242 2.36792 22.9747 1.462 19C0.85236 21.6387 0.845986 24.3809 1.44335 27.0224C2.04072 29.6639 3.22643 32.1365 4.91214 34.2561C6.59785 36.3757 8.74011 38.0876 11.1793 39.2642C13.6185 40.4409 16.2918 41.052 19 41.052C21.7082 41.052 24.3815 40.4409 26.8207 39.2642C29.2599 38.0876 31.4021 36.3757 33.0879 34.2561C34.7736 32.1365 35.9593 29.6639 36.5566 27.0224C37.154 24.3809 37.1476 21.6387 36.538 19C35.6321 22.9747 33.4037 26.5242 30.2177 29.0675C27.0317 31.6108 23.0767 32.9973 19 33Z" fill="#A4D0F9"/>
<path d="M19 33C20.9778 33 22.9112 32.4135 24.5557 31.3147C26.2002 30.2159 27.4819 28.6541 28.2388 26.8268C28.9957 24.9996 29.1937 22.9889 28.8079 21.0491C28.422 19.1093 27.4696 17.3275 26.0711 15.9289C24.6725 14.5304 22.8907 13.578 20.9509 13.1922C19.0111 12.8063 17.0004 13.0043 15.1732 13.7612C13.3459 14.5181 11.7841 15.7998 10.6853 17.4443C9.58649 19.0888 9 21.0222 9 23C9 25.6522 10.0536 28.1957 11.9289 30.0711C13.8043 31.9464 16.3478 33 19 33Z" fill="#F2F2F2"/>
<path d="M19 23L29 13" stroke="#02101D" stroke-linecap="round" stroke-linejoin="round"/>
<path d="M29.586 6.414C29.2109 6.78899 29.0001 7.29761 29 7.828V13H34.172C34.7024 12.9999 35.211 12.7891 35.586 12.414L41 7H35V1L29.586 6.414Z" fill="#A4D0F9" stroke="#02101D" stroke-linecap="round" stroke-linejoin="round"/>
<path d="M18.9998 33C17.1517 32.9995 15.3399 32.4869 13.7654 31.519C12.191 30.5512 10.9156 29.1659 10.0808 27.5171C9.24596 25.8682 8.88441 24.0203 9.03625 22.1784C9.1881 20.3365 9.84739 18.5727 10.941 17.0829C12.0345 15.593 13.5196 14.4353 15.2312 13.7384C16.9429 13.0414 18.8143 12.8324 20.6375 13.1346C22.4608 13.4368 24.1646 14.2383 25.5599 15.4502C26.9552 16.6621 27.9874 18.237 28.5418 20" stroke="#02101D" stroke-linecap="round" stroke-linejoin="round"/>
<path d="M18.9998 41C16.3826 40.9983 13.7973 40.4258 11.424 39.3226C9.05075 38.2194 6.9466 36.6119 5.25822 34.6121C3.56984 32.6124 2.33784 30.2685 1.64809 27.7439C0.958338 25.2192 0.827425 22.5745 1.26447 19.9941C1.70152 17.4137 2.69602 14.9596 4.17866 12.8029C5.6613 10.6462 7.59641 8.83878 9.84913 7.50655C12.1018 6.17433 14.618 5.34937 17.2222 5.08918C19.8264 4.82898 22.456 5.13981 24.9278 6" stroke="#02101D" stroke-linecap="round" stroke-linejoin="round"/>
<path d="M35 47C37.3734 47 39.6935 46.2962 41.6668 44.9776C43.6402 43.6591 45.1783 41.7849 46.0866 39.5922C46.9948 37.3995 47.2324 34.9867 46.7694 32.6589C46.3064 30.3311 45.1635 28.193 43.4853 26.5147C41.8071 24.8365 39.6689 23.6936 37.3411 23.2306C35.0133 22.7676 32.6005 23.0052 30.4078 23.9135C28.2151 24.8217 26.3409 26.3598 25.0224 28.3332C23.7038 30.3066 23 32.6266 23 35C23 38.1826 24.2643 41.2348 26.5147 43.4853C28.7652 45.7357 31.8174 47 35 47Z" fill="#A4D0F9"/>
<path d="M34.9998 23C32.5595 23.003 30.1781 23.75 28.1732 25.1412C26.1683 26.5325 24.6353 28.502 23.7785 30.787C22.9218 33.072 22.782 35.5639 23.3779 37.9303C23.9738 40.2968 25.2771 42.4253 27.1138 44.032L44.0298 27.116C42.9072 25.8233 41.52 24.7868 39.9621 24.0767C38.4042 23.3666 36.712 22.9994 34.9998 23Z" fill="#D4E9FC"/>
<path d="M35 47C37.3734 47 39.6935 46.2962 41.6668 44.9776C43.6402 43.6591 45.1783 41.7849 46.0866 39.5922C46.9948 37.3995 47.2324 34.9867 46.7694 32.6589C46.3064 30.3311 45.1635 28.193 43.4853 26.5147C41.8071 24.8365 39.6689 23.6936 37.3411 23.2306C35.0133 22.7676 32.6005 23.0052 30.4078 23.9135C28.2151 24.8217 26.3409 26.3598 25.0224 28.3332C23.7038 30.3066 23 32.6266 23 35C23 38.1826 24.2643 41.2349 26.5147 43.4853C28.7652 45.7357 31.8174 47 35 47Z" stroke="#02101D" stroke-linecap="round" stroke-linejoin="round"/>
<path d="M40.3481 31.52L34.5481 39.268C34.4191 39.4398 34.2547 39.5819 34.066 39.6846C33.8774 39.7873 33.6689 39.8484 33.4546 39.8635C33.2403 39.8787 33.0253 39.8477 32.824 39.7725C32.6228 39.6974 32.44 39.5799 32.2881 39.428L29.2881 36.428" stroke="#02101D" stroke-linecap="round" stroke-linejoin="round"/>
</g>
<defs>
<clipPath id="clip0_38_2468">
<rect width="48" height="48" fill="white"/>
</clipPath>
</defs>
</svg>
