<svg width="112" height="112" viewBox="0 0 112 112" fill="none" xmlns="http://www.w3.org/2000/svg">
<path d="M44.3333 95.6668C52.6401 95.6668 60.7603 93.2035 67.6672 88.5885C74.5741 83.9735 79.9573 77.414 83.1362 69.7395C86.3151 62.065 87.1468 53.6202 85.5262 45.473C83.9057 37.3258 79.9055 29.8421 74.0317 23.9683C68.1579 18.0945 60.6743 14.0944 52.527 12.4738C44.3798 10.8532 35.935 11.6849 28.2605 14.8638C20.5861 18.0427 14.0265 23.426 9.41153 30.3328C4.79651 37.2397 2.33325 45.36 2.33325 53.6668C2.33325 64.8059 6.75824 75.4887 14.6348 83.3652C22.5113 91.2418 33.1942 95.6668 44.3333 95.6668Z" fill="#8FFFD0"/>
<path d="M44.3333 76.9999C34.821 76.9936 25.5927 73.7585 18.1586 67.8242C10.7245 61.8898 5.52508 53.6076 3.41125 44.3333C1.98876 50.4902 1.97389 56.8887 3.36774 63.0522C4.76159 69.2156 7.52825 74.9851 11.4616 79.9308C15.3949 84.8765 20.3935 88.8709 26.085 91.6165C31.7765 94.362 38.0141 95.7879 44.3333 95.7879C50.6524 95.7879 56.89 94.362 62.5815 91.6165C68.273 88.8709 73.2716 84.8765 77.2049 79.9308C81.1383 74.9851 83.9049 69.2156 85.2988 63.0522C86.6926 56.8887 86.6777 50.4902 85.2552 44.3333C83.1414 53.6076 77.942 61.8898 70.5079 67.8242C63.0738 73.7585 53.8455 76.9936 44.3333 76.9999Z" fill="#00EB89"/>
<path d="M44.3333 76.9999C48.9482 76.9999 53.4595 75.6314 57.2966 73.0675C61.1338 70.5037 64.1245 66.8595 65.8905 62.5959C67.6566 58.3323 68.1186 53.6407 67.2183 49.1145C66.318 44.5883 64.0957 40.4307 60.8325 37.1674C57.5693 33.9042 53.4117 31.6819 48.8854 30.7816C44.3592 29.8813 39.6677 30.3434 35.4041 32.1094C31.1404 33.8755 27.4963 36.8661 24.9324 40.7033C22.3685 44.5404 21 49.0517 21 53.6666C21 59.855 23.4583 65.7899 27.8342 70.1658C32.21 74.5416 38.1449 76.9999 44.3333 76.9999Z" fill="white"/>
<path d="M44.3333 53.6666L67.6666 30.3333" stroke="#00140C" stroke-width="2" stroke-linecap="round" stroke-linejoin="round"/>
<path d="M69.0341 14.9659C68.1589 15.8409 67.667 17.0277 67.6667 18.2653V30.3333H79.7347C80.9723 30.333 82.1591 29.8411 83.0341 28.9659L95.6667 16.3333H81.6667V2.33325L69.0341 14.9659Z" fill="#00EB89" stroke="#00140C" stroke-width="2" stroke-linecap="round" stroke-linejoin="round"/>
<path d="M44.3334 76.9999C40.021 76.9988 35.7934 75.8027 32.1197 73.5443C28.4461 71.2859 25.4701 68.0537 23.5222 64.2064C21.5743 60.3591 20.7307 56.0473 21.085 51.7495C21.4393 47.4518 22.9777 43.3363 25.5293 39.86C28.081 36.3836 31.5461 33.6823 35.54 32.0561C39.5339 30.4298 43.9003 29.9422 48.1546 30.6473C52.4089 31.3524 56.3845 33.2226 59.6403 36.0504C62.896 38.8782 65.3043 42.5529 66.598 46.6666" stroke="#00140C" stroke-width="2" stroke-linecap="round" stroke-linejoin="round"/>
<path d="M44.3332 95.6667C38.2265 95.6627 32.1941 94.327 26.6565 91.7528C21.1188 89.1786 16.2091 85.4277 12.2696 80.7617C8.33003 76.0956 5.45537 70.6266 3.84595 64.7358C2.23653 58.845 1.93107 52.674 2.95085 46.653C3.97063 40.6321 6.29112 34.9059 9.75061 29.8736C13.2101 24.8413 17.7254 20.6239 22.9817 17.5154C28.2381 14.4068 34.109 12.482 40.1855 11.8748C46.262 11.2677 52.3978 11.993 58.1652 14.0001" stroke="#00140C" stroke-width="2" stroke-linecap="round" stroke-linejoin="round"/>
<path d="M81.6667 109.667C87.2046 109.667 92.6181 108.025 97.2227 104.948C101.827 101.871 105.416 97.4982 107.535 92.3819C109.655 87.2656 110.209 81.6357 109.129 76.2042C108.048 70.7728 105.382 65.7836 101.466 61.8678C97.5499 57.9519 92.5607 55.2852 87.1293 54.2048C81.6978 53.1244 76.0679 53.6789 70.9516 55.7981C65.8353 57.9174 61.4623 61.5062 58.3856 66.1108C55.3089 70.7154 53.6667 76.1289 53.6667 81.6668C53.6667 89.0928 56.6167 96.2147 61.8678 101.466C67.1188 106.717 74.2407 109.667 81.6667 109.667Z" fill="#00EB89"/>
<path d="M81.6666 53.6667C75.9725 53.6738 70.4159 55.4167 65.7378 58.663C61.0598 61.9093 57.4827 66.5047 55.4835 71.8364C53.4844 77.168 53.1584 82.9824 54.5488 88.5041C55.9393 94.0259 58.9802 98.9924 63.266 102.741L102.737 63.2707C100.117 60.2544 96.8804 57.8359 93.2453 56.179C89.6102 54.5221 85.6616 53.6653 81.6666 53.6667Z" fill="#8FFFD0"/>
<path d="M81.6667 109.667C87.2046 109.667 92.6181 108.025 97.2227 104.948C101.827 101.871 105.416 97.4982 107.535 92.3819C109.655 87.2656 110.209 81.6357 109.129 76.2042C108.048 70.7728 105.382 65.7836 101.466 61.8678C97.5499 57.9519 92.5607 55.2852 87.1293 54.2048C81.6978 53.1244 76.0679 53.6789 70.9516 55.7981C65.8353 57.9174 61.4623 61.5062 58.3856 66.1108C55.3089 70.7154 53.6667 76.1289 53.6667 81.6668C53.6667 89.0928 56.6167 96.2147 61.8678 101.466C67.1188 106.717 74.2407 109.667 81.6667 109.667Z" stroke="#00140C" stroke-width="2" stroke-linecap="round" stroke-linejoin="round"/>
<path d="M94.1453 73.5466L80.612 91.6253C80.311 92.0261 79.9274 92.3576 79.4872 92.5973C79.047 92.837 78.5604 92.9794 78.0604 93.0148C77.5605 93.0502 77.0587 92.9778 76.5891 92.8025C76.1195 92.6272 75.6931 92.353 75.3386 91.9986L68.3386 84.9986" stroke="#00140C" stroke-width="2" stroke-linecap="round" stroke-linejoin="round"/>
</svg>
