<svg width="48" height="48" viewBox="0 0 48 48" fill="none" xmlns="http://www.w3.org/2000/svg">
<g clip-path="url(#clip0_32_1277)">
<path d="M25 25C24.4696 25 23.9609 25.2107 23.5858 25.5858C23.2107 25.9609 23 26.4696 23 27V39C23 39.5304 23.2107 40.0391 23.5858 40.4142C23.9609 40.7893 24.4696 41 25 41H29V46L34 41H45C45.5304 41 46.0391 40.7893 46.4142 40.4142C46.7893 40.0391 47 39.5304 47 39V27C47 26.4696 46.7893 25.9609 46.4142 25.5858C46.0391 25.2107 45.5304 25 45 25H25Z" fill="#A4D0F9"/>
<path d="M25 25C24.4696 25 23.9609 25.2107 23.5858 25.5858C23.2107 25.9609 23 26.4696 23 27V39C23 39.5304 23.2107 40.0391 23.5858 40.4142C23.9609 40.7893 24.4696 41 25 41H26.4L42.4 25H25Z" fill="#D4E9FC"/>
<path d="M23 1C23.5304 1 24.0391 1.21071 24.4142 1.58579C24.7893 1.96086 25 2.46957 25 3V15C25 15.5304 24.7893 16.0391 24.4142 16.4142C24.0391 16.7893 23.5304 17 23 17H19V22L14 17H3C2.46957 17 1.96086 16.7893 1.58579 16.4142C1.21071 16.0391 1 15.5304 1 15V3C1 2.46957 1.21071 1.96086 1.58579 1.58579C1.96086 1.21071 2.46957 1 3 1H23Z" fill="#A4D0F9"/>
<path d="M3 1C2.46957 1 1.96086 1.21071 1.58579 1.58579C1.21071 1.96086 1 2.46957 1 3V15C1 15.5304 1.21071 16.0391 1.58579 16.4142C1.96086 16.7893 2.46957 17 3 17H4.4L20.4 1H3Z" fill="#D4E9FC"/>
<path d="M23 1C23.5304 1 24.0391 1.21071 24.4142 1.58579C24.7893 1.96086 25 2.46957 25 3V15C25 15.5304 24.7893 16.0391 24.4142 16.4142C24.0391 16.7893 23.5304 17 23 17H19V22L14 17H3C2.46957 17 1.96086 16.7893 1.58579 16.4142C1.21071 16.0391 1 15.5304 1 15V3C1 2.46957 1.21071 1.96086 1.58579 1.58579C1.96086 1.21071 2.46957 1 3 1H23Z" stroke="#02101D" stroke-linecap="round" stroke-linejoin="round"/>
<path d="M46.6639 21.0001C45.7868 19.4782 44.5241 18.2142 43.0032 17.3353C41.4822 16.4564 39.7566 15.9937 37.9999 15.9937C36.2433 15.9937 34.5177 16.4564 32.9967 17.3353C31.4757 18.2142 30.2131 19.4782 29.3359 21.0001" fill="#A4D0F9"/>
<path d="M46.6639 21.0001C45.7868 19.4782 44.5241 18.2142 43.0032 17.3353C41.4822 16.4564 39.7566 15.9937 37.9999 15.9937C36.2433 15.9937 34.5177 16.4564 32.9967 17.3353C31.4757 18.2142 30.2131 19.4782 29.3359 21.0001" stroke="#02101D" stroke-linecap="round" stroke-linejoin="round"/>
<path d="M18.6641 47.0001C17.7869 45.4782 16.5243 44.2142 15.0033 43.3353C13.4823 42.4564 11.7567 41.9937 10.0001 41.9937C8.24342 41.9937 6.51778 42.4564 4.99681 43.3353C3.47585 44.2142 2.21324 45.4782 1.33606 47.0001" fill="#A4D0F9"/>
<path d="M18.6641 47.0001C17.7869 45.4782 16.5243 44.2142 15.0033 43.3353C13.4823 42.4564 11.7567 41.9937 10.0001 41.9937C8.24342 41.9937 6.51778 42.4564 4.99681 43.3353C3.47585 44.2142 2.21324 45.4782 1.33606 47.0001" stroke="#02101D" stroke-linecap="round" stroke-linejoin="round"/>
<path d="M20 9H7" stroke="#02101D" stroke-linecap="round" stroke-linejoin="round"/>
<path d="M11 6L7 9L11 12" stroke="#02101D" stroke-linecap="round" stroke-linejoin="round"/>
<path d="M28 33H41" stroke="#02101D" stroke-linecap="round" stroke-linejoin="round"/>
<path d="M37 30L41 33L37 36" stroke="#02101D" stroke-linecap="round" stroke-linejoin="round"/>
<path d="M43.94 6.16001C42.8824 6.72532 41.6991 7.01426 40.5 7.00001C39.091 7.00053 37.7102 6.6052 36.515 5.85908C35.3198 5.11296 34.3583 4.04607 33.74 2.78001C34.5263 1.98724 35.5183 1.42963 36.6043 1.16992C37.6903 0.910208 38.8272 0.958697 39.8872 1.30993C40.9471 1.66116 41.888 2.30121 42.604 3.15805C43.32 4.01489 43.7827 5.05453 43.94 6.16001Z" fill="#A4D0F9" stroke="#02101D" stroke-linecap="round" stroke-linejoin="round"/>
<path d="M44.0001 6.99979C44.0001 8.59108 43.3679 10.1172 42.2427 11.2424C41.1175 12.3676 39.5914 12.9998 38.0001 12.9998C36.4088 12.9998 34.8826 12.3676 33.7574 11.2424C32.6322 10.1172 32.0001 8.59108 32.0001 6.99979C31.9965 6.21625 32.1485 5.43979 32.4471 4.7154C32.7458 3.99102 33.1853 3.3331 33.7401 2.77979C34.3584 4.04585 35.3199 5.11274 36.5151 5.85885C37.7103 6.60497 39.0911 7.0003 40.5001 6.99979C41.6992 7.01403 42.8825 6.72509 43.9401 6.15979C43.9799 6.43801 44 6.71872 44.0001 6.99979Z" fill="#D4E9FC" stroke="#02101D" stroke-linecap="round" stroke-linejoin="round"/>
<path d="M15.938 32.1542C14.8804 32.7195 13.6972 33.0084 12.498 32.9942C11.0891 32.9947 9.70829 32.5993 8.51309 31.8532C7.31788 31.1071 6.35634 30.0402 5.73804 28.7742C6.52439 27.9814 7.51636 27.4238 8.60235 27.1641C9.68835 26.9043 10.8253 26.9528 11.8852 27.3041C12.9451 27.6553 13.886 28.2953 14.602 29.1522C15.318 30.009 15.7807 31.0487 15.938 32.1542Z" fill="#A4D0F9" stroke="#02101D" stroke-linecap="round" stroke-linejoin="round"/>
<path d="M15.9999 32.9998C15.9999 34.5911 15.3678 36.1172 14.2426 37.2424C13.1174 38.3676 11.5912 38.9998 9.99994 38.9998C8.40864 38.9998 6.88252 38.3676 5.7573 37.2424C4.63208 36.1172 3.99994 34.5911 3.99994 32.9998C3.99637 32.2162 4.14833 31.4398 4.44701 30.7154C4.74569 29.991 5.18515 29.3331 5.73994 28.7798C6.35824 30.0458 7.31979 31.1127 8.51499 31.8589C9.71019 32.605 11.091 33.0003 12.4999 32.9998C13.6991 33.014 14.8823 32.7251 15.9399 32.1598C15.9798 32.438 15.9999 32.7187 15.9999 32.9998Z" fill="#D4E9FC" stroke="#02101D" stroke-linecap="round" stroke-linejoin="round"/>
<path d="M25 25C24.4696 25 23.9609 25.2107 23.5858 25.5858C23.2107 25.9609 23 26.4696 23 27V39C23 39.5304 23.2107 40.0391 23.5858 40.4142C23.9609 40.7893 24.4696 41 25 41H29V46L34 41H45C45.5304 41 46.0391 40.7893 46.4142 40.4142C46.7893 40.0391 47 39.5304 47 39V27C47 26.4696 46.7893 25.9609 46.4142 25.5858C46.0391 25.2107 45.5304 25 45 25H25Z" stroke="#02101D" stroke-linecap="round" stroke-linejoin="round"/>
</g>
<defs>
<clipPath id="clip0_32_1277">
<rect width="48" height="48" fill="white"/>
</clipPath>
</defs>
</svg>
