<svg width="48" height="48" viewBox="0 0 48 48" fill="none" xmlns="http://www.w3.org/2000/svg">
<path d="M5 25.4922C5 30.5313 7.00178 35.364 10.565 38.9272C14.1282 42.4904 18.9609 44.4922 24 44.4922C29.0391 44.4922 33.8718 42.4904 37.435 38.9272C40.9982 35.364 43 30.5313 43 25.4922C43 20.4531 40.9982 15.6203 37.435 12.0572C33.8718 8.49397 29.0391 6.49219 24 6.49219C18.9609 6.49219 14.1282 8.49397 10.565 12.0572C7.00178 15.6203 5 20.4531 5 25.4922Z" fill="white"/>
<path d="M9 25.4922C9 29.4704 10.5804 33.2857 13.3934 36.0988C16.2064 38.9118 20.0218 40.4922 24 40.4922C27.9782 40.4922 31.7936 38.9118 34.6066 36.0988C37.4196 33.2857 39 29.4704 39 25.4922C39 21.5139 37.4196 17.6986 34.6066 14.8856C31.7936 12.0725 27.9782 10.4922 24 10.4922C20.0218 10.4922 16.2064 12.0725 13.3934 14.8856C10.5804 17.6986 9 21.5139 9 25.4922Z" fill="#00EB89"/>
<path d="M24.0001 25.4919L8.80811 5.06787" stroke="#00140C" stroke-linecap="round" stroke-linejoin="round"/>
<path d="M30.0002 7.46191C33.7443 8.70864 37.0074 11.0903 39.3362 14.2761C41.6651 17.4619 42.9442 21.2938 42.9959 25.2398C43.0477 29.1857 41.8694 33.0498 39.6249 36.2956C37.3803 39.5414 34.1808 42.0077 30.4706 43.3522C26.7604 44.6966 22.7237 44.8524 18.9209 43.798C15.1181 42.7436 11.7379 40.5312 9.24985 37.4682C6.76176 34.4051 5.28916 30.6433 5.03654 26.7051C4.78392 22.7669 5.76381 18.8478 7.84015 15.4919" stroke="#00140C" stroke-linecap="round" stroke-linejoin="round"/>
<path d="M20 6.50781C20 7.30346 20.3161 8.06652 20.8787 8.62913C21.4413 9.19174 22.2044 9.50781 23 9.50781C23.7956 9.50781 24.5587 9.19174 25.1213 8.62913C25.6839 8.06652 26 7.30346 26 6.50781C26 5.71216 25.6839 4.9491 25.1213 4.38649C24.5587 3.82388 23.7956 3.50781 23 3.50781C22.2044 3.50781 21.4413 3.82388 20.8787 4.38649C20.3161 4.9491 20 5.71216 20 6.50781Z" fill="#00EB89"/>
<path d="M20 6.50781C20 7.30346 20.3161 8.06652 20.8787 8.62913C21.4413 9.19174 22.2044 9.50781 23 9.50781C23.7956 9.50781 24.5587 9.19174 25.1213 8.62913C25.6839 8.06652 26 7.30346 26 6.50781C26 5.71216 25.6839 4.9491 25.1213 4.38649C24.5587 3.82388 23.7956 3.50781 23 3.50781C22.2044 3.50781 21.4413 3.82388 20.8787 4.38649C20.3161 4.9491 20 5.71216 20 6.50781Z" stroke="#00140C" stroke-linecap="round" stroke-linejoin="round"/>
</svg>
